<svg width="316" height="190" viewBox="0 0 316 190" fill="none" xmlns="http://www.w3.org/2000/svg">
<g clip-path="url(#clip0_7053_23460)">
<rect x="81.5" y="95.5" width="153" height="153" rx="76.5" stroke="#F2F2F7"/>
<rect x="53.5" y="67.5" width="209" height="209" rx="104.5" stroke="#F5F6F7" stroke-linejoin="round"/>
<rect x="20.5" y="34.5" width="275" height="275" rx="137.5" stroke="#F2F2F7" stroke-dasharray="6 6"/>
<rect x="20" y="85" width="50" height="50" rx="25" fill="#F4FFE7"/>
<path d="M57.1171 100.196C57.1171 100.196 57.1171 100.208 57.1171 100.214L50.2968 122.707C50.1935 123.072 49.981 123.397 49.6878 123.638C49.3945 123.879 49.0346 124.025 48.6562 124.055C48.6022 124.06 48.5483 124.063 48.4944 124.063C48.1398 124.064 47.7923 123.963 47.4929 123.773C47.1934 123.583 46.9546 123.312 46.8046 122.99L42.539 114.236C42.4963 114.149 42.482 114.05 42.4982 113.954C42.5144 113.857 42.5602 113.769 42.6292 113.7L49.4167 106.912C49.5851 106.735 49.6776 106.499 49.6745 106.254C49.6713 106.01 49.5728 105.776 49.3999 105.603C49.2271 105.431 48.9935 105.332 48.749 105.329C48.5046 105.326 48.2686 105.418 48.0913 105.587L41.3003 112.374C41.2313 112.443 41.1426 112.489 41.0464 112.505C40.9502 112.521 40.8513 112.507 40.7636 112.464L32.0015 108.2C31.6588 108.036 31.3742 107.771 31.1854 107.441C30.9965 107.111 30.9124 106.732 30.944 106.353C30.9757 105.975 31.1216 105.615 31.3626 105.321C31.6035 105.027 31.9281 104.813 32.2933 104.708L54.7862 97.8875H54.8038C55.1241 97.7975 55.4625 97.7944 55.7844 97.8784C56.1062 97.9624 56.4 98.1305 56.6354 98.3655C56.8709 98.6004 57.0396 98.8938 57.1242 99.2155C57.2089 99.5372 57.2064 99.8757 57.1171 100.196Z" fill="url(#paint0_linear_7053_23460)"/>
<rect x="138" y="13" width="50" height="50" rx="25" fill="#FFFADB"/>
<path d="M175.188 37.9999V47.3749C175.188 48.6181 174.694 49.8103 173.815 50.6894C172.935 51.5685 171.743 52.0624 170.5 52.0624H163.938C163.689 52.0624 163.45 51.9636 163.275 51.7878C163.099 51.612 163 51.3735 163 51.1249C163 50.8762 163.099 50.6378 163.275 50.4619C163.45 50.2861 163.689 50.1874 163.938 50.1874H170.5C171.246 50.1874 171.961 49.891 172.489 49.3636C173.016 48.8361 173.313 48.1208 173.313 47.3749H170.5C169.754 47.3749 169.039 47.0785 168.511 46.5511C167.984 46.0236 167.688 45.3083 167.688 44.5624V39.8749C167.688 39.1289 167.984 38.4136 168.511 37.8861C169.039 37.3587 169.754 37.0624 170.5 37.0624H173.271C173.094 35.1135 172.366 33.2553 171.172 31.7048C169.978 30.1544 168.367 28.9757 166.528 28.3065C164.689 27.6373 162.698 27.5051 160.786 27.9254C158.875 28.3458 157.123 29.3013 155.734 30.6803C154.008 32.3841 152.943 34.646 152.73 37.0624H155.5C156.246 37.0624 156.961 37.3587 157.489 37.8861C158.016 38.4136 158.313 39.1289 158.313 39.8749V44.5624C158.313 45.3083 158.016 46.0236 157.489 46.5511C156.961 47.0785 156.246 47.3749 155.5 47.3749H153.625C152.879 47.3749 152.164 47.0785 151.636 46.5511C151.109 46.0236 150.812 45.3083 150.812 44.5624V37.9999C150.815 35.5857 151.534 33.2265 152.878 31.2211C154.222 29.2156 156.131 27.6539 158.363 26.7337C160.595 25.8136 163.049 25.5762 165.416 26.0518C167.783 26.5274 169.956 27.6945 171.659 29.4053C172.784 30.5354 173.674 31.8762 174.28 33.351C174.885 34.8258 175.194 36.4056 175.188 37.9999Z" fill="url(#paint1_linear_7053_23460)"/>
<rect x="252" y="80" width="50" height="50" rx="25" fill="#E6F8FF"/>
<path d="M288.77 100.47L277.52 92.9697C277.366 92.8669 277.185 92.812 277 92.812C276.815 92.812 276.634 92.8669 276.48 92.9697L265.23 100.47C265.101 100.555 264.996 100.671 264.923 100.808C264.85 100.944 264.812 101.096 264.813 101.25V113.438C264.813 113.935 265.01 114.412 265.362 114.763C265.713 115.115 266.19 115.313 266.688 115.313H287.312C287.81 115.313 288.287 115.115 288.638 114.763C288.99 114.412 289.188 113.935 289.188 113.438V101.25C289.188 101.096 289.15 100.944 289.077 100.808C289.004 100.671 288.899 100.555 288.77 100.47ZM273.334 107.813L266.688 112.5V103.07L273.334 107.813ZM275.253 108.75H278.747L285.384 113.438H268.616L275.253 108.75ZM280.666 107.813L287.312 103.07V112.5L280.666 107.813Z" fill="url(#paint2_linear_7053_23460)"/>
<g filter="url(#filter0_d_7053_23460)">
<rect x="131" y="118" width="54" height="54" rx="27" fill="url(#paint3_linear_7053_23460)"/>
<path d="M160.06 134.613C160.094 134.485 160.153 134.364 160.234 134.259C160.315 134.153 160.416 134.064 160.531 133.998C160.646 133.931 160.774 133.888 160.906 133.871C161.037 133.854 161.171 133.862 161.3 133.897C163.177 134.386 164.889 135.368 166.261 136.739C167.633 138.111 168.614 139.824 169.104 141.701C169.138 141.829 169.147 141.963 169.13 142.095C169.112 142.227 169.069 142.354 169.003 142.469C168.936 142.584 168.847 142.685 168.742 142.766C168.636 142.847 168.516 142.907 168.387 142.941C168.302 142.963 168.214 142.975 168.125 142.975C167.902 142.975 167.686 142.902 167.509 142.766C167.332 142.63 167.205 142.44 167.147 142.225C166.748 140.692 165.947 139.294 164.827 138.174C163.708 137.054 162.31 136.253 160.777 135.853C160.649 135.819 160.528 135.76 160.422 135.679C160.317 135.598 160.228 135.497 160.161 135.382C160.095 135.267 160.051 135.14 160.034 135.008C160.016 134.876 160.025 134.742 160.06 134.613ZM159.765 139.903C161.51 140.369 162.631 141.492 163.097 143.237C163.155 143.452 163.282 143.643 163.459 143.778C163.636 143.914 163.852 143.988 164.075 143.988C164.164 143.987 164.252 143.976 164.337 143.953C164.466 143.919 164.586 143.86 164.692 143.779C164.797 143.698 164.886 143.597 164.953 143.482C165.019 143.366 165.062 143.239 165.08 143.107C165.097 142.976 165.088 142.842 165.054 142.713C164.406 140.288 162.712 138.595 160.287 137.947C160.028 137.877 159.752 137.914 159.519 138.049C159.287 138.183 159.117 138.404 159.048 138.664C158.978 138.923 159.015 139.2 159.149 139.432C159.284 139.665 159.505 139.834 159.765 139.903ZM168.932 149.868L162.969 147.196L162.953 147.188C162.643 147.056 162.306 147.003 161.97 147.034C161.635 147.065 161.313 147.179 161.033 147.366C161 147.387 160.968 147.411 160.938 147.436L157.857 150.063C155.906 149.115 153.891 147.115 152.943 145.189L155.573 142.061C155.598 142.03 155.622 141.998 155.645 141.964C155.828 141.685 155.939 141.364 155.968 141.032C155.997 140.699 155.944 140.365 155.812 140.058V140.043L153.133 134.07C152.959 133.669 152.66 133.335 152.281 133.118C151.902 132.901 151.463 132.812 151.029 132.865C149.314 133.091 147.74 133.933 146.601 135.235C145.461 136.536 144.835 138.208 144.838 139.938C144.838 149.987 153.014 158.163 163.063 158.163C164.793 158.166 166.464 157.539 167.766 156.4C169.067 155.26 169.91 153.686 170.135 151.971C170.188 151.538 170.1 151.099 169.883 150.719C169.666 150.34 169.332 150.042 168.932 149.868Z" fill="white"/>
</g>
<rect width="316" height="55" transform="translate(0 135)" fill="url(#paint4_linear_7053_23460)"/>
</g>
<defs>
<filter id="filter0_d_7053_23460" x="121" y="112" width="74" height="74" filterUnits="userSpaceOnUse" color-interpolation-filters="sRGB">
<feFlood flood-opacity="0" result="BackgroundImageFix"/>
<feColorMatrix in="SourceAlpha" type="matrix" values="0 0 0 0 0 0 0 0 0 0 0 0 0 0 0 0 0 0 127 0" result="hardAlpha"/>
<feOffset dy="4"/>
<feGaussianBlur stdDeviation="5"/>
<feComposite in2="hardAlpha" operator="out"/>
<feColorMatrix type="matrix" values="0 0 0 0 0 0 0 0 0 0.212295 0 0 0 0 0.606558 0 0 0 0.2 0"/>
<feBlend mode="normal" in2="BackgroundImageFix" result="effect1_dropShadow_7053_23460"/>
<feBlend mode="normal" in="SourceGraphic" in2="effect1_dropShadow_7053_23460" result="shape"/>
</filter>
<linearGradient id="paint0_linear_7053_23460" x1="44.0617" y1="97.8176" x2="44.0617" y2="124.063" gradientUnits="userSpaceOnUse">
<stop stop-color="#2D8F00"/>
<stop offset="1" stop-color="#3EC500"/>
</linearGradient>
<linearGradient id="paint1_linear_7053_23460" x1="163" y1="25.8127" x2="163" y2="52.0624" gradientUnits="userSpaceOnUse">
<stop stop-color="#EDAA00"/>
<stop offset="1" stop-color="#FFD97A"/>
</linearGradient>
<linearGradient id="paint2_linear_7053_23460" x1="277" y1="92.812" x2="277" y2="115.313" gradientUnits="userSpaceOnUse">
<stop stop-color="#00B7FF"/>
<stop offset="1" stop-color="#008AC1"/>
</linearGradient>
<linearGradient id="paint3_linear_7053_23460" x1="158" y1="118" x2="158" y2="172" gradientUnits="userSpaceOnUse">
<stop stop-color="#015AA2"/>
<stop offset="1" stop-color="#00213C"/>
</linearGradient>
<linearGradient id="paint4_linear_7053_23460" x1="158" y1="0" x2="158" y2="55" gradientUnits="userSpaceOnUse">
<stop stop-color="white" stop-opacity="0"/>
<stop offset="1" stop-color="white"/>
</linearGradient>
<clipPath id="clip0_7053_23460">
<rect width="316" height="190" fill="white"/>
</clipPath>
</defs>
</svg>
