<svg width="316" height="190" viewBox="0 0 316 190" fill="none" xmlns="http://www.w3.org/2000/svg">
<g clip-path="url(#clip0_7053_23481)">
<rect x="33.1637" y="11.1637" width="335.673" height="107.673" rx="7.83625" fill="white"/>
<rect x="33.1637" y="11.1637" width="335.673" height="107.673" rx="7.83625" stroke="#E5E5EA" stroke-width="0.327496"/>
<rect x="16.1637" y="24.1637" width="577.672" height="203.571" rx="7.83625" fill="white"/>
<rect x="16.1637" y="24.1637" width="577.672" height="203.571" rx="7.83625" stroke="#E5E5EA" stroke-width="0.327496"/>
<path d="M24.1147 42L26.3064 35.8708H27.5382L29.73 42H28.5789L28.0607 40.4157H25.7797L25.2615 42H24.1147ZM26.9096 36.9624L26.0558 39.5704H27.7846L26.9351 36.9624H26.9096ZM30.3841 42V35.8708H32.7457C33.986 35.8708 34.8313 36.6906 34.8313 37.9181V37.9266C34.8313 39.1499 33.986 39.9739 32.7457 39.9739H31.4799V42H30.3841ZM32.4739 36.767H31.4799V39.0904H32.4739C33.2597 39.0904 33.7184 38.6657 33.7184 37.9308V37.9223C33.7184 37.1875 33.2597 36.767 32.4739 36.767ZM35.6341 42V35.8708H36.7299V42H35.6341ZM39.4908 42V35.8708H40.5485V39.3665H40.5697L42.2518 37.4976H43.475L41.6911 39.4345L43.5473 42H42.3282L40.9053 40.0631L40.5485 40.4369V42H39.4908ZM46.4526 35.531L47.1364 34.2864H48.0667L47.094 35.531H46.4526ZM44.2396 37.0091L45.2378 35.7051H46.1553L47.1577 37.0091H46.3506L45.6923 36.1554L45.0466 37.0091H44.2396ZM45.722 42.0892C44.3713 42.0892 43.5558 41.193 43.5558 39.7615V39.7573C43.5558 38.3386 44.384 37.4041 45.671 37.4041C46.958 37.4041 47.7566 38.3089 47.7566 39.6681V40.0079H44.6049C44.6219 40.7979 45.0551 41.2652 45.7432 41.2652C46.2699 41.2652 46.614 40.9848 46.7159 40.6833L46.7244 40.6535H47.7141L47.7014 40.7002C47.5612 41.3926 46.8986 42.0892 45.722 42.0892ZM45.6838 38.2324C45.1231 38.2324 44.7026 38.6104 44.6176 39.3028H46.7287C46.6522 38.5892 46.2445 38.2324 45.6838 38.2324ZM50.114 42.0892C49.171 42.0892 48.725 41.7069 48.725 40.781V38.3131H48.0879V37.4976H48.725V36.355H49.7997V37.4976H50.6364V38.3131H49.7997V40.6918C49.7997 41.1335 49.995 41.2737 50.3816 41.2737C50.4835 41.2737 50.5642 41.2609 50.6364 41.2567V42.051C50.5133 42.068 50.3264 42.0892 50.114 42.0892ZM53.1043 42V37.4976H54.1619V38.2027H54.1831C54.4168 37.7185 54.8755 37.4041 55.5593 37.4041C56.549 37.4041 57.114 38.0413 57.114 39.0862V42H56.0563V39.2986C56.0563 38.6572 55.759 38.2961 55.1558 38.2961C54.5484 38.2961 54.1619 38.7379 54.1619 39.3878V42H53.1043ZM60.7116 35.531L61.3955 34.2864H62.3257L61.353 35.531H60.7116ZM58.4987 37.0091L59.4968 35.7051H60.4101L61.4167 37.0091H60.6097L59.9513 36.1554L59.3057 37.0091H58.4987ZM59.9556 42.0892C58.6303 42.0892 57.7766 41.2057 57.7766 39.7488V39.7403C57.7766 38.2961 58.6431 37.4041 59.9513 37.4041C61.2638 37.4041 62.1346 38.2876 62.1346 39.7403V39.7488C62.1346 41.21 61.2766 42.0892 59.9556 42.0892ZM59.9598 41.2354C60.6267 41.2354 61.0557 40.6918 61.0557 39.7488V39.7403C61.0557 38.8016 60.6224 38.2621 59.9513 38.2621C59.293 38.2621 58.8555 38.8058 58.8555 39.7403V39.7488C58.8555 40.696 59.2845 41.2354 59.9598 41.2354ZM63.3749 36.852C63.0435 36.852 62.7844 36.5886 62.7844 36.2743C62.7844 35.9515 63.0435 35.6924 63.3749 35.6924C63.7062 35.6924 63.961 35.9515 63.961 36.2743C63.961 36.5886 63.7062 36.852 63.3749 36.852ZM62.8439 42V37.4976H63.9015V42H62.8439Z" fill="#1C1C1E"/>
<rect x="24" y="48.9299" width="562" height="170.968" rx="3.86622" fill="white"/>
<rect x="31.7324" y="56.6626" width="17.8813" height="10.1488" rx="5.07441" fill="#015AA2"/>
<g filter="url(#filter0_d_7053_23481)">
<circle cx="44.0562" cy="61.7371" r="3.62458" fill="white"/>
</g>
<path d="M55.8756 63.7368V58.9696H56.4703V61.3086H56.4901L58.5119 58.9696H59.2585L57.3953 61.0807L59.4336 63.7368H58.6738L56.979 61.5102L56.4703 62.0685V63.7368H55.8756ZM61.614 58.854L62.1459 57.929H62.734L62.0171 58.854H61.614ZM60.0316 59.9079L60.7815 58.9168H61.3167L62.0666 59.9079H61.5711L61.0491 59.2174L60.5271 59.9079H60.0316ZM61.0656 63.8029C60.0778 63.8029 59.4832 63.1124 59.4832 62.0321V62.0288C59.4832 60.965 60.0911 60.2349 61.0293 60.2349C61.9675 60.2349 62.5391 60.932 62.5391 61.9628V62.1742H60.0646C60.0778 62.8812 60.4677 63.2941 61.0789 63.2941C61.5149 63.2941 61.8222 63.0761 61.9213 62.7821L61.9312 62.7523H62.4961L62.4895 62.7854C62.3772 63.3536 61.8156 63.8029 61.0656 63.8029ZM61.026 60.7437C60.5271 60.7437 60.1373 61.084 60.0745 61.7249H61.9543C61.8982 61.0576 61.5282 60.7437 61.026 60.7437ZM64.2371 63.8029C63.6062 63.8029 63.2956 63.5188 63.2956 62.8613V60.7767H62.7935V60.301H63.2956V59.3727H63.8903V60.301H64.5444V60.7767H63.8903V62.858C63.8903 63.2247 64.0521 63.3272 64.3594 63.3272C64.4288 63.3272 64.4948 63.3173 64.5444 63.3139V63.7798C64.4717 63.7897 64.3495 63.8029 64.2371 63.8029ZM66.5497 63.7368V60.301H67.1245V60.79H67.1378C67.3228 60.4695 67.673 60.2349 68.1949 60.2349C68.9482 60.2349 69.3842 60.7239 69.3842 61.5068V63.7368H68.8094V61.6093C68.8094 61.0509 68.5484 60.7437 68.0198 60.7437C67.478 60.7437 67.1245 61.1302 67.1245 61.715V63.7368H66.5497ZM72.1065 58.854L72.6383 57.929H73.2264L72.5095 58.854H72.1065ZM70.524 59.9079L71.2739 58.9168H71.8091L72.5591 59.9079H72.0635L71.5415 59.2174L71.0196 59.9079H70.524ZM71.5415 63.8029C70.5868 63.8029 69.9492 63.1124 69.9492 62.0189V62.0123C69.9492 60.9188 70.5901 60.2349 71.5382 60.2349C72.4864 60.2349 73.1306 60.9155 73.1306 62.0123V62.0189C73.1306 63.1157 72.4897 63.8029 71.5415 63.8029ZM71.5448 63.2941C72.1494 63.2941 72.5425 62.825 72.5425 62.0189V62.0123C72.5425 61.2062 72.1461 60.7437 71.5382 60.7437C70.9403 60.7437 70.5372 61.2095 70.5372 62.0123V62.0189C70.5372 62.8283 70.937 63.2941 71.5448 63.2941ZM74.0358 59.7196C73.8376 59.7196 73.6757 59.5577 73.6757 59.3595C73.6757 59.1579 73.8376 58.9994 74.0358 58.9994C74.2373 58.9994 74.3959 59.1579 74.3959 59.3595C74.3959 59.5577 74.2373 59.7196 74.0358 59.7196ZM73.7484 63.7368V60.301H74.3232V63.7368H73.7484ZM76.203 63.7368L77.9771 58.9696H78.5651L80.3359 63.7368H79.7115L79.2291 62.3724H77.3097L76.8274 63.7368H76.203ZM78.2645 59.6832L77.4914 61.8669H79.0507L78.2777 59.6832H78.2645ZM80.8843 63.7368V58.9696H82.5823C83.4776 58.9696 84.1119 59.5874 84.1119 60.4926V60.4992C84.1119 61.4044 83.4776 62.0354 82.5823 62.0354H81.4789V63.7368H80.8843ZM82.4304 59.4982H81.4789V61.5068H82.4304C83.1109 61.5068 83.5041 61.1335 83.5041 60.5058V60.4992C83.5041 59.8715 83.1109 59.4982 82.4304 59.4982ZM84.7958 63.7368V58.9696H85.3905V63.7368H84.7958Z" fill="#2C2C2E"/>
<path d="M34.187 79.6899C32.8623 79.6899 32.0099 78.7252 32.0099 77.2254V77.2221C32.0099 75.7222 32.859 74.7641 34.187 74.7641C35.1781 74.7641 35.9479 75.3654 36.1296 76.2673L36.1362 76.3003H35.5349L35.5118 76.2277C35.3268 75.6495 34.8577 75.3125 34.187 75.3125C33.2356 75.3125 32.6211 76.0625 32.6211 77.2221V77.2254C32.6211 78.3849 33.2389 79.1415 34.187 79.1415C34.8544 79.1415 35.3169 78.8111 35.525 78.1834L35.5349 78.1537H36.1362L36.1296 78.1867C35.9479 79.0985 35.1847 79.6899 34.187 79.6899ZM36.7804 79.6106V74.8434H37.3552V79.6106H36.7804ZM38.4554 75.5934C38.2571 75.5934 38.0953 75.4315 38.0953 75.2333C38.0953 75.0317 38.2571 74.8732 38.4554 74.8732C38.6569 74.8732 38.8155 75.0317 38.8155 75.2333C38.8155 75.4315 38.6569 75.5934 38.4554 75.5934ZM38.1679 79.6106V76.1748H38.7428V79.6106H38.1679ZM40.9397 79.6767C39.9519 79.6767 39.3573 78.9862 39.3573 77.9059V77.9026C39.3573 76.8388 39.9651 76.1087 40.9034 76.1087C41.8416 76.1087 42.4131 76.8058 42.4131 77.8365V78.048H39.9387C39.9519 78.7549 40.3417 79.1679 40.9529 79.1679C41.389 79.1679 41.6962 78.9499 41.7954 78.6558L41.8053 78.6261H42.3702L42.3636 78.6591C42.2513 79.2274 41.6896 79.6767 40.9397 79.6767ZM40.9001 76.6175C40.4012 76.6175 40.0114 76.9578 39.9486 77.5987H41.8284C41.7722 76.9313 41.4022 76.6175 40.9001 76.6175ZM42.9946 79.6106V76.1748H43.5694V76.6637H43.5826C43.7676 76.3433 44.1178 76.1087 44.6398 76.1087C45.393 76.1087 45.8291 76.5977 45.8291 77.3806V79.6106H45.2543V77.483C45.2543 76.9247 44.9933 76.6175 44.4647 76.6175C43.9229 76.6175 43.5694 77.004 43.5694 77.5888V79.6106H42.9946ZM47.6792 79.6767C47.0482 79.6767 46.7376 79.3926 46.7376 78.7351V76.6505H46.2355V76.1748H46.7376V75.2465H47.3323V76.1748H47.9864V76.6505H47.3323V78.7318C47.3323 79.0985 47.4942 79.2009 47.8014 79.2009C47.8708 79.2009 47.9369 79.191 47.9864 79.1877V79.6535C47.9137 79.6635 47.7915 79.6767 47.6792 79.6767ZM50.0809 79.6106V74.8434H50.6756V79.6106H50.0809ZM51.6006 79.6106V74.8434H53.2029C54.6135 74.8434 55.4527 75.7222 55.4527 77.2187V77.2254C55.4527 78.7285 54.6201 79.6106 53.2029 79.6106H51.6006ZM52.1953 79.0754H53.1632C54.2435 79.0754 54.8448 78.4147 54.8448 77.232V77.2254C54.8448 76.036 54.2435 75.3786 53.1632 75.3786H52.1953V79.0754Z" fill="#2C2C2E"/>
<rect x="31.9741" y="84.7853" width="268.219" height="22.714" rx="3.62458" fill="white"/>
<rect x="31.9741" y="84.7853" width="268.219" height="22.714" rx="3.62458" stroke="#E5E5EA" stroke-width="0.483278"/>
<path d="M40.1851 98.1423V97.1512H37.7899V96.6127L39.8811 93.3752H40.7599V96.6293H41.4338V97.1512H40.7599V98.1423H40.1851ZM38.378 96.6293H40.1851V93.8839H40.1652L38.378 96.616V96.6293ZM43.2244 98.1423V94.0062H43.2112L41.9492 94.8849V94.287L43.2178 93.3752H43.7993V98.1423H43.2244ZM46.6503 98.2216C45.6394 98.2216 44.9192 97.6534 44.9192 96.8539V96.8473C44.9192 96.2593 45.3322 95.7703 45.9433 95.6283V95.615C45.4214 95.4532 45.091 95.0567 45.091 94.5546V94.548C45.091 93.8278 45.7484 93.2959 46.6503 93.2959C47.5522 93.2959 48.2096 93.8278 48.2096 94.548V94.5546C48.2096 95.0567 47.8793 95.4532 47.3573 95.615V95.6283C47.9685 95.7703 48.3814 96.2593 48.3814 96.8473V96.8539C48.3814 97.6534 47.6612 98.2216 46.6503 98.2216ZM46.6503 95.3937C47.2252 95.3937 47.6183 95.0666 47.6183 94.6041V94.5975C47.6183 94.135 47.2252 93.8079 46.6503 93.8079C46.0755 93.8079 45.6823 94.135 45.6823 94.5975V94.6041C45.6823 95.0666 46.0755 95.3937 46.6503 95.3937ZM46.6503 97.7029C47.3077 97.7029 47.7769 97.3329 47.7769 96.8176V96.811C47.7769 96.289 47.311 95.9157 46.6503 95.9157C45.9896 95.9157 45.5238 96.289 45.5238 96.811V96.8176C45.5238 97.3329 45.9929 97.7029 46.6503 97.7029ZM48.7614 98.1423L50.5354 93.3752H51.1235L52.8942 98.1423H52.2698L51.7875 96.7779H49.8681L49.3857 98.1423H48.7614ZM50.8228 94.0887L50.0498 96.2725H51.6091L50.836 94.0887H50.8228ZM54.9722 98.2216C53.9877 98.2216 53.3501 97.6732 53.2874 96.92L53.2841 96.8803H53.8556L53.8589 96.9134C53.9084 97.3825 54.3379 97.7063 54.9722 97.7063C55.5966 97.7063 56.0228 97.3561 56.0228 96.8506V96.844C56.0228 96.2593 55.6032 95.9322 54.9359 95.9322H54.3379V95.43H54.9095C55.4777 95.43 55.8741 95.0798 55.8741 94.6041V94.5975C55.8741 94.0987 55.5471 93.8112 54.9656 93.8112C54.404 93.8112 54.0043 94.1086 53.9547 94.5909L53.9514 94.6239H53.3799L53.3832 94.5909C53.4591 93.8145 54.0736 93.2959 54.9656 93.2959C55.8741 93.2959 56.4721 93.8013 56.4721 94.5248V94.5314C56.4721 95.1195 56.0558 95.5225 55.4612 95.6481V95.6613C56.1549 95.7208 56.6274 96.1535 56.6274 96.8308V96.8374C56.6274 97.6336 55.927 98.2216 54.9722 98.2216ZM58.7813 98.2084C57.8068 98.2084 57.189 97.5146 57.189 96.4211V96.4178C57.189 95.3342 57.82 94.6405 58.7747 94.6405C59.6304 94.6405 60.1358 95.2087 60.2085 95.7967L60.2118 95.8232H59.6502L59.6436 95.7967C59.5577 95.4532 59.2802 95.1492 58.7747 95.1492C58.1768 95.1492 57.777 95.6448 57.777 96.4244V96.4277C57.777 97.2272 58.1867 97.6996 58.7813 97.6996C59.2505 97.6996 59.5511 97.4354 59.6469 97.0521L59.6535 97.0257H60.2184L60.2151 97.0488C60.1226 97.7029 59.5577 98.2084 58.7813 98.2084ZM62.1709 98.2084C61.1963 98.2084 60.5785 97.5146 60.5785 96.4211V96.4178C60.5785 95.3342 61.2095 94.6405 62.1643 94.6405C63.0199 94.6405 63.5254 95.2087 63.5981 95.7967L63.6014 95.8232H63.0397L63.0331 95.7967C62.9472 95.4532 62.6697 95.1492 62.1643 95.1492C61.5663 95.1492 61.1666 95.6448 61.1666 96.4244V96.4277C61.1666 97.2272 61.5762 97.6996 62.1709 97.6996C62.64 97.6996 62.9406 97.4354 63.0364 97.0521L63.0431 97.0257H63.608L63.6047 97.0488C63.5122 97.7029 62.9472 98.2084 62.1709 98.2084ZM65.5505 98.2084C64.5627 98.2084 63.9681 97.5179 63.9681 96.4376V96.4343C63.9681 95.3706 64.5759 94.6405 65.5142 94.6405C66.4524 94.6405 67.024 95.3375 67.024 96.3683V96.5797H64.5495C64.5627 97.2867 64.9526 97.6996 65.5637 97.6996C65.9998 97.6996 66.3071 97.4816 66.4062 97.1876L66.4161 97.1578H66.981L66.9744 97.1909C66.8621 97.7591 66.3005 98.2084 65.5505 98.2084ZM65.5109 95.1492C65.012 95.1492 64.6222 95.4895 64.5594 96.1304H66.4392C66.383 95.4631 66.013 95.1492 65.5109 95.1492ZM67.6252 96.4773V95.9421H69.7396V96.4773H67.6252ZM71.5368 98.1423V94.0062H71.5235L70.2615 94.8849V94.287L71.5301 93.3752H72.1116V98.1423H71.5368ZM74.9626 98.2216C73.9517 98.2216 73.2315 97.6534 73.2315 96.8539V96.8473C73.2315 96.2593 73.6445 95.7703 74.2557 95.6283V95.615C73.7337 95.4532 73.4033 95.0567 73.4033 94.5546V94.548C73.4033 93.8278 74.0607 93.2959 74.9626 93.2959C75.8645 93.2959 76.522 93.8278 76.522 94.548V94.5546C76.522 95.0567 76.1916 95.4532 75.6696 95.615V95.6283C76.2808 95.7703 76.6938 96.2593 76.6938 96.8473V96.8539C76.6938 97.6534 75.9736 98.2216 74.9626 98.2216ZM74.9626 95.3937C75.5375 95.3937 75.9306 95.0666 75.9306 94.6041V94.5975C75.9306 94.135 75.5375 93.8079 74.9626 93.8079C74.3878 93.8079 73.9947 94.135 73.9947 94.5975V94.6041C73.9947 95.0666 74.3878 95.3937 74.9626 95.3937ZM74.9626 97.7029C75.6201 97.7029 76.0892 97.3329 76.0892 96.8176V96.811C76.0892 96.289 75.6234 95.9157 74.9626 95.9157C74.3019 95.9157 73.8361 96.289 73.8361 96.811V96.8176C73.8361 97.3329 74.3052 97.7029 74.9626 97.7029ZM77.6518 98.1423L79.8091 93.917V93.9037H77.2422V93.3752H80.3972V93.9269L78.2762 98.1423H77.6518ZM82.8815 98.1423V97.1512H80.4864V96.6127L82.5776 93.3752H83.4563V96.6293H84.1303V97.1512H83.4563V98.1423H82.8815ZM81.0744 96.6293H82.8815V93.8839H82.8617L81.0744 96.616V96.6293ZM84.7117 96.4773V95.9421H86.8261V96.4773H84.7117ZM89.872 98.1423V97.1512H87.4769V96.6127L89.5681 93.3752H90.4469V96.6293H91.1208V97.1512H90.4469V98.1423H89.872ZM88.0649 96.6293H89.872V93.8839H89.8522L88.0649 96.616V96.6293ZM93.962 98.1423V97.1512H91.5668V96.6127L93.658 93.3752H94.5368V96.6293H95.2107V97.1512H94.5368V98.1423H93.962ZM92.1549 96.6293H93.962V93.8839H93.9421L92.1549 96.616V96.6293ZM96.7767 98.2084C96.0928 98.2084 95.6336 97.7955 95.6336 97.1711V97.1645C95.6336 96.5797 96.0895 96.213 96.8791 96.1667L97.8636 96.1106V95.8232C97.8636 95.4036 97.5894 95.1492 97.1103 95.1492C96.6677 95.1492 96.3902 95.3607 96.3241 95.6679L96.3175 95.6976H95.7625L95.7658 95.6613C95.8153 95.0964 96.3076 94.6405 97.117 94.6405C97.9297 94.6405 98.4384 95.0798 98.4384 95.767V98.1423H97.8636V97.584H97.8504C97.6488 97.9606 97.2359 98.2084 96.7767 98.2084ZM96.2217 97.1711C96.2217 97.5014 96.4926 97.7096 96.9055 97.7096C97.4473 97.7096 97.8636 97.3362 97.8636 96.8374V96.5566L96.9452 96.6127C96.486 96.6392 96.2217 96.844 96.2217 97.1645V97.1711ZM99.1817 98.1423V97.7327L100.86 95.9817C101.504 95.3111 101.653 95.0534 101.653 94.657V94.6504C101.65 94.1647 101.283 93.8145 100.764 93.8145C100.17 93.8145 99.7268 94.2242 99.7268 94.7363V94.7528H99.152V94.733C99.152 93.907 99.8656 93.2959 100.754 93.2959C101.617 93.2959 102.248 93.874 102.248 94.6206V94.6272C102.248 95.1492 102.006 95.5424 101.131 96.4376L99.9977 97.6005V97.6137H102.327V98.1423H99.1817Z" fill="#2C2C2E"/>
<path d="M307.903 79.6106V75.3786H306.4V74.8434H310.001V75.3786H308.497V79.6106H307.903ZM310.338 75.7817L311.068 74.7906H311.616L312.346 75.7817H311.851L311.342 75.0945L310.833 75.7817H310.338ZM311.358 79.6767C310.371 79.6767 309.776 78.9862 309.776 77.9059V77.9026C309.776 76.8388 310.384 76.1087 311.322 76.1087C312.26 76.1087 312.832 76.8058 312.832 77.8365V78.048H310.357C310.371 78.7549 310.76 79.1679 311.372 79.1679C311.808 79.1679 312.115 78.9499 312.214 78.6558L312.224 78.6261H312.789L312.782 78.6591C312.67 79.2274 312.108 79.6767 311.358 79.6767ZM311.319 76.6175C310.82 76.6175 310.43 76.9578 310.367 77.5987H312.247C312.191 76.9313 311.821 76.6175 311.319 76.6175ZM313.413 79.6106V76.1748H313.988V76.6637H314.001C314.186 76.3433 314.536 76.1087 315.058 76.1087C315.812 76.1087 316.248 76.5977 316.248 77.3806V79.6106H315.673V77.483C315.673 76.9247 315.412 76.6175 314.883 76.6175C314.342 76.6175 313.988 77.004 313.988 77.5888V79.6106H313.413ZM319.793 79.6767C318.818 79.6767 318.2 78.9829 318.2 77.8894V77.8861C318.2 76.8025 318.831 76.1087 319.786 76.1087C320.642 76.1087 321.147 76.6769 321.22 77.265L321.223 77.2914H320.661L320.655 77.265C320.569 76.9214 320.291 76.6175 319.786 76.6175C319.188 76.6175 318.788 77.113 318.788 77.8927V77.896C318.788 78.6955 319.198 79.1679 319.793 79.1679C320.262 79.1679 320.562 78.9036 320.658 78.5204L320.665 78.494H321.23L321.226 78.5171C321.134 79.1712 320.569 79.6767 319.793 79.6767ZM322.888 75.7817V75.7717C323.1 75.6165 323.215 75.4777 323.215 75.3588C323.215 75.2101 323.03 75.1242 322.806 75.1242C322.7 75.1242 322.64 75.1341 322.597 75.1441V74.8038C322.677 74.7707 322.812 74.7443 322.967 74.7443C323.324 74.7443 323.655 74.9458 323.655 75.263C323.655 75.4579 323.549 75.6264 323.311 75.7817H322.888ZM322.931 79.6767C322.178 79.6767 321.742 79.1877 321.742 78.4048V76.1748H322.317V78.3023C322.317 78.8607 322.578 79.1679 323.106 79.1679C323.648 79.1679 324.001 78.7814 324.001 78.1966V76.1748C324.623 76.0823 324.741 75.8775 324.741 75.2399H325.25C325.25 75.927 325.108 76.2243 324.576 76.3961V79.6106H324.001V79.1217H323.988C323.803 79.4421 323.453 79.6767 322.931 79.6767ZM326.463 79.6767C325.779 79.6767 325.32 79.2637 325.32 78.6393V78.6327C325.32 78.048 325.775 77.6813 326.565 77.635L327.55 77.5788V77.2914C327.55 76.8719 327.275 76.6175 326.796 76.6175C326.354 76.6175 326.076 76.8289 326.01 77.1362L326.003 77.1659H325.448L325.452 77.1296C325.501 76.5646 325.994 76.1087 326.803 76.1087C327.616 76.1087 328.124 76.5481 328.124 77.2353V79.6106H327.55V79.0523H327.536C327.335 79.4289 326.922 79.6767 326.463 79.6767ZM325.908 78.6393C325.908 78.9697 326.179 79.1778 326.592 79.1778C327.133 79.1778 327.55 78.8045 327.55 78.3057V78.0248L326.631 78.081C326.172 78.1074 325.908 78.3123 325.908 78.6327V78.6393ZM330.272 79.6106V74.8434H330.847V76.7232H330.86C331.045 76.3367 331.418 76.1087 331.93 76.1087C332.66 76.1087 333.159 76.6736 333.159 77.5062V79.6106H332.584V77.6053C332.584 76.9842 332.267 76.6175 331.732 76.6175C331.2 76.6175 330.847 77.0205 330.847 77.6053V79.6106H330.272ZM335.075 75.7817L334.352 74.7906H334.953L335.518 75.7817H335.075ZM334.894 79.6767C334.21 79.6767 333.751 79.2637 333.751 78.6393V78.6327C333.751 78.048 334.206 77.6813 334.996 77.635L335.98 77.5788V77.2914C335.98 76.8719 335.706 76.6175 335.227 76.6175C334.785 76.6175 334.507 76.8289 334.441 77.1362L334.434 77.1659H333.879L333.883 77.1296C333.932 76.5646 334.424 76.1087 335.234 76.1087C336.047 76.1087 336.555 76.5481 336.555 77.2353V79.6106H335.98V79.0523H335.967C335.766 79.4289 335.353 79.6767 334.894 79.6767ZM334.339 78.6393C334.339 78.9697 334.609 79.1778 335.022 79.1778C335.564 79.1778 335.98 78.8045 335.98 78.3057V78.0248L335.062 78.081C334.603 78.1074 334.339 78.3123 334.339 78.6327V78.6393ZM337.285 79.6106V76.1748H337.86V76.6637H337.873C338.058 76.3433 338.409 76.1087 338.931 76.1087C339.684 76.1087 340.12 76.5977 340.12 77.3806V79.6106H339.545V77.483C339.545 76.9247 339.284 76.6175 338.756 76.6175C338.214 76.6175 337.86 77.004 337.86 77.5888V79.6106H337.285ZM342.307 80.8329C341.458 80.8329 340.923 80.4332 340.81 79.9244L340.804 79.8947H341.382L341.395 79.9244C341.504 80.1722 341.831 80.3242 342.3 80.3242C342.905 80.3242 343.249 79.9905 343.249 79.4586V79.0192H343.235C343.03 79.3992 342.634 79.6436 342.142 79.6436C341.276 79.6436 340.685 78.9466 340.685 77.8729V77.8696C340.685 76.8025 341.283 76.1087 342.155 76.1087C342.641 76.1087 343.024 76.373 343.235 76.7562H343.249V76.1748H343.823V79.5148C343.823 80.311 343.239 80.8329 342.307 80.8329ZM342.267 79.1349C342.852 79.1349 343.249 78.636 343.249 77.8729V77.8696C343.249 77.113 342.849 76.6175 342.267 76.6175C341.656 76.6175 341.273 77.1064 341.273 77.8696V77.8729C341.273 78.6525 341.656 79.1349 342.267 79.1349Z" fill="#2C2C2E"/>
<rect x="306.476" y="84.7853" width="268.219" height="22.714" rx="3.62458" fill="white"/>
<rect x="306.476" y="84.7853" width="268.219" height="22.714" rx="3.62458" stroke="#E5E5EA" stroke-width="0.483278"/>
<path d="M313.524 98.2084C312.893 98.2084 312.583 97.9243 312.583 97.2669V95.1823H312.08V94.7065H312.583V93.7782H313.177V94.7065H313.831V95.1823H313.177V97.2636C313.177 97.6303 313.339 97.7327 313.646 97.7327C313.716 97.7327 313.782 97.7228 313.831 97.7195V98.1853C313.759 98.1952 313.636 98.2084 313.524 98.2084ZM314.479 98.1423V93.3752H315.054V95.2549H315.067C315.252 94.8684 315.625 94.6405 316.137 94.6405C316.867 94.6405 317.366 95.2054 317.366 96.0379V98.1423H316.791V96.137C316.791 95.5159 316.474 95.1492 315.939 95.1492C315.407 95.1492 315.054 95.5523 315.054 96.137V98.1423H314.479ZM319.101 98.2084C318.417 98.2084 317.958 97.7955 317.958 97.1711V97.1645C317.958 96.5797 318.414 96.213 319.203 96.1667L320.188 96.1106V95.8232C320.188 95.4036 319.913 95.1492 319.434 95.1492C318.992 95.1492 318.714 95.3607 318.648 95.6679L318.641 95.6976H318.086L318.09 95.6613C318.139 95.0964 318.632 94.6405 319.441 94.6405C320.254 94.6405 320.762 95.0798 320.762 95.767V98.1423H320.188V97.584H320.174C319.973 97.9606 319.56 98.2084 319.101 98.2084ZM318.546 97.1711C318.546 97.5014 318.817 97.7096 319.23 97.7096C319.771 97.7096 320.188 97.3362 320.188 96.8374V96.5566L319.269 96.6127C318.81 96.6392 318.546 96.844 318.546 97.1645V97.1711ZM321.493 98.1423V94.7065H322.067V95.1955H322.081C322.266 94.875 322.616 94.6405 323.138 94.6405C323.891 94.6405 324.327 95.1294 324.327 95.9124V98.1423H323.752V96.0148C323.752 95.4565 323.491 95.1492 322.963 95.1492C322.421 95.1492 322.067 95.5357 322.067 96.1205V98.1423H321.493ZM325.09 98.1423V93.3752H325.665V95.2549H325.678C325.863 94.8684 326.237 94.6405 326.749 94.6405C327.479 94.6405 327.978 95.2054 327.978 96.0379V98.1423H327.403V96.137C327.403 95.5159 327.086 95.1492 326.55 95.1492C326.019 95.1492 325.665 95.5523 325.665 96.137V98.1423H325.09ZM328.708 99.2986V94.7065H329.283V95.288H329.296C329.511 94.8882 329.894 94.6405 330.386 94.6405C331.265 94.6405 331.846 95.3408 331.846 96.4244V96.4277C331.846 97.5113 331.258 98.2084 330.396 98.2084C329.91 98.2084 329.511 97.9639 329.296 97.5675H329.283V99.2986H328.708ZM330.274 97.6996C330.882 97.6996 331.258 97.2107 331.258 96.4277V96.4244C331.258 95.6349 330.882 95.1492 330.274 95.1492C329.692 95.1492 329.279 95.6547 329.279 96.4244V96.4277C329.279 97.1942 329.696 97.6996 330.274 97.6996ZM332.457 98.1423V93.3752H333.032V95.2549H333.045C333.23 94.8684 333.604 94.6405 334.116 94.6405C334.846 94.6405 335.345 95.2054 335.345 96.0379V98.1423H334.77V96.137C334.77 95.5159 334.453 95.1492 333.918 95.1492C333.386 95.1492 333.032 95.5523 333.032 96.137V98.1423H332.457ZM337.079 98.2084C336.395 98.2084 335.936 97.7955 335.936 97.1711V97.1645C335.936 96.5797 336.392 96.213 337.182 96.1667L338.166 96.1106V95.8232C338.166 95.4036 337.892 95.1492 337.413 95.1492C336.97 95.1492 336.693 95.3607 336.627 95.6679L336.62 95.6976H336.065L336.068 95.6613C336.118 95.0964 336.61 94.6405 337.419 94.6405C338.232 94.6405 338.741 95.0798 338.741 95.767V98.1423H338.166V97.584H338.153C337.951 97.9606 337.538 98.2084 337.079 98.2084ZM336.524 97.1711C336.524 97.5014 336.795 97.7096 337.208 97.7096C337.75 97.7096 338.166 97.3362 338.166 96.8374V96.5566L337.248 96.6127C336.788 96.6392 336.524 96.844 336.524 97.1645V97.1711ZM339.471 98.1423V94.7065H340.046V95.288H340.059C340.175 94.8915 340.472 94.6405 340.859 94.6405C340.958 94.6405 341.044 94.657 341.09 94.6636V95.2219C341.044 95.2054 340.921 95.1889 340.783 95.1889C340.337 95.1889 340.046 95.4994 340.046 96.0214V98.1423H339.471ZM341.559 98.1423V94.7065H342.134V95.2087H342.147C342.302 94.8684 342.646 94.6405 343.089 94.6405C343.558 94.6405 343.905 94.8816 344.053 95.3012H344.066C344.258 94.8882 344.661 94.6405 345.143 94.6405C345.824 94.6405 346.263 95.0865 346.263 95.7703V98.1423H345.689V95.9025C345.689 95.43 345.428 95.1492 344.975 95.1492C344.519 95.1492 344.199 95.4895 344.199 95.9586V98.1423H343.624V95.8397C343.624 95.4234 343.346 95.1492 342.92 95.1492C342.464 95.1492 342.134 95.5093 342.134 95.9884V98.1423H341.559ZM348.001 98.2084C347.317 98.2084 346.858 97.7955 346.858 97.1711V97.1645C346.858 96.5797 347.314 96.213 348.103 96.1667L349.088 96.1106V95.8232C349.088 95.4036 348.814 95.1492 348.335 95.1492C347.892 95.1492 347.615 95.3607 347.548 95.6679L347.542 95.6976H346.987L346.99 95.6613C347.04 95.0964 347.532 94.6405 348.341 94.6405C349.154 94.6405 349.663 95.0798 349.663 95.767V98.1423H349.088V97.584H349.075C348.873 97.9606 348.46 98.2084 348.001 98.2084ZM347.446 97.1711C347.446 97.5014 347.717 97.7096 348.13 97.7096C348.672 97.7096 349.088 97.3362 349.088 96.8374V96.5566L348.17 96.6127C347.71 96.6392 347.446 96.844 347.446 97.1645V97.1711ZM351.817 98.2084C350.842 98.2084 350.224 97.5146 350.224 96.4211V96.4178C350.224 95.3342 350.855 94.6405 351.81 94.6405C352.666 94.6405 353.171 95.2087 353.244 95.7967L353.247 95.8232H352.686L352.679 95.7967C352.593 95.4532 352.316 95.1492 351.81 95.1492C351.212 95.1492 350.812 95.6448 350.812 96.4244V96.4277C350.812 97.2272 351.222 97.6996 351.817 97.6996C352.286 97.6996 352.587 97.4354 352.682 97.0521L352.689 97.0257H353.254L353.251 97.0488C353.158 97.7029 352.593 98.2084 351.817 98.2084ZM354.113 99.2986C354.001 99.2986 353.878 99.2854 353.806 99.2722V98.8031C353.855 98.813 353.921 98.8229 353.991 98.8229C354.354 98.8229 354.556 98.7304 354.694 98.3406L354.764 98.1456L353.488 94.7065H354.103L355.051 97.5675H355.064L356.016 94.7065H356.62L355.279 98.3571C355.035 99.0145 354.734 99.2986 354.113 99.2986Z" fill="#2C2C2E"/>
<path d="M35.8531 120.62C34.5283 120.62 33.6759 119.655 33.6759 118.155V118.152C33.6759 116.652 34.525 115.694 35.8531 115.694C36.8442 115.694 37.6139 116.295 37.7956 117.197L37.8022 117.23H37.2009L37.1778 117.157C36.9928 116.579 36.5237 116.242 35.8531 116.242C34.9016 116.242 34.2871 116.992 34.2871 118.152V118.155C34.2871 119.315 34.9049 120.071 35.8531 120.071C36.5204 120.071 36.9829 119.741 37.191 119.113L37.2009 119.083H37.8022L37.7956 119.116C37.6139 120.028 36.8508 120.62 35.8531 120.62ZM38.4464 120.54V115.773H39.0213V120.54H38.4464ZM40.1214 116.523C39.9232 116.523 39.7613 116.361 39.7613 116.163C39.7613 115.961 39.9232 115.803 40.1214 115.803C40.3229 115.803 40.4815 115.961 40.4815 116.163C40.4815 116.361 40.3229 116.523 40.1214 116.523ZM39.834 120.54V117.104H40.4088V120.54H39.834ZM42.6057 120.606C41.6179 120.606 41.0233 119.916 41.0233 118.836V118.832C41.0233 117.769 41.6311 117.038 42.5694 117.038C43.5076 117.038 44.0792 117.735 44.0792 118.766V118.978H41.6047C41.6179 119.685 42.0078 120.098 42.6189 120.098C43.055 120.098 43.3623 119.88 43.4614 119.586L43.4713 119.556H44.0362L44.0296 119.589C43.9173 120.157 43.3557 120.606 42.6057 120.606ZM42.5661 117.547C42.0672 117.547 41.6774 117.887 41.6146 118.528H43.4944C43.4382 117.861 43.0682 117.547 42.5661 117.547ZM44.6606 120.54V117.104H45.2354V117.593H45.2486C45.4337 117.273 45.7838 117.038 46.3058 117.038C47.0591 117.038 47.4951 117.527 47.4951 118.31V120.54H46.9203V118.413C46.9203 117.854 46.6593 117.547 46.1307 117.547C45.5889 117.547 45.2354 117.934 45.2354 118.518V120.54H44.6606ZM49.3452 120.606C48.7142 120.606 48.4036 120.322 48.4036 119.665V117.58H47.9015V117.104H48.4036V116.176H48.9983V117.104H49.6524V117.58H48.9983V119.662C48.9983 120.028 49.1602 120.131 49.4674 120.131C49.5368 120.131 49.6029 120.121 49.6524 120.117V120.583C49.5797 120.593 49.4575 120.606 49.3452 120.606ZM53.3063 120.62C52.2755 120.62 51.5785 120.114 51.519 119.298L51.5157 119.252H52.1103L52.1169 119.298C52.1863 119.777 52.6488 120.071 53.3393 120.071C54.0265 120.071 54.4592 119.761 54.4592 119.268V119.265C54.4592 118.846 54.185 118.611 53.5309 118.466L53.0023 118.35C52.0707 118.145 51.6346 117.726 51.6346 117.028V117.025C51.6379 116.242 52.3317 115.694 53.3129 115.694C54.2445 115.694 54.9251 116.232 54.9779 117.012L54.9812 117.062H54.3866L54.38 117.015C54.3073 116.53 53.9009 116.242 53.2964 116.242C52.6587 116.246 52.2425 116.549 52.2425 117.009V117.012C52.2425 117.402 52.5299 117.646 53.151 117.782L53.6796 117.897C54.6575 118.112 55.0671 118.509 55.0671 119.235V119.239C55.0671 120.084 54.3965 120.62 53.3063 120.62ZM57.0889 120.606C56.1012 120.606 55.5065 119.916 55.5065 118.836V118.832C55.5065 117.769 56.1144 117.038 57.0526 117.038C57.9908 117.038 58.5624 117.735 58.5624 118.766V118.978H56.0879C56.1012 119.685 56.491 120.098 57.1022 120.098C57.5382 120.098 57.8455 119.88 57.9446 119.586L57.9545 119.556H58.5194L58.5128 119.589C58.4005 120.157 57.8389 120.606 57.0889 120.606ZM57.0493 117.547C56.5505 117.547 56.1606 117.887 56.0979 118.528H57.9776C57.9215 117.861 57.5515 117.547 57.0493 117.547ZM60.5677 120.606C59.5931 120.606 58.9753 119.913 58.9753 118.819V118.816C58.9753 117.732 59.6063 117.038 60.5611 117.038C61.4167 117.038 61.9222 117.607 61.9949 118.195L61.9982 118.221H61.4366L61.43 118.195C61.3441 117.851 61.0666 117.547 60.5611 117.547C59.9631 117.547 59.5634 118.043 59.5634 118.822V118.826C59.5634 119.625 59.973 120.098 60.5677 120.098C61.0368 120.098 61.3375 119.833 61.4333 119.45L61.4399 119.424H62.0048L62.0015 119.447C61.909 120.101 61.3441 120.606 60.5677 120.606ZM62.5334 120.54V117.104H63.1082V117.686H63.1214C63.2371 117.289 63.5344 117.038 63.9209 117.038C64.02 117.038 64.1059 117.055 64.1522 117.062V117.62C64.1059 117.603 63.9837 117.587 63.8449 117.587C63.3989 117.587 63.1082 117.897 63.1082 118.419V120.54H62.5334ZM65.8701 120.606C64.8823 120.606 64.2876 119.916 64.2876 118.836V118.832C64.2876 117.769 64.8955 117.038 65.8337 117.038C66.772 117.038 67.3435 117.735 67.3435 118.766V118.978H64.8691C64.8823 119.685 65.2721 120.098 65.8833 120.098C66.3194 120.098 66.6266 119.88 66.7257 119.586L66.7356 119.556H67.3005L67.2939 119.589C67.1816 120.157 66.62 120.606 65.8701 120.606ZM65.8304 117.547C65.3316 117.547 64.9417 117.887 64.879 118.528H66.7587C66.7026 117.861 66.3326 117.547 65.8304 117.547ZM69.0416 120.606C68.4106 120.606 68.1 120.322 68.1 119.665V117.58H67.5979V117.104H68.1V116.176H68.6947V117.104H69.3488V117.58H68.6947V119.662C68.6947 120.028 68.8566 120.131 69.1638 120.131C69.2332 120.131 69.2993 120.121 69.3488 120.117V120.583C69.2761 120.593 69.1539 120.606 69.0416 120.606Z" fill="#2C2C2E"/>
<rect x="33.6401" y="125.715" width="542.721" height="22.714" rx="3.62458" fill="white"/>
<rect x="33.6401" y="125.715" width="542.721" height="22.714" rx="3.62458" stroke="#E5E5EA" stroke-width="0.483278"/>
<path d="M40.3512 136.439L40.3843 135.679L39.7566 136.079L39.5517 135.768L40.2521 135.398L39.5517 135.032L39.7566 134.721L40.3843 135.121L40.3512 134.358H40.7543L40.7212 135.121L41.3489 134.721L41.5537 135.032L40.86 135.395L41.5537 135.762L41.3489 136.072L40.7212 135.673L40.7543 136.439H40.3512ZM43.0602 136.439L43.0933 135.679L42.4656 136.079L42.2607 135.768L42.9611 135.398L42.2607 135.032L42.4656 134.721L43.0933 135.121L43.0602 134.358H43.4633L43.4302 135.121L44.0579 134.721L44.2627 135.032L43.569 135.395L44.2627 135.762L44.0579 136.072L43.4302 135.673L43.4633 136.439H43.0602ZM45.7692 136.439L45.8022 135.679L45.1746 136.079L44.9697 135.768L45.6701 135.398L44.9697 135.032L45.1746 134.721L45.8022 135.121L45.7692 134.358H46.1723L46.1392 135.121L46.7669 134.721L46.9717 135.032L46.278 135.395L46.9717 135.762L46.7669 136.072L46.1392 135.673L46.1723 136.439H45.7692ZM48.4782 136.439L48.5112 135.679L47.8836 136.079L47.6787 135.768L48.3791 135.398L47.6787 135.032L47.8836 134.721L48.5112 135.121L48.4782 134.358H48.8813L48.8482 135.121L49.4759 134.721L49.6807 135.032L48.987 135.395L49.6807 135.762L49.4759 136.072L48.8482 135.673L48.8813 136.439H48.4782ZM51.1872 136.439L51.2202 135.679L50.5925 136.079L50.3877 135.768L51.0881 135.398L50.3877 135.032L50.5925 134.721L51.2202 135.121L51.1872 134.358H51.5903L51.5572 135.121L52.1849 134.721L52.3897 135.032L51.696 135.395L52.3897 135.762L52.1849 136.072L51.5572 135.673L51.5903 136.439H51.1872ZM53.8962 136.439L53.9292 135.679L53.3015 136.079L53.0967 135.768L53.7971 135.398L53.0967 135.032L53.3015 134.721L53.9292 135.121L53.8962 134.358H54.2993L54.2662 135.121L54.8939 134.721L55.0987 135.032L54.405 135.395L55.0987 135.762L54.8939 136.072L54.2662 135.673L54.2993 136.439H53.8962ZM56.6052 136.439L56.6382 135.679L56.0105 136.079L55.8057 135.768L56.5061 135.398L55.8057 135.032L56.0105 134.721L56.6382 135.121L56.6052 134.358H57.0082L56.9752 135.121L57.6029 134.721L57.8077 135.032L57.114 135.395L57.8077 135.762L57.6029 136.072L56.9752 135.673L57.0082 136.439H56.6052ZM59.3142 136.439L59.3472 135.679L58.7195 136.079L58.5147 135.768L59.2151 135.398L58.5147 135.032L58.7195 134.721L59.3472 135.121L59.3142 134.358H59.7172L59.6842 135.121L60.3119 134.721L60.5167 135.032L59.823 135.395L60.5167 135.762L60.3119 136.072L59.6842 135.673L59.7172 136.439H59.3142ZM62.0232 136.439L62.0562 135.679L61.4285 136.079L61.2237 135.768L61.9241 135.398L61.2237 135.032L61.4285 134.721L62.0562 135.121L62.0232 134.358H62.4262L62.3932 135.121L63.0209 134.721L63.2257 135.032L62.532 135.395L63.2257 135.762L63.0209 136.072L62.3932 135.673L62.4262 136.439H62.0232ZM64.7322 136.439L64.7652 135.679L64.1375 136.079L63.9327 135.768L64.6331 135.398L63.9327 135.032L64.1375 134.721L64.7652 135.121L64.7322 134.358H65.1352L65.1022 135.121L65.7299 134.721L65.9347 135.032L65.241 135.395L65.9347 135.762L65.7299 136.072L65.1022 135.673L65.1352 136.439H64.7322ZM67.4412 136.439L67.4742 135.679L66.8465 136.079L66.6417 135.768L67.3421 135.398L66.6417 135.032L66.8465 134.721L67.4742 135.121L67.4412 134.358H67.8442L67.8112 135.121L68.4389 134.721L68.6437 135.032L67.95 135.395L68.6437 135.762L68.4389 136.072L67.8112 135.673L67.8442 136.439H67.4412Z" fill="#2C2C2E"/>
<rect x="279.468" y="154.47" width="51.0635" height="19.3311" rx="3.86622" fill="#015AA2"/>
<path d="M287.68 167.135V161.687H288.654V164.243H288.68L290.791 161.687H291.905L289.892 164.092L292.071 167.135H290.885L289.19 164.742L288.654 165.38V167.135H287.68ZM294.646 161.385L295.254 160.279H296.08L295.216 161.385H294.646ZM292.679 162.699L293.566 161.54H294.381L295.272 162.699H294.555L293.97 161.94L293.396 162.699H292.679ZM293.996 167.215C292.796 167.215 292.071 166.418 292.071 165.146V165.142C292.071 163.881 292.807 163.05 293.951 163.05C295.095 163.05 295.805 163.854 295.805 165.063V165.365H293.003C293.018 166.067 293.404 166.482 294.015 166.482C294.483 166.482 294.789 166.233 294.88 165.965L294.887 165.939H295.767L295.756 165.98C295.631 166.596 295.042 167.215 293.996 167.215ZM293.962 163.787C293.464 163.787 293.09 164.123 293.015 164.738H294.891C294.823 164.104 294.461 163.787 293.962 163.787ZM297.9 167.215C297.062 167.215 296.666 166.875 296.666 166.052V163.858H296.099V163.133H296.666V162.118H297.621V163.133H298.365V163.858H297.621V165.973C297.621 166.365 297.795 166.49 298.138 166.49C298.229 166.49 298.3 166.479 298.365 166.475V167.181C298.255 167.196 298.089 167.215 297.9 167.215ZM300.558 167.135V163.133H301.498V163.76H301.517C301.725 163.33 302.133 163.05 302.741 163.05C303.62 163.05 304.122 163.617 304.122 164.545V167.135H303.182V164.734C303.182 164.164 302.918 163.843 302.382 163.843C301.842 163.843 301.498 164.236 301.498 164.814V167.135H300.558ZM307.32 161.385L307.928 160.279H308.755L307.891 161.385H307.32ZM305.353 162.699L306.241 161.54H307.052L307.947 162.699H307.23L306.645 161.94L306.071 162.699H305.353ZM306.648 167.215C305.47 167.215 304.711 166.429 304.711 165.134V165.127C304.711 163.843 305.482 163.05 306.645 163.05C307.811 163.05 308.585 163.836 308.585 165.127V165.134C308.585 166.433 307.823 167.215 306.648 167.215ZM306.652 166.456C307.245 166.456 307.626 165.973 307.626 165.134V165.127C307.626 164.292 307.241 163.813 306.645 163.813C306.059 163.813 305.67 164.296 305.67 165.127V165.134C305.67 165.976 306.052 166.456 306.652 166.456ZM309.688 162.559C309.393 162.559 309.163 162.325 309.163 162.046C309.163 161.759 309.393 161.529 309.688 161.529C309.982 161.529 310.209 161.759 310.209 162.046C310.209 162.325 309.982 162.559 309.688 162.559ZM309.216 167.135V163.133H310.156V167.135H309.216Z" fill="white"/>
<path d="M315.55 160.753C315.283 160.753 315.066 160.969 315.066 161.236C315.066 161.503 315.283 161.719 315.55 161.719C318.219 161.719 320.382 163.883 320.382 166.552C320.382 166.819 320.599 167.035 320.866 167.035C321.133 167.035 321.349 166.819 321.349 166.552C321.349 163.349 318.752 160.753 315.55 160.753Z" fill="white"/>
<path d="M315.066 163.652C315.066 163.385 315.283 163.169 315.55 163.169C317.418 163.169 318.933 164.684 318.933 166.552C318.933 166.819 318.716 167.035 318.449 167.035C318.182 167.035 317.966 166.819 317.966 166.552C317.966 165.217 316.884 164.136 315.55 164.136C315.283 164.136 315.066 163.919 315.066 163.652Z" fill="white"/>
<path d="M314.583 166.552C314.583 166.018 315.016 165.585 315.55 165.585C316.083 165.585 316.516 166.018 316.516 166.552C316.516 167.086 316.083 167.519 315.55 167.519C315.016 167.519 314.583 167.086 314.583 166.552Z" fill="white"/>
<rect x="31.7324" y="179.601" width="546.535" height="32.5652" rx="3.86622" fill="#F4FFE7"/>
<g clip-path="url(#clip1_7053_23481)">
<path d="M51.064 192.166C51.064 192.734 50.707 193.207 50.3618 193.664C50.1547 193.939 49.9588 194.198 49.8483 194.465C49.731 194.747 49.68 195.096 49.631 195.433C49.5495 195.99 49.4654 196.567 49.0821 196.95C48.6992 197.333 48.1225 197.417 47.565 197.499C47.2281 197.548 46.8799 197.599 46.597 197.716C46.3304 197.826 46.0712 198.022 45.7967 198.23C45.3395 198.575 44.8667 198.932 44.2981 198.932C43.7296 198.932 43.2567 198.575 42.7995 198.23C42.525 198.022 42.2656 197.826 41.9993 197.716C41.7164 197.599 41.3681 197.548 41.0312 197.499C40.4734 197.417 39.8969 197.333 39.5138 196.95C39.1309 196.567 39.0466 195.99 38.9653 195.433C38.9161 195.096 38.8652 194.747 38.7479 194.465C38.6374 194.198 38.4417 193.939 38.2343 193.664C37.8894 193.207 37.5322 192.734 37.5322 192.166C37.5322 191.597 37.8894 191.124 38.2345 190.667C38.4418 190.393 38.6376 190.133 38.7481 189.867C38.8654 189.584 38.9163 189.236 38.9654 188.899C39.0468 188.341 39.131 187.764 39.514 187.381C39.8969 186.998 40.4736 186.914 41.0314 186.833C41.3682 186.784 41.7165 186.733 41.9994 186.615C42.2658 186.505 42.5252 186.309 42.7997 186.102C43.2569 185.757 43.7294 185.4 44.2983 185.4C44.8671 185.4 45.3397 185.757 45.7968 186.102C46.0713 186.309 46.3306 186.505 46.5971 186.615C46.88 186.733 47.2283 186.784 47.5651 186.833C48.1227 186.914 48.6993 186.998 49.0823 187.381C49.4654 187.764 49.5495 188.341 49.6311 188.899C49.6801 189.236 49.7312 189.584 49.8485 189.867C49.9589 190.133 50.1547 190.393 50.3619 190.667C50.7072 191.124 51.0641 191.597 51.0641 192.166H51.064Z" fill="#37AD00"/>
<path d="M47.6621 191.15L43.8812 194.931C43.724 195.088 43.4692 195.088 43.3121 194.931L40.9333 192.552C40.7761 192.395 40.7761 192.14 40.9333 191.983L41.5124 191.404C41.6696 191.247 41.9244 191.247 42.0816 191.404L43.5967 192.919L46.514 190.002C46.6711 189.844 46.9259 189.844 47.0831 190.002L47.6622 190.581C47.8194 190.738 47.8194 190.993 47.6622 191.15H47.6621Z" fill="white"/>
</g>
<path d="M55.3493 192.4V187.633H56.2016V189.869H56.2247L58.0715 187.633H59.046L57.2852 189.737L59.1914 192.4H58.1541L56.6707 190.305L56.2016 190.864V192.4H55.3493ZM61.4445 187.368L61.9764 186.4H62.6999L61.9433 187.368H61.4445ZM59.7233 188.518L60.4997 187.504H61.2132L61.9929 188.518H61.3652L60.8531 187.854L60.351 188.518H59.7233ZM60.8763 192.469C59.8257 192.469 59.1914 191.772 59.1914 190.659V190.656C59.1914 189.552 59.8356 188.825 60.8366 188.825C61.8376 188.825 62.4587 189.529 62.4587 190.586V190.85H60.0074C60.0206 191.465 60.3576 191.828 60.8928 191.828C61.3024 191.828 61.57 191.61 61.6493 191.376L61.6559 191.353H62.4257L62.4158 191.389C62.3068 191.927 61.7914 192.469 60.8763 192.469ZM60.8465 189.47C60.4105 189.47 60.0834 189.764 60.0173 190.302H61.6592C61.5998 189.747 61.2826 189.47 60.8465 189.47ZM64.2922 192.469C63.5588 192.469 63.212 192.172 63.212 191.452V189.532H62.7164V188.898H63.212V188.009H64.0478V188.898H64.6986V189.532H64.0478V191.382C64.0478 191.726 64.1997 191.835 64.5004 191.835C64.5797 191.835 64.6424 191.825 64.6986 191.822V192.44C64.6028 192.453 64.4574 192.469 64.2922 192.469ZM66.618 192.4V188.898H67.4406V189.446H67.4571C67.6389 189.07 67.9956 188.825 68.5275 188.825C69.2973 188.825 69.7367 189.321 69.7367 190.134V192.4H68.9141V190.299C68.9141 189.8 68.6828 189.519 68.2137 189.519C67.7413 189.519 67.4406 189.863 67.4406 190.368V192.4H66.618ZM72.5349 187.368L73.0668 186.4H73.7903L73.0337 187.368H72.5349ZM70.8137 188.518L71.59 187.504H72.3003L73.0833 188.518H72.4556L71.9435 187.854L71.4414 188.518H70.8137ZM71.9468 192.469C70.9161 192.469 70.252 191.782 70.252 190.649V190.642C70.252 189.519 70.926 188.825 71.9435 188.825C72.9643 188.825 73.6416 189.513 73.6416 190.642V190.649C73.6416 191.785 72.9743 192.469 71.9468 192.469ZM71.9501 191.805C72.4688 191.805 72.8025 191.382 72.8025 190.649V190.642C72.8025 189.912 72.4655 189.493 71.9435 189.493C71.4314 189.493 71.0912 189.916 71.0912 190.642V190.649C71.0912 191.386 71.4248 191.805 71.9501 191.805ZM74.6063 188.396C74.3486 188.396 74.1471 188.191 74.1471 187.947C74.1471 187.695 74.3486 187.494 74.6063 187.494C74.8639 187.494 75.0622 187.695 75.0622 187.947C75.0622 188.191 74.8639 188.396 74.6063 188.396ZM74.1933 192.4V188.898H75.0159V192.4H74.1933ZM78.3724 192.469C77.639 192.469 77.2921 192.172 77.2921 191.452V189.532H76.7966V188.898H77.2921V188.009H78.128V188.898H78.7788V189.532H78.128V191.382C78.128 191.726 78.2799 191.835 78.5806 191.835C78.6598 191.835 78.7226 191.825 78.7788 191.822V192.44C78.683 192.453 78.5376 192.469 78.3724 192.469ZM79.3668 192.4V187.633H80.1894V189.486H80.2093C80.391 189.067 80.7643 188.825 81.2896 188.825C82.0428 188.825 82.5251 189.374 82.5251 190.219V192.4H81.7025V190.381C81.7025 189.843 81.4316 189.519 80.9592 189.519C80.4934 189.519 80.1894 189.873 80.1894 190.381V192.4H79.3668ZM84.4644 188.502L83.6847 187.425H84.4478L85.0392 188.502H84.4644ZM84.2232 192.459C83.5228 192.459 83.0504 192.027 83.0504 191.402V191.396C83.0504 190.775 83.5327 190.401 84.3818 190.348L85.2969 190.292V190.051C85.2969 189.698 85.0656 189.483 84.6494 189.483C84.2595 189.483 84.0217 189.664 83.9688 189.922L83.9622 189.952H83.1991L83.2024 189.912C83.2519 189.291 83.7904 188.825 84.6791 188.825C85.5546 188.825 86.1195 189.288 86.1195 189.992V192.4H85.2969V191.861H85.2771C85.0755 192.228 84.6857 192.459 84.2232 192.459ZM83.8697 191.369C83.8697 191.657 84.1076 191.832 84.4677 191.832C84.9401 191.832 85.2969 191.518 85.2969 191.102V190.837L84.4974 190.887C84.0911 190.913 83.8697 191.088 83.8697 191.366V191.369ZM86.7835 192.4V188.898H87.6061V189.446H87.6227C87.8044 189.07 88.1612 188.825 88.693 188.825C89.4628 188.825 89.9022 189.321 89.9022 190.134V192.4H89.0796V190.299C89.0796 189.8 88.8483 189.519 88.3792 189.519C87.9068 189.519 87.6061 189.863 87.6061 190.368V192.4H86.7835ZM90.586 192.4V187.633H91.4086V189.486H91.4285C91.6102 189.067 91.9835 188.825 92.5088 188.825C93.262 188.825 93.7443 189.374 93.7443 190.219V192.4H92.9217V190.381C92.9217 189.843 92.6508 189.519 92.1784 189.519C91.7126 189.519 91.4086 189.873 91.4086 190.381V192.4H90.586ZM97.309 192.469C96.2683 192.469 95.6175 191.769 95.6175 190.646V190.642C95.6175 189.526 96.2782 188.825 97.2991 188.825C98.2208 188.825 98.7956 189.41 98.8452 190.11L98.8485 190.137H98.0721L98.0655 190.107C97.9961 189.767 97.7451 189.493 97.309 189.493C96.7903 189.493 96.4566 189.932 96.4566 190.649V190.652C96.4566 191.382 96.7936 191.805 97.3123 191.805C97.7285 191.805 97.9928 191.557 98.0688 191.191L98.0754 191.161H98.8518L98.8485 191.184C98.7857 191.914 98.1944 192.469 97.309 192.469ZM99.7735 188.502L100.54 187.425H101.244L102.017 188.502H101.392L100.89 187.811L100.398 188.502H99.7735ZM100.893 192.469C99.8627 192.469 99.1987 191.782 99.1987 190.649V190.642C99.1987 189.519 99.8726 188.825 100.89 188.825C101.911 188.825 102.588 189.513 102.588 190.642V190.649C102.588 191.785 101.921 192.469 100.893 192.469ZM100.897 191.805C101.415 191.805 101.749 191.382 101.749 190.649V190.642C101.749 189.912 101.412 189.493 100.89 189.493C100.378 189.493 100.038 189.916 100.038 190.642V190.649C100.038 191.386 100.371 191.805 100.897 191.805ZM103.117 192.4V188.898H103.939V189.446H103.956C104.138 189.07 104.494 188.825 105.026 188.825C105.796 188.825 106.235 189.321 106.235 190.134V192.4H105.413V190.299C105.413 189.8 105.182 189.519 104.712 189.519C104.24 189.519 103.939 189.863 103.939 190.368V192.4H103.117ZM108.475 193.626C107.547 193.626 106.962 193.203 106.863 192.654L106.857 192.625H107.666L107.676 192.651C107.765 192.853 108.046 193.004 108.475 193.004C109.011 193.004 109.305 192.72 109.305 192.274V191.769H109.288C109.093 192.142 108.697 192.38 108.195 192.38C107.316 192.38 106.751 191.706 106.751 190.616V190.613C106.751 189.506 107.322 188.825 108.208 188.825C108.703 188.825 109.087 189.09 109.285 189.493H109.305V188.898H110.127V192.301C110.127 193.094 109.49 193.626 108.475 193.626ZM108.452 191.746C108.964 191.746 109.308 191.313 109.308 190.632V190.629C109.308 189.952 108.961 189.519 108.452 189.519C107.924 189.519 107.59 189.945 107.59 190.626V190.629C107.59 191.32 107.924 191.746 108.452 191.746Z" fill="#2D8F00"/>
<rect width="316" height="55" transform="translate(0 135)" fill="url(#paint0_linear_7053_23481)"/>
</g>
<defs>
<filter id="filter0_d_7053_23481" x="24.4316" y="50.1125" width="39.249" height="39.2493" filterUnits="userSpaceOnUse" color-interpolation-filters="sRGB">
<feFlood flood-opacity="0" result="BackgroundImageFix"/>
<feColorMatrix in="SourceAlpha" type="matrix" values="0 0 0 0 0 0 0 0 0 0 0 0 0 0 0 0 0 0 127 0" result="hardAlpha"/>
<feOffset dy="8"/>
<feGaussianBlur stdDeviation="8"/>
<feComposite in2="hardAlpha" operator="out"/>
<feColorMatrix type="matrix" values="0 0 0 0 0.00392157 0 0 0 0 0.0901961 0 0 0 0 0.443137 0 0 0 0.06 0"/>
<feBlend mode="normal" in2="BackgroundImageFix" result="effect1_dropShadow_7053_23481"/>
<feBlend mode="normal" in="SourceGraphic" in2="effect1_dropShadow_7053_23481" result="shape"/>
</filter>
<linearGradient id="paint0_linear_7053_23481" x1="158" y1="0" x2="158" y2="55" gradientUnits="userSpaceOnUse">
<stop stop-color="white" stop-opacity="0"/>
<stop offset="1" stop-color="white"/>
</linearGradient>
<clipPath id="clip0_7053_23481">
<rect width="316" height="190" fill="white"/>
</clipPath>
<clipPath id="clip1_7053_23481">
<rect width="13.5318" height="13.5318" fill="white" transform="translate(37.5322 185.4)"/>
</clipPath>
</defs>
</svg>
