<svg width="510" height="200" viewBox="0 0 510 200" fill="none" xmlns="http://www.w3.org/2000/svg">
<g clip-path="url(#clip0_7053_22329)">
<rect width="510" height="200" rx="8" fill="#F5F6F7"/>
<g clip-path="url(#clip1_7053_22329)">
<rect x="41" y="38" width="929.829" height="452" rx="6" fill="#F2F2F7"/>
<rect width="157.554" height="452" transform="translate(41 38)" fill="#015AA2"/>
<path d="M61.7975 67.2797C62.2287 67.0309 62.7599 67.0308 63.1911 67.2796L71.4684 72.0531C71.9006 72.3023 72.1668 72.7636 72.1663 73.2625L72.157 82.8084C72.1565 83.3061 71.8907 83.7659 71.4597 84.0147L63.1916 88.7883C62.7601 89.0375 62.2285 89.0375 61.797 88.7883L53.5291 84.0149C53.0979 83.7659 52.8322 83.306 52.8318 82.808L52.8257 73.2621C52.8254 72.7633 53.0914 72.3024 53.5234 72.0532L61.7975 67.2797Z" fill="white"/>
<path d="M57.1719 76.7395C57.1719 76.5608 57.3653 76.4489 57.5202 76.5381L58.6594 77.1935L59.7974 77.8483C60.0137 77.9728 60.147 78.2032 60.147 78.4527L60.147 85.2088C60.147 85.5657 59.7613 85.7895 59.4514 85.6123L57.5231 84.5098C57.3059 84.3857 57.1719 84.1547 57.1719 83.9045L57.1719 76.7395Z" fill="#015AA2"/>
<path d="M57.1719 71.7001C57.1719 71.5204 57.3671 71.4086 57.522 71.4997L59.8029 72.8396C60.0161 72.9649 60.147 73.1936 60.147 73.4409V76.4907C60.147 76.6701 59.9523 76.7819 59.7974 76.6915L57.5177 75.3609C57.3035 75.2359 57.1719 75.0066 57.1719 74.7587V71.7001Z" fill="#015AA2"/>
<path d="M65.4305 77.5644C65.2876 77.4811 65.1997 77.3282 65.1997 77.1628L65.1997 74.8342C65.1997 74.6552 65.3934 74.5434 65.5484 74.6329L68.675 76.4381C69.1406 76.7069 69.1396 77.3794 68.6731 77.6469L67.4594 78.3427C67.243 78.4668 66.9769 78.4658 66.7614 78.3402L65.4305 77.5644Z" fill="#015AA2"/>
<path d="M61.457 69.2089C61.457 69.0301 61.6505 68.9182 61.8054 69.0074L64.0752 70.3141C64.2913 70.4385 64.4246 70.669 64.4246 70.9184V82.9851L61.802 81.4495C61.5883 81.3244 61.457 81.0953 61.457 80.8477V69.2089Z" fill="#015AA2"/>
<path d="M69.376 76.8416C69.5914 76.9661 69.7245 77.1962 69.7246 77.4451V82.6609C69.7246 82.9113 69.5905 83.1432 69.373 83.2673L69.04 83.4568C69.0347 83.4601 69.0299 83.4644 69.0244 83.4675L67.4609 84.364C67.2436 84.4886 66.9756 84.4872 66.7598 84.3601L61.8799 81.4861L64.4248 79.9988L66.749 81.3435V75.323L69.376 76.8416Z" fill="#015AA2"/>
<path d="M79.6647 82.5344V73.9926H82.0808V82.5344H79.6647ZM83.7998 82.5344V73.9926H88.1683C89.2909 73.9926 90.1288 74.2001 90.682 74.615C91.2352 75.0217 91.5118 75.5586 91.5118 76.2257C91.5118 76.665 91.3938 77.0514 91.1579 77.3849C90.9301 77.7103 90.6047 77.9707 90.1817 78.1659C89.7668 78.353 89.2706 78.4466 88.693 78.4466L88.937 77.8608C89.539 77.8608 90.0637 77.9544 90.5112 78.1415C90.9586 78.3205 91.3043 78.5849 91.5484 78.9347C91.8006 79.2763 91.9267 79.6953 91.9267 80.1915C91.9267 80.9318 91.6257 81.5094 91.0237 81.9243C90.4298 82.331 89.5594 82.5344 88.4123 82.5344H83.7998ZM86.1915 80.7895H88.2171C88.632 80.7895 88.9452 80.7203 89.1567 80.582C89.3763 80.4356 89.4862 80.2159 89.4862 79.9231C89.4862 79.6302 89.3763 79.4146 89.1567 79.2763C88.9452 79.1299 88.632 79.0567 88.2171 79.0567H86.0206V77.3849H87.851C88.2578 77.3849 88.5628 77.3158 88.7662 77.1775C88.9696 77.0392 89.0713 76.8318 89.0713 76.5552C89.0713 76.2786 88.9696 76.0752 88.7662 75.945C88.5628 75.8067 88.2578 75.7376 87.851 75.7376H86.1915V80.7895ZM96.7292 82.5344V73.9926H100.634C101.415 73.9926 102.086 74.1187 102.647 74.3709C103.217 74.6231 103.656 74.9892 103.965 75.4691C104.274 75.941 104.429 76.5023 104.429 77.1531C104.429 77.7958 104.274 78.353 103.965 78.8248C103.656 79.2967 103.217 79.6628 102.647 79.9231C102.086 80.1753 101.415 80.3014 100.634 80.3014H98.0715L99.1453 79.2519V82.5344H96.7292ZM99.1453 79.5082L98.0715 78.3978H100.488C100.992 78.3978 101.366 78.2879 101.61 78.0683C101.862 77.8486 101.989 77.5436 101.989 77.1531C101.989 76.7545 101.862 76.4453 101.61 76.2257C101.366 76.0061 100.992 75.8962 100.488 75.8962H98.0715L99.1453 74.7858V79.5082ZM109.924 75.8108C110.436 75.8108 110.9 75.9166 111.315 76.1281C111.73 76.3315 112.055 76.6487 112.291 77.0799C112.535 77.511 112.657 78.0683 112.657 78.7516V82.5344H110.339V79.1299C110.339 78.6581 110.241 78.3164 110.046 78.1049C109.859 77.8853 109.594 77.7754 109.253 77.7754C109.009 77.7754 108.785 77.8324 108.582 77.9463C108.378 78.052 108.22 78.2188 108.106 78.4466C107.992 78.6743 107.935 78.9713 107.935 79.3374V82.5344H105.616V73.4801H107.935V77.7998L107.398 77.2507C107.65 76.7708 107.996 76.4128 108.435 76.1769C108.874 75.9328 109.371 75.8108 109.924 75.8108ZM118.152 82.5344V81.302L117.993 80.9969V78.7272C117.993 78.3612 117.879 78.0805 117.652 77.8853C117.432 77.6819 117.078 77.5802 116.59 77.5802C116.273 77.5802 115.951 77.6331 115.626 77.7388C115.301 77.8364 115.024 77.9747 114.796 78.1537L114.015 76.5796C114.39 76.3355 114.837 76.1484 115.358 76.0183C115.886 75.88 116.411 75.8108 116.932 75.8108C118.006 75.8108 118.835 76.0589 119.421 76.5552C120.015 77.0433 120.312 77.812 120.312 78.8615V82.5344H118.152ZM116.2 82.6442C115.671 82.6442 115.223 82.5548 114.857 82.3758C114.491 82.1968 114.211 81.9528 114.015 81.6436C113.828 81.3345 113.735 80.9888 113.735 80.6064C113.735 80.1997 113.836 79.8499 114.04 79.557C114.251 79.256 114.573 79.0282 115.004 78.8737C115.435 78.711 115.992 78.6296 116.675 78.6296H118.237V79.8377H116.993C116.619 79.8377 116.354 79.8987 116.2 80.0207C116.053 80.1427 115.98 80.3054 115.98 80.5088C115.98 80.7122 116.057 80.8749 116.212 80.9969C116.366 81.1189 116.578 81.1799 116.846 81.1799C117.098 81.1799 117.326 81.1189 117.53 80.9969C117.741 80.8667 117.896 80.6715 117.993 80.4112L118.311 81.2654C118.189 81.7209 117.949 82.0667 117.591 82.3026C117.241 82.5304 116.777 82.6442 116.2 82.6442ZM121.775 82.5344V75.9206H123.984V77.8486L123.654 77.2995C123.85 76.8033 124.167 76.4331 124.606 76.1891C125.046 75.9369 125.578 75.8108 126.205 75.8108V77.8975C126.099 77.8812 126.005 77.873 125.924 77.873C125.851 77.8649 125.77 77.8608 125.68 77.8608C125.208 77.8608 124.826 77.991 124.533 78.2513C124.24 78.5035 124.094 78.9184 124.094 79.496V82.5344H121.775ZM135.777 75.8108C136.289 75.8108 136.745 75.9166 137.143 76.1281C137.55 76.3315 137.867 76.6487 138.095 77.0799C138.331 77.511 138.449 78.0683 138.449 78.7516V82.5344H136.13V79.1299C136.13 78.6581 136.041 78.3164 135.862 78.1049C135.683 77.8853 135.439 77.7754 135.13 77.7754C134.91 77.7754 134.711 77.8283 134.532 77.9341C134.353 78.0398 134.215 78.2025 134.117 78.4222C134.019 78.6337 133.971 78.9103 133.971 79.2519V82.5344H131.652V79.1299C131.652 78.6581 131.563 78.3164 131.384 78.1049C131.213 77.8853 130.969 77.7754 130.651 77.7754C130.424 77.7754 130.22 77.8283 130.041 77.9341C129.871 78.0398 129.732 78.2025 129.626 78.4222C129.529 78.6337 129.48 78.9103 129.48 79.2519V82.5344H127.162V75.9206H129.37V77.7632L128.931 77.2385C129.175 76.7667 129.509 76.4128 129.932 76.1769C130.355 75.9328 130.826 75.8108 131.347 75.8108C131.941 75.8108 132.462 75.9654 132.909 76.2745C133.365 76.5755 133.67 77.0473 133.824 77.69L133.068 77.5314C133.303 76.9945 133.657 76.5755 134.129 76.2745C134.609 75.9654 135.158 75.8108 135.777 75.8108ZM143.951 82.5344V81.302L143.793 80.9969V78.7272C143.793 78.3612 143.679 78.0805 143.451 77.8853C143.231 77.6819 142.877 77.5802 142.389 77.5802C142.072 77.5802 141.751 77.6331 141.425 77.7388C141.1 77.8364 140.823 77.9747 140.596 78.1537L139.815 76.5796C140.189 76.3355 140.636 76.1484 141.157 76.0183C141.686 75.88 142.21 75.8108 142.731 75.8108C143.805 75.8108 144.635 76.0589 145.22 76.5552C145.814 77.0433 146.111 77.812 146.111 78.8615V82.5344H143.951ZM141.999 82.6442C141.47 82.6442 141.023 82.5548 140.657 82.3758C140.291 82.1968 140.01 81.9528 139.815 81.6436C139.628 81.3345 139.534 80.9888 139.534 80.6064C139.534 80.1997 139.636 79.8499 139.839 79.557C140.051 79.256 140.372 79.0282 140.803 78.8737C141.234 78.711 141.791 78.6296 142.475 78.6296H144.037V79.8377H142.792C142.418 79.8377 142.153 79.8987 141.999 80.0207C141.852 80.1427 141.779 80.3054 141.779 80.5088C141.779 80.7122 141.857 80.8749 142.011 80.9969C142.166 81.1189 142.377 81.1799 142.646 81.1799C142.898 81.1799 143.126 81.1189 143.329 80.9969C143.54 80.8667 143.695 80.6715 143.793 80.4112L144.11 81.2654C143.988 81.7209 143.748 82.0667 143.39 82.3026C143.04 82.5304 142.576 82.6442 141.999 82.6442ZM151.038 82.6442C150.306 82.6442 149.651 82.4978 149.074 82.205C148.504 81.9121 148.057 81.5094 147.731 80.9969C147.406 80.4763 147.243 79.8824 147.243 79.2153C147.243 78.5483 147.406 77.9585 147.731 77.446C148.057 76.9335 148.504 76.5348 149.074 76.2501C149.651 75.9572 150.306 75.8108 151.038 75.8108C151.787 75.8108 152.433 75.9694 152.978 76.2867C153.523 76.604 153.91 77.0514 154.138 77.629L152.344 78.5442C152.189 78.2351 151.998 78.0113 151.77 77.873C151.543 77.7266 151.294 77.6534 151.026 77.6534C150.757 77.6534 150.513 77.7144 150.294 77.8364C150.074 77.9585 149.899 78.1374 149.769 78.3734C149.647 78.6011 149.586 78.8818 149.586 79.2153C149.586 79.557 149.647 79.8458 149.769 80.0817C149.899 80.3176 150.074 80.4966 150.294 80.6186C150.513 80.7406 150.757 80.8017 151.026 80.8017C151.294 80.8017 151.543 80.7325 151.77 80.5942C151.998 80.4478 152.189 80.22 152.344 79.9109L154.138 80.8261C153.91 81.4037 153.523 81.8511 152.978 82.1683C152.433 82.4856 151.787 82.6442 151.038 82.6442ZM156.026 85.0115C155.676 85.0115 155.323 84.9546 154.965 84.8407C154.615 84.735 154.33 84.5926 154.11 84.4136L154.916 82.7907C155.054 82.9127 155.213 83.0063 155.392 83.0713C155.579 83.1446 155.762 83.1812 155.941 83.1812C156.193 83.1812 156.392 83.1242 156.539 83.0103C156.685 82.8964 156.811 82.7175 156.917 82.4734L157.222 81.7047L157.405 81.4728L159.65 75.9206H161.859L159.004 82.8029C158.776 83.3723 158.511 83.8157 158.21 84.133C157.918 84.4584 157.588 84.6861 157.222 84.8163C156.864 84.9465 156.466 85.0115 156.026 85.0115ZM156.929 82.8151L154.013 75.9206H156.392L158.54 81.2654L156.929 82.8151Z" fill="white"/>
<path d="M177.209 72.472C177.428 72.2374 177.796 72.2251 178.031 72.444C178.265 72.6631 178.278 73.0305 178.059 73.2651L174.813 76.7428L178.059 80.2206C178.278 80.4552 178.265 80.8226 178.031 81.0416C177.796 81.2606 177.428 81.2483 177.209 81.0136L173.594 77.1393C173.385 76.9161 173.385 76.5696 173.594 76.3463L177.209 72.472ZM181.342 72.472C181.561 72.2376 181.929 72.2251 182.163 72.444C182.398 72.6631 182.41 73.0305 182.191 73.2651L178.945 76.7428L182.191 80.2206C182.41 80.4552 182.398 80.8226 182.163 81.0416C181.929 81.2606 181.561 81.2481 181.342 81.0136L177.726 77.1393C177.518 76.9161 177.518 76.5696 177.726 76.3463L181.342 72.472Z" fill="#F5F6F7"/>
<path d="M59.1608 131.731C59.1608 131.33 58.8356 131.005 58.4344 131.005H51.9772C51.576 131.005 51.2508 131.33 51.2508 131.731V138.189C51.2508 138.59 51.576 138.915 51.9772 138.915H58.4344C58.8356 138.915 59.1608 138.59 59.1608 138.189V131.731ZM52.3001 137.381V136.171C52.3001 135.903 52.5169 135.686 52.7844 135.686C53.0518 135.686 53.2687 135.903 53.2687 136.171V137.381C53.2687 137.649 53.0518 137.866 52.7844 137.866C52.5169 137.866 52.3001 137.649 52.3001 137.381ZM53.9144 137.381V134.96C53.9144 134.692 54.1312 134.476 54.3987 134.476C54.6661 134.476 54.8829 134.692 54.8829 134.96V137.381C54.8829 137.649 54.6661 137.866 54.3987 137.866C54.1312 137.866 53.9144 137.649 53.9144 137.381ZM55.5287 137.381V133.749C55.5287 133.482 55.7455 133.265 56.0129 133.265C56.2804 133.265 56.4972 133.482 56.4972 133.749V137.381C56.4972 137.649 56.2804 137.866 56.0129 137.866C55.7455 137.866 55.5287 137.649 55.5287 137.381ZM57.1429 137.381V132.539C57.1429 132.271 57.3598 132.054 57.6272 132.054C57.8947 132.054 58.1115 132.271 58.1115 132.539V137.381C58.1115 137.649 57.8947 137.866 57.6272 137.866C57.3598 137.866 57.1429 137.649 57.1429 137.381ZM60.1294 138.189C60.1294 139.125 59.3705 139.884 58.4344 139.884H51.9772C51.0411 139.884 50.2822 139.125 50.2822 138.189V131.731C50.2822 130.795 51.0411 130.036 51.9772 130.036H58.4344C59.3705 130.036 60.1294 130.795 60.1294 131.731V138.189Z" fill="white"/>
<path d="M67.3897 138.503V132.133H69.7159C71.6139 132.133 72.7439 133.281 72.7439 135.294V135.303C72.7439 137.32 71.6228 138.503 69.7159 138.503H67.3897ZM68.5285 137.541H69.5967C70.8768 137.541 71.583 136.759 71.583 135.307V135.298C71.583 133.877 70.8636 133.096 69.5967 133.096H68.5285V137.541ZM74.9024 138.582C73.9666 138.582 73.3354 138.004 73.3354 137.17V137.161C73.3354 136.331 73.9799 135.832 75.1143 135.762L76.337 135.687V135.365C76.337 134.892 76.028 134.605 75.4718 134.605C74.951 134.605 74.6332 134.848 74.5625 135.192L74.5537 135.232H73.5341L73.5385 135.179C73.6047 134.349 74.3242 133.727 75.5116 133.727C76.6813 133.727 77.4361 134.345 77.4361 135.285V138.503H76.337V137.783H76.3105C76.0412 138.273 75.5204 138.582 74.9024 138.582ZM74.4301 137.126C74.4301 137.51 74.7479 137.744 75.2291 137.744C75.8603 137.744 76.337 137.324 76.337 136.768V136.415L75.2688 136.481C74.7259 136.517 74.4301 136.751 74.4301 137.121V137.126ZM80.1507 138.596C78.9236 138.596 78.2218 138.013 78.1247 137.143L78.1203 137.104H79.2017L79.2105 137.143C79.2944 137.545 79.599 137.783 80.1552 137.783C80.6893 137.783 81.0115 137.567 81.0115 137.223V137.218C81.0115 136.936 80.8482 136.777 80.3626 136.667L79.5857 136.495C78.6897 136.296 78.2395 135.859 78.2395 135.166V135.161C78.2395 134.305 78.9854 133.727 80.1154 133.727C81.2807 133.727 81.9605 134.367 82.0002 135.175L82.0046 135.223H80.9806L80.9762 135.188C80.9276 134.813 80.6275 134.539 80.1154 134.539C79.6299 134.539 79.3253 134.764 79.3253 135.109V135.113C79.3253 135.382 79.5063 135.559 79.9918 135.669L80.7731 135.841C81.7398 136.058 82.115 136.437 82.115 137.117V137.121C82.115 138.004 81.2984 138.596 80.1507 138.596ZM82.8477 138.503V132.133H83.9468V134.61H83.9733C84.2161 134.049 84.7149 133.727 85.4167 133.727C86.4231 133.727 87.0676 134.46 87.0676 135.59V138.503H85.9685V135.806C85.9685 135.086 85.6065 134.654 84.9753 134.654C84.3529 134.654 83.9468 135.126 83.9468 135.806V138.503H82.8477ZM90.5679 138.596C89.8926 138.596 89.3761 138.26 89.1113 137.708H89.0848V138.503H87.9857V132.133H89.0848V134.627H89.1113C89.3761 134.067 89.9102 133.727 90.5723 133.727C91.7465 133.727 92.5013 134.649 92.5013 136.159V136.163C92.5013 137.669 91.7509 138.596 90.5679 138.596ZM90.2369 137.669C90.9431 137.669 91.3801 137.095 91.3801 136.163V136.159C91.3801 135.228 90.9387 134.654 90.2369 134.654C89.5615 134.654 89.0848 135.245 89.0848 136.159V136.163C89.0848 137.082 89.5571 137.669 90.2369 137.669ZM95.2777 138.596C93.9005 138.596 93.0133 137.678 93.0133 136.163V136.155C93.0133 134.654 93.9138 133.727 95.2733 133.727C96.6373 133.727 97.5421 134.645 97.5421 136.155V136.163C97.5421 137.682 96.6505 138.596 95.2777 138.596ZM95.2821 137.708C95.9752 137.708 96.421 137.143 96.421 136.163V136.155C96.421 135.179 95.9707 134.619 95.2733 134.619C94.5891 134.619 94.1345 135.184 94.1345 136.155V136.163C94.1345 137.148 94.5803 137.708 95.2821 137.708ZM99.63 138.582C98.6942 138.582 98.063 138.004 98.063 137.17V137.161C98.063 136.331 98.7075 135.832 99.8419 135.762L101.065 135.687V135.365C101.065 134.892 100.756 134.605 100.199 134.605C99.6786 134.605 99.3607 134.848 99.2901 135.192L99.2813 135.232H98.2616L98.2661 135.179C98.3323 134.349 99.0518 133.727 100.239 133.727C101.409 133.727 102.164 134.345 102.164 135.285V138.503H101.065V137.783H101.038C100.769 138.273 100.248 138.582 99.63 138.582ZM99.1577 137.126C99.1577 137.51 99.4755 137.744 99.9566 137.744C100.588 137.744 101.065 137.324 101.065 136.768V136.415L99.9964 136.481C99.4534 136.517 99.1577 136.751 99.1577 137.121V137.126ZM103.051 138.503V133.824H104.15V134.632H104.172C104.318 134.067 104.706 133.727 105.245 133.727C105.382 133.727 105.51 133.749 105.593 133.771V134.764C105.501 134.729 105.333 134.702 105.148 134.702C104.525 134.702 104.15 135.095 104.15 135.788V138.503H103.051ZM107.721 138.596C106.538 138.596 105.788 137.669 105.788 136.163V136.159C105.788 134.649 106.542 133.727 107.717 133.727C108.379 133.727 108.913 134.067 109.178 134.627H109.204V132.133H110.303V138.503H109.204V137.708H109.178C108.913 138.26 108.396 138.596 107.721 138.596ZM108.052 137.669C108.732 137.669 109.204 137.082 109.204 136.163V136.159C109.204 135.245 108.727 134.654 108.052 134.654C107.35 134.654 106.909 135.228 106.909 136.159V136.163C106.909 137.095 107.346 137.669 108.052 137.669Z" fill="white"/>
<path d="M187.235 133.869C187.424 133.68 187.73 133.68 187.92 133.869C188.109 134.058 188.109 134.365 187.92 134.554L184.691 137.782C184.502 137.971 184.195 137.971 184.006 137.782L180.778 134.554C180.588 134.365 180.588 134.058 180.778 133.869C180.967 133.68 181.273 133.68 181.462 133.869L184.349 136.755L187.235 133.869Z" fill="white"/>
<path d="M59.1603 165.47H51.2503V171.04C51.2503 171.441 51.5756 171.766 51.9768 171.766H58.4339C58.8351 171.766 59.1603 171.441 59.1603 171.04V165.47ZM53.3211 173.38H57.0895L56.8738 172.735H53.5368L53.3211 173.38ZM53.1068 170.232V169.425C53.1068 169.158 53.3236 168.941 53.591 168.941C53.8585 168.941 54.0753 169.158 54.0753 169.425V170.232C54.0753 170.5 53.8585 170.717 53.591 170.717C53.3236 170.717 53.1068 170.5 53.1068 170.232ZM54.721 170.232V168.215C54.721 167.947 54.9379 167.73 55.2053 167.73C55.4728 167.73 55.6896 167.947 55.6896 168.215V170.232C55.6896 170.5 55.4728 170.717 55.2053 170.717C54.9379 170.717 54.721 170.5 54.721 170.232ZM56.3353 170.232V167.004C56.3353 166.736 56.5521 166.52 56.8196 166.52C57.0871 166.52 57.3039 166.736 57.3039 167.004V170.232C57.3039 170.5 57.0871 170.717 56.8196 170.717C56.5521 170.717 56.3353 170.5 56.3353 170.232ZM60.1289 171.04C60.1289 171.976 59.37 172.735 58.4339 172.735H57.8954L58.49 174.518C58.5746 174.772 58.4373 175.047 58.1836 175.131C57.9298 175.216 57.6552 175.079 57.5706 174.825L57.4124 174.349H52.9983L52.84 174.825C52.7554 175.079 52.4808 175.216 52.2271 175.131C51.9734 175.047 51.8361 174.772 51.9206 174.518L52.5153 172.735H51.9768C51.0406 172.735 50.2818 171.976 50.2818 171.04V165.47H49.9589C49.6914 165.47 49.4746 165.253 49.4746 164.986C49.4746 164.719 49.6914 164.502 49.9589 164.502H60.4518C60.7192 164.502 60.936 164.719 60.936 164.986C60.936 165.253 60.7192 165.47 60.4518 165.47H60.1289V171.04Z" fill="white"/>
<path d="M68.9479 173.372V167.96H67.041V167.002H71.9847V167.96H70.0823V173.372H68.9479ZM74.695 166.68V166.658C74.9157 166.49 75.0393 166.336 75.0393 166.19C75.0393 166.009 74.8274 165.903 74.5449 165.903C74.4125 165.903 74.3154 165.912 74.2624 165.929V165.395C74.386 165.347 74.5714 165.312 74.7877 165.312C75.3041 165.312 75.7146 165.576 75.7146 166.005C75.7146 166.269 75.5866 166.499 75.3129 166.68H74.695ZM72.3908 168.185L73.4281 166.83H74.3771L75.4233 168.185H74.5846L73.9004 167.298L73.2295 168.185H72.3908ZM73.9048 173.464C72.5277 173.464 71.6404 172.546 71.6404 171.032V171.023C71.6404 169.523 72.5409 168.596 73.9004 168.596C75.2644 168.596 76.1693 169.514 76.1693 171.023V171.032C76.1693 172.551 75.2776 173.464 73.9048 173.464ZM73.9093 172.577C74.6023 172.577 75.0481 172.012 75.0481 171.032V171.023C75.0481 170.048 74.5979 169.487 73.9004 169.487C73.2163 169.487 72.7616 170.052 72.7616 171.023V171.032C72.7616 172.016 73.2074 172.577 73.9093 172.577ZM76.8755 173.372V168.693H77.9746V169.425H77.9967C78.2395 168.922 78.7162 168.596 79.4268 168.596C80.4553 168.596 81.0424 169.258 81.0424 170.344V173.372H79.9433V170.564C79.9433 169.898 79.6343 169.523 79.0075 169.523C78.3763 169.523 77.9746 169.982 77.9746 170.657V173.372H76.8755ZM84.0351 175.009C82.7948 175.009 82.0135 174.444 81.8811 173.711L81.8722 173.672H82.9537L82.9669 173.707C83.0861 173.976 83.4613 174.179 84.0351 174.179C84.7502 174.179 85.143 173.8 85.143 173.204V172.528H85.121C84.8605 173.027 84.3309 173.345 83.6599 173.345C82.4858 173.345 81.731 172.445 81.731 170.988V170.984C81.731 169.505 82.4946 168.596 83.6776 168.596C84.3397 168.596 84.8517 168.949 85.1166 169.487H85.143V168.693H86.2421V173.239C86.2421 174.299 85.3902 175.009 84.0351 175.009ZM84.0042 172.498C84.6884 172.498 85.1475 171.919 85.1475 171.01V171.006C85.1475 170.101 84.684 169.523 84.0042 169.523C83.298 169.523 82.8521 170.092 82.8521 171.001V171.006C82.8521 171.928 83.298 172.498 84.0042 172.498ZM92.1702 174.917V172.595H92.1482C91.8877 173.124 91.358 173.46 90.6871 173.46C89.513 173.46 88.7582 172.528 88.7582 171.028V171.023C88.7582 169.527 89.5218 168.604 90.7048 168.604C91.3669 168.604 91.8789 168.958 92.1437 169.5H92.1702V168.693H93.2693V174.917H92.1702ZM91.0314 172.533C91.7156 172.533 92.1746 171.946 92.1746 171.028V171.023C92.1746 170.114 91.7112 169.531 91.0314 169.531C90.3252 169.531 89.8793 170.105 89.8793 171.023V171.028C89.8793 171.959 90.3252 172.533 91.0314 172.533ZM95.7633 173.464C94.7348 173.464 94.1477 172.802 94.1477 171.716V168.693H95.2468V171.5C95.2468 172.162 95.5558 172.537 96.1826 172.537C96.8138 172.537 97.2155 172.083 97.2155 171.403V168.693H98.3146V173.372H97.2155V172.639H97.1934C96.9507 173.138 96.4695 173.464 95.7633 173.464ZM100.601 173.451C99.6653 173.451 99.0341 172.873 99.0341 172.039V172.03C99.0341 171.2 99.6786 170.701 100.813 170.63L102.036 170.555V170.233C102.036 169.761 101.727 169.474 101.171 169.474C100.65 169.474 100.332 169.717 100.261 170.061L100.252 170.101H99.2327L99.2371 170.048C99.3034 169.218 100.023 168.596 101.21 168.596C102.38 168.596 103.135 169.214 103.135 170.154V173.372H102.036V172.652H102.009C101.74 173.142 101.219 173.451 100.601 173.451ZM100.129 171.994C100.129 172.378 100.447 172.612 100.928 172.612C101.559 172.612 102.036 172.193 102.036 171.637V171.284L100.967 171.35C100.425 171.385 100.129 171.619 100.129 171.99V171.994ZM104.022 173.372V168.693H105.121V169.425H105.143C105.386 168.922 105.863 168.596 106.573 168.596C107.602 168.596 108.189 169.258 108.189 170.344V173.372H107.09V170.564C107.09 169.898 106.781 169.523 106.154 169.523C105.523 169.523 105.121 169.982 105.121 170.657V173.372H104.022Z" fill="white"/>
<path d="M59.9675 206.513C59.9675 206.446 59.9133 206.392 59.8464 206.392H57.693L57.1822 207.21C56.8724 207.706 56.3294 208.007 55.7451 208.007H54.6655C54.0813 208.007 53.5382 207.706 53.2285 207.21L52.7177 206.392H50.5643C50.4974 206.392 50.4432 206.446 50.4432 206.513V207.926C50.4432 208.327 50.7684 208.652 51.1696 208.652H59.241C59.6422 208.652 59.9675 208.327 59.9675 207.926V206.513ZM54.0495 206.697C54.1822 206.909 54.4152 207.038 54.6655 207.038H55.7451C55.9955 207.038 56.2284 206.909 56.3612 206.697L56.5516 206.392H53.859L54.0495 206.697ZM52.9371 200.742C52.7251 200.742 52.5234 200.835 52.3854 200.996L51.012 202.599H52.5392C53.106 202.599 53.6355 202.882 53.9498 203.353L54.0381 203.486C54.1728 203.688 54.4 203.809 54.6428 203.809H55.7678C56.0107 203.809 56.2378 203.688 56.3725 203.486L56.4608 203.353L56.522 203.267C56.8412 202.847 57.3401 202.599 57.8714 202.599H59.3987L58.0253 200.996C57.8873 200.835 57.6856 200.742 57.4735 200.742H52.9371ZM59.9675 203.567H57.8714C57.6589 203.567 57.4585 203.66 57.3216 203.819L57.2667 203.891L57.1784 204.023C56.864 204.495 56.3345 204.778 55.7678 204.778H54.6428C54.0761 204.778 53.5466 204.495 53.2322 204.023L53.144 203.891C53.0092 203.689 52.7821 203.567 52.5392 203.567H50.4432V204.697C50.4432 205.098 50.7684 205.424 51.1696 205.424H59.241C59.6422 205.424 59.9675 205.098 59.9675 204.697V203.567ZM60.936 204.697C60.936 205.082 60.8061 205.434 60.5905 205.719C60.8027 205.918 60.936 206.2 60.936 206.513V207.926C60.936 208.862 60.1772 209.621 59.241 209.621H51.1696C50.2335 209.621 49.4746 208.862 49.4746 207.926V206.513C49.4746 206.2 49.608 205.918 49.8202 205.719C49.6046 205.434 49.4746 205.082 49.4746 204.697V203.531C49.4746 203.314 49.5163 203.102 49.5951 202.904C49.6636 202.732 49.7602 202.571 49.8826 202.428L51.6501 200.366L51.7125 200.297C52.0313 199.964 52.4733 199.774 52.9371 199.774H57.4735C57.9683 199.774 58.4385 199.99 58.7605 200.366L60.5281 202.428C60.6505 202.571 60.7471 202.732 60.8156 202.904C60.8944 203.102 60.936 203.314 60.936 203.531V204.697Z" fill="white"/>
<rect width="772.274" height="476.697" transform="translate(198.555 38)" fill="#F2F2F7"/>
<rect width="772.274" height="41.4971" transform="translate(198.555 38)" fill="white"/>
<rect x="211.469" y="45.8342" width="25.8286" height="25.8286" rx="5.16571" fill="#F2F2F7"/>
<g clip-path="url(#clip2_7053_22329)">
<path d="M228.338 54.3897H220.428V59.959C220.428 60.3602 220.753 60.6854 221.154 60.6854H227.612C228.013 60.6854 228.338 60.3602 228.338 59.959V54.3897ZM222.499 62.2997H226.267L226.052 61.654H222.715L222.499 62.2997ZM222.284 59.1519V58.3447C222.284 58.0773 222.501 57.8604 222.769 57.8604C223.036 57.8604 223.253 58.0773 223.253 58.3447V59.1519C223.253 59.4193 223.036 59.6361 222.769 59.6361C222.501 59.6361 222.284 59.4193 222.284 59.1519ZM223.899 59.1519V57.134C223.899 56.8665 224.116 56.6497 224.383 56.6497C224.651 56.6497 224.867 56.8665 224.867 57.134V59.1519C224.867 59.4193 224.651 59.6361 224.383 59.6361C224.116 59.6361 223.899 59.4193 223.899 59.1519ZM225.513 59.1519V55.9233C225.513 55.6558 225.73 55.439 225.997 55.439C226.265 55.439 226.482 55.6558 226.482 55.9233V59.1519C226.482 59.4193 226.265 59.6361 225.997 59.6361C225.73 59.6361 225.513 59.4193 225.513 59.1519ZM229.307 59.959C229.307 60.8951 228.548 61.654 227.612 61.654H227.073L227.668 63.4379C227.752 63.6916 227.615 63.9663 227.361 64.0508C227.108 64.1354 226.833 63.9981 226.748 63.7444L226.59 63.2683H222.176L222.018 63.7444C221.933 63.9981 221.659 64.1354 221.405 64.0508C221.151 63.9663 221.014 63.6916 221.098 63.4379L221.693 61.654H221.154C220.218 61.654 219.459 60.8951 219.459 59.959V54.3897H219.137C218.869 54.3897 218.652 54.1729 218.652 53.9054C218.652 53.638 218.869 53.4211 219.137 53.4211H229.629C229.897 53.4211 230.114 53.638 230.114 53.9054C230.114 54.1729 229.897 54.3897 229.629 54.3897H229.307V59.959Z" fill="#3A3A3C"/>
</g>
<path d="M245.49 63.2485V55.5176H242.766V54.1493H249.828V55.5176H247.11V63.2485H245.49ZM253.7 53.6889V53.6574C254.015 53.4178 254.192 53.1971 254.192 52.989C254.192 52.7305 253.889 52.5791 253.485 52.5791C253.296 52.5791 253.158 52.5917 253.082 52.617V51.8539C253.258 51.7846 253.523 51.7341 253.832 51.7341C254.57 51.7341 255.156 52.1125 255.156 52.7241C255.156 53.1025 254.974 53.4304 254.583 53.6889H253.7ZM250.408 55.8392L251.89 53.9033H253.246L254.74 55.8392H253.542L252.565 54.5717L251.606 55.8392H250.408ZM252.571 63.381C250.604 63.381 249.336 62.0693 249.336 59.9065V59.8938C249.336 57.7499 250.623 56.4257 252.565 56.4257C254.513 56.4257 255.806 57.7373 255.806 59.8938V59.9065C255.806 62.0757 254.532 63.381 252.571 63.381ZM252.577 62.1135C253.567 62.1135 254.204 61.3063 254.204 59.9065V59.8938C254.204 58.5003 253.561 57.6994 252.565 57.6994C251.587 57.6994 250.938 58.5066 250.938 59.8938V59.9065C250.938 61.3127 251.575 62.1135 252.577 62.1135ZM256.815 63.2485V56.5644H258.385V57.6111H258.417C258.763 56.8923 259.444 56.4257 260.46 56.4257C261.929 56.4257 262.768 57.3715 262.768 58.9228V63.2485H261.197V59.238C261.197 58.2859 260.756 57.7499 259.861 57.7499C258.959 57.7499 258.385 58.4057 258.385 59.3705V63.2485H256.815ZM267.043 65.588C265.271 65.588 264.155 64.7808 263.966 63.7341L263.953 63.6773H265.498L265.517 63.7278C265.687 64.1124 266.223 64.4025 267.043 64.4025C268.064 64.4025 268.626 63.8602 268.626 63.0089V62.0441H268.594C268.222 62.7567 267.465 63.2107 266.507 63.2107C264.83 63.2107 263.751 61.9243 263.751 59.8434V59.8371C263.751 57.7247 264.842 56.4257 266.532 56.4257C267.478 56.4257 268.209 56.9301 268.588 57.6994H268.626V56.5644H270.196V63.0594C270.196 64.5728 268.979 65.588 267.043 65.588ZM266.999 62C267.976 62 268.632 61.1739 268.632 59.8749V59.8686C268.632 58.5759 267.97 57.7499 266.999 57.7499C265.99 57.7499 265.353 58.5633 265.353 59.8623V59.8686C265.353 61.1865 265.99 62 266.999 62ZM278.665 65.4556V62.1387H278.633C278.261 62.8954 277.504 63.3747 276.546 63.3747C274.868 63.3747 273.79 62.0441 273.79 59.9002V59.8938C273.79 57.7562 274.881 56.4383 276.571 56.4383C277.517 56.4383 278.248 56.9427 278.627 57.7183H278.665V56.5644H280.235V65.4556H278.665ZM277.038 62.0504C278.015 62.0504 278.671 61.2118 278.671 59.9002V59.8938C278.671 58.5949 278.009 57.7625 277.038 57.7625C276.029 57.7625 275.392 58.5822 275.392 59.8938V59.9002C275.392 61.2307 276.029 62.0504 277.038 62.0504ZM283.797 63.381C282.328 63.381 281.49 62.4351 281.49 60.8839V56.5644H283.06V60.5749C283.06 61.5207 283.501 62.0567 284.396 62.0567C285.298 62.0567 285.872 61.4072 285.872 60.4361V56.5644H287.442V63.2485H285.872V62.2018H285.841C285.494 62.9143 284.806 63.381 283.797 63.381ZM290.709 63.362C289.372 63.362 288.47 62.536 288.47 61.3442V61.3316C288.47 60.1461 289.391 59.4335 291.011 59.3326L292.758 59.2254V58.7651C292.758 58.0904 292.317 57.6805 291.522 57.6805C290.778 57.6805 290.324 58.0273 290.223 58.5192L290.21 58.5759H288.754L288.76 58.5003C288.855 57.3148 289.883 56.4257 291.579 56.4257C293.25 56.4257 294.328 57.3085 294.328 58.6516V63.2485H292.758V62.2207H292.72C292.335 62.9206 291.591 63.362 290.709 63.362ZM290.034 61.2811C290.034 61.8297 290.488 62.1639 291.175 62.1639C292.077 62.1639 292.758 61.5649 292.758 60.7704V60.2659L291.232 60.3605C290.456 60.4109 290.034 60.7451 290.034 61.2748V61.2811ZM295.596 63.2485V56.5644H297.166V57.6111H297.197C297.544 56.8923 298.225 56.4257 299.24 56.4257C300.71 56.4257 301.548 57.3715 301.548 58.9228V63.2485H299.978V59.238C299.978 58.2859 299.537 57.7499 298.641 57.7499C297.74 57.7499 297.166 58.4057 297.166 59.3705V63.2485H295.596Z" fill="#1C1C1E"/>
<path d="M215.067 107.385C213.188 107.385 211.951 106.499 211.855 105.03L211.849 104.944H213.251L213.262 105.013C213.37 105.716 214.091 106.153 215.118 106.153C216.151 106.153 216.798 105.694 216.798 104.99V104.984C216.798 104.371 216.372 104.042 215.317 103.821L214.437 103.639C212.825 103.304 212.031 102.555 212.031 101.335V101.329C212.036 99.8878 213.302 98.9117 215.067 98.9117C216.855 98.9117 218.024 99.8538 218.109 101.256L218.114 101.352H216.713L216.701 101.284C216.605 100.569 215.975 100.143 215.055 100.143C214.096 100.149 213.5 100.597 213.5 101.25V101.256C213.5 101.834 213.949 102.175 214.936 102.379L215.822 102.561C217.524 102.913 218.268 103.605 218.268 104.882V104.888C218.268 106.414 217.065 107.385 215.067 107.385ZM222.893 98.5996L223.807 96.9367H225.05L223.75 98.5996H222.893ZM219.936 100.575L221.27 98.8322H222.49L223.835 100.575H222.757L221.877 99.4338L221.014 100.575H219.936ZM221.883 107.362C220.112 107.362 218.971 106.182 218.971 104.235V104.224C218.971 102.294 220.129 101.102 221.877 101.102C223.631 101.102 224.794 102.283 224.794 104.224V104.235C224.794 106.187 223.648 107.362 221.883 107.362ZM221.888 106.221C222.779 106.221 223.353 105.495 223.353 104.235V104.224C223.353 102.969 222.774 102.249 221.877 102.249C220.997 102.249 220.413 102.975 220.413 104.224V104.235C220.413 105.501 220.986 106.221 221.888 106.221ZM228.069 107.243V99.0536H229.482V107.243H228.069ZM231.434 100.365C230.992 100.365 230.645 100.013 230.645 99.5927C230.645 99.1614 230.992 98.8152 231.434 98.8152C231.877 98.8152 232.217 99.1614 232.217 99.5927C232.217 100.013 231.877 100.365 231.434 100.365ZM230.725 107.243V101.227H232.138V107.243H230.725ZM234.028 100.546L235.35 98.696H236.559L237.881 100.546H236.814L235.946 99.36L235.1 100.546H234.028ZM235.986 107.362C234.181 107.362 233.091 106.165 233.091 104.252V104.246C233.091 102.351 234.198 101.102 235.918 101.102C237.637 101.102 238.704 102.311 238.704 104.127V104.581H234.493C234.516 105.637 235.095 106.261 236.014 106.261C236.718 106.261 237.178 105.887 237.314 105.484L237.325 105.444H238.647L238.63 105.506C238.443 106.431 237.558 107.362 235.986 107.362ZM235.935 102.209C235.186 102.209 234.624 102.714 234.51 103.639H237.331C237.229 102.686 236.684 102.209 235.935 102.209ZM235.991 109.649C235.554 109.649 235.208 109.297 235.208 108.877C235.208 108.452 235.554 108.106 235.991 108.106C236.44 108.106 236.78 108.452 236.78 108.877C236.78 109.297 236.44 109.649 235.991 109.649ZM241.667 107.362C240.344 107.362 239.589 106.511 239.589 105.115V101.227H241.003V104.837C241.003 105.688 241.4 106.17 242.206 106.17C243.017 106.17 243.534 105.586 243.534 104.712V101.227H244.947V107.243H243.534V106.301H243.505C243.193 106.942 242.575 107.362 241.667 107.362ZM250.673 107.362C249.152 107.362 248.187 106.17 248.187 104.235V104.229C248.187 102.288 249.158 101.102 250.668 101.102C251.519 101.102 252.206 101.539 252.546 102.26H252.58V100.614H251.513V99.797H252.58V99.0536H253.993V99.797H254.6V100.614H253.993V107.243H252.58V106.221H252.546C252.206 106.931 251.542 107.362 250.673 107.362ZM251.099 106.17C251.973 106.17 252.58 105.415 252.58 104.235V104.229C252.58 103.055 251.967 102.294 251.099 102.294C250.196 102.294 249.629 103.032 249.629 104.229V104.235C249.629 105.433 250.191 106.17 251.099 106.17ZM258.045 107.362C256.275 107.362 255.134 106.182 255.134 104.235V104.224C255.134 102.294 256.292 101.102 258.04 101.102C258.045 101.102 258.045 101.102 258.045 101.102C259.606 101.012 259.981 100.654 260.003 99.553H261.133C261.11 100.716 260.792 101.301 259.754 101.596C260.508 102.113 260.957 103.021 260.957 104.224V104.235C260.957 106.187 259.81 107.362 258.045 107.362ZM258.051 106.221C258.942 106.221 259.515 105.495 259.515 104.235V104.224C259.515 102.969 258.936 102.249 258.04 102.249C257.16 102.249 256.575 102.975 256.575 104.224V104.235C256.575 105.501 257.149 106.221 258.051 106.221ZM261.865 107.243V101.227H263.278V102.169H263.306C263.618 101.522 264.231 101.102 265.145 101.102C266.467 101.102 267.222 101.954 267.222 103.35V107.243H265.809V103.633C265.809 102.777 265.412 102.294 264.606 102.294C263.794 102.294 263.278 102.884 263.278 103.753V107.243H261.865ZM270.724 107.243V99.0536H272.137V102.237H272.171C272.483 101.517 273.124 101.102 274.027 101.102C275.321 101.102 276.149 102.044 276.149 103.497V107.243H274.736V103.775C274.736 102.85 274.271 102.294 273.459 102.294C272.659 102.294 272.137 102.901 272.137 103.775V107.243H270.724ZM279.481 100.546L278.141 98.696H279.452L280.468 100.546H279.481ZM279.066 107.345C277.863 107.345 277.052 106.602 277.052 105.529V105.518C277.052 104.451 277.88 103.809 279.339 103.719L280.911 103.622V103.208C280.911 102.601 280.514 102.232 279.798 102.232C279.129 102.232 278.72 102.544 278.629 102.987L278.618 103.038H277.307L277.313 102.969C277.398 101.903 278.323 101.102 279.85 101.102C281.353 101.102 282.324 101.897 282.324 103.106V107.243H280.911V106.318H280.877C280.531 106.948 279.861 107.345 279.066 107.345ZM278.459 105.472C278.459 105.966 278.868 106.267 279.486 106.267C280.298 106.267 280.911 105.728 280.911 105.013V104.559L279.537 104.644C278.839 104.689 278.459 104.99 278.459 105.467V105.472ZM283.465 107.243V101.227H284.878V102.169H284.906C285.218 101.522 285.831 101.102 286.745 101.102C288.067 101.102 288.822 101.954 288.822 103.35V107.243H287.409V103.633C287.409 102.777 287.012 102.294 286.206 102.294C285.394 102.294 284.878 102.884 284.878 103.753V107.243H283.465ZM292.67 109.348C291.075 109.348 290.071 108.622 289.9 107.68L289.889 107.629H291.279L291.296 107.674C291.45 108.02 291.932 108.281 292.67 108.281C293.589 108.281 294.094 107.793 294.094 107.027V106.159H294.066C293.731 106.8 293.05 107.209 292.187 107.209C290.678 107.209 289.707 106.051 289.707 104.178V104.173C289.707 102.271 290.689 101.102 292.21 101.102C293.061 101.102 293.72 101.556 294.06 102.249H294.094V101.227H295.507V107.073C295.507 108.435 294.412 109.348 292.67 109.348ZM292.63 106.119C293.51 106.119 294.1 105.376 294.1 104.207V104.201C294.1 103.038 293.504 102.294 292.63 102.294C291.722 102.294 291.149 103.026 291.149 104.195V104.201C291.149 105.387 291.722 106.119 292.63 106.119Z" fill="#1C1C1E"/>
<rect x="211.469" y="123.406" width="178.863" height="62.8286" rx="5.16571" fill="white"/>
<path d="M223.011 135.491C222.788 135.491 222.607 135.672 222.607 135.895C222.607 136.117 222.788 136.298 223.011 136.298H223.757C223.848 136.298 223.928 136.36 223.952 136.448L225.328 141.609C224.459 141.834 223.818 142.623 223.818 143.562C223.818 143.785 223.999 143.966 224.222 143.966H232.697C232.92 143.966 233.1 143.785 233.1 143.562C233.1 143.34 232.92 143.159 232.697 143.159H224.694C224.86 142.689 225.309 142.352 225.836 142.352H231.872C232.027 142.352 232.168 142.264 232.235 142.125C232.846 140.871 233.379 139.573 233.828 138.236C233.864 138.13 233.854 138.013 233.8 137.915C233.746 137.816 233.654 137.744 233.545 137.716C230.951 137.054 228.232 136.702 225.432 136.702C225.24 136.702 225.048 136.703 224.856 136.707L224.731 136.24C224.614 135.798 224.214 135.491 223.757 135.491H223.011Z" fill="#015AA2"/>
<path d="M223.818 145.177C223.818 144.731 224.18 144.37 224.625 144.37C225.071 144.37 225.432 144.731 225.432 145.177C225.432 145.622 225.071 145.984 224.625 145.984C224.18 145.984 223.818 145.622 223.818 145.177Z" fill="#015AA2"/>
<path d="M230.679 145.177C230.679 144.731 231.04 144.37 231.486 144.37C231.932 144.37 232.293 144.731 232.293 145.177C232.293 145.622 231.932 145.984 231.486 145.984C231.04 145.984 230.679 145.622 230.679 145.177Z" fill="#015AA2"/>
<path d="M242.407 143.737V138.326H240.5V137.368H245.444V138.326H243.541V143.737H242.407ZM248.154 137.046V137.024C248.375 136.856 248.498 136.701 248.498 136.556C248.498 136.375 248.286 136.269 248.004 136.269C247.871 136.269 247.774 136.278 247.721 136.295V135.761C247.845 135.713 248.03 135.677 248.247 135.677C248.763 135.677 249.174 135.942 249.174 136.37C249.174 136.635 249.046 136.865 248.772 137.046H248.154ZM245.85 138.551L246.887 137.196H247.836L248.882 138.551H248.044L247.359 137.664L246.688 138.551H245.85ZM247.364 143.83C245.987 143.83 245.099 142.912 245.099 141.398V141.389C245.099 139.888 246 138.961 247.359 138.961C248.723 138.961 249.628 139.879 249.628 141.389V141.398C249.628 142.916 248.737 143.83 247.364 143.83ZM247.368 142.943C248.061 142.943 248.507 142.378 248.507 141.398V141.389C248.507 140.414 248.057 139.853 247.359 139.853C246.675 139.853 246.221 140.418 246.221 141.389V141.398C246.221 142.382 246.666 142.943 247.368 142.943ZM250.334 143.737V139.058H251.434V139.791H251.456C251.698 139.288 252.175 138.961 252.886 138.961C253.914 138.961 254.501 139.623 254.501 140.709V143.737H253.402V140.93C253.402 140.263 253.093 139.888 252.466 139.888C251.835 139.888 251.434 140.347 251.434 141.023V143.737H250.334ZM257.494 145.375C256.254 145.375 255.472 144.81 255.34 144.077L255.331 144.037H256.413L256.426 144.073C256.545 144.342 256.92 144.545 257.494 144.545C258.209 144.545 258.602 144.165 258.602 143.57V142.894H258.58C258.319 143.393 257.79 143.711 257.119 143.711C255.945 143.711 255.19 142.81 255.19 141.354V141.349C255.19 139.871 255.954 138.961 257.136 138.961C257.799 138.961 258.311 139.314 258.575 139.853H258.602V139.058H259.701V143.605C259.701 144.664 258.849 145.375 257.494 145.375ZM257.463 142.863C258.147 142.863 258.606 142.285 258.606 141.376V141.371C258.606 140.466 258.143 139.888 257.463 139.888C256.757 139.888 256.311 140.458 256.311 141.367V141.371C256.311 142.294 256.757 142.863 257.463 142.863ZM264.15 143.83C262.967 143.83 262.217 142.903 262.217 141.398V141.393C262.217 139.884 262.972 138.961 264.146 138.961C264.808 138.961 265.342 139.301 265.607 139.862H265.634V138.582H264.804V137.946H265.634V137.368H266.733V137.946H267.205V138.582H266.733V143.737H265.634V142.943H265.607C265.342 143.495 264.826 143.83 264.15 143.83ZM264.481 142.903C265.161 142.903 265.634 142.316 265.634 141.398V141.393C265.634 140.48 265.157 139.888 264.481 139.888C263.78 139.888 263.338 140.462 263.338 141.393V141.398C263.338 142.329 263.775 142.903 264.481 142.903ZM269.884 143.83C268.507 143.83 267.62 142.912 267.62 141.398V141.389C267.62 139.888 268.52 138.961 269.88 138.961C269.884 138.961 269.884 138.961 269.884 138.961C271.098 138.891 271.389 138.613 271.407 137.756H272.286C272.268 138.661 272.021 139.116 271.213 139.345C271.8 139.747 272.149 140.453 272.149 141.389V141.398C272.149 142.916 271.257 143.83 269.884 143.83ZM269.889 142.943C270.582 142.943 271.028 142.378 271.028 141.398V141.389C271.028 140.414 270.577 139.853 269.88 139.853C269.196 139.853 268.741 140.418 268.741 141.389V141.398C268.741 142.382 269.187 142.943 269.889 142.943ZM272.855 143.737V139.058H273.954V139.791H273.976C274.219 139.288 274.696 138.961 275.406 138.961C276.435 138.961 277.022 139.623 277.022 140.709V143.737H275.923V140.93C275.923 140.263 275.614 139.888 274.987 139.888C274.356 139.888 273.954 140.347 273.954 141.023V143.737H272.855ZM279.745 143.737V137.368H280.844V139.844H280.871C281.114 139.284 281.612 138.961 282.314 138.961C283.321 138.961 283.965 139.694 283.965 140.824V143.737H282.866V141.04C282.866 140.321 282.504 139.888 281.873 139.888C281.251 139.888 280.844 140.361 280.844 141.04V143.737H279.745ZM286.556 138.529L285.514 137.09H286.534L287.324 138.529H286.556ZM286.234 143.817C285.298 143.817 284.667 143.239 284.667 142.404V142.395C284.667 141.566 285.311 141.067 286.446 140.996L287.669 140.921V140.599C287.669 140.127 287.36 139.84 286.803 139.84C286.283 139.84 285.965 140.082 285.894 140.427L285.885 140.466H284.866L284.87 140.414C284.936 139.584 285.656 138.961 286.843 138.961C288.013 138.961 288.768 139.579 288.768 140.519V143.737H287.669V143.018H287.642C287.373 143.508 286.852 143.817 286.234 143.817ZM285.762 142.36C285.762 142.744 286.079 142.978 286.561 142.978C287.192 142.978 287.669 142.559 287.669 142.003V141.649L286.6 141.716C286.057 141.751 285.762 141.985 285.762 142.356V142.36ZM289.655 143.737V139.058H290.754V139.791H290.776C291.019 139.288 291.496 138.961 292.206 138.961C293.235 138.961 293.822 139.623 293.822 140.709V143.737H292.723V140.93C292.723 140.263 292.414 139.888 291.787 139.888C291.156 139.888 290.754 140.347 290.754 141.023V143.737H289.655ZM296.814 145.375C295.574 145.375 294.793 144.81 294.66 144.077L294.652 144.037H295.733L295.746 144.073C295.865 144.342 296.241 144.545 296.814 144.545C297.53 144.545 297.922 144.165 297.922 143.57V142.894H297.9C297.64 143.393 297.11 143.711 296.439 143.711C295.265 143.711 294.51 142.81 294.51 141.354V141.349C294.51 139.871 295.274 138.961 296.457 138.961C297.119 138.961 297.631 139.314 297.896 139.853H297.922V139.058H299.022V143.605C299.022 144.664 298.17 145.375 296.814 145.375ZM296.784 142.863C297.468 142.863 297.927 142.285 297.927 141.376V141.371C297.927 140.466 297.463 139.888 296.784 139.888C296.077 139.888 295.632 140.458 295.632 141.367V141.371C295.632 142.294 296.077 142.863 296.784 142.863Z" fill="#717176"/>
<path d="M226.537 170.092C224.138 170.092 222.579 168.806 222.428 166.974L222.42 166.884H224.289L224.297 166.967C224.403 167.852 225.25 168.495 226.529 168.495C227.793 168.495 228.633 167.799 228.633 166.808V166.793C228.633 165.643 227.785 165.007 226.393 165.007H225.099V163.554H226.348C227.551 163.554 228.353 162.873 228.353 161.92V161.905C228.353 160.921 227.687 160.346 226.514 160.346C225.364 160.346 224.577 160.944 224.479 161.882L224.471 161.958H222.655L222.662 161.867C222.821 160.02 224.312 158.795 226.514 158.795C228.769 158.795 230.229 159.952 230.229 161.647V161.662C230.229 163.017 229.246 163.917 227.937 164.19V164.228C229.548 164.379 230.615 165.332 230.615 166.846V166.861C230.615 168.76 228.951 170.092 226.537 170.092ZM236.26 170.092C233.582 170.092 231.97 167.92 231.97 164.447V164.432C231.97 160.959 233.582 158.795 236.26 158.795C238.931 158.795 240.551 160.959 240.551 164.432V164.447C240.551 167.92 238.931 170.092 236.26 170.092ZM236.26 168.495C237.728 168.495 238.583 166.967 238.583 164.447V164.432C238.583 161.912 237.728 160.399 236.26 160.399C234.785 160.399 233.937 161.912 233.937 164.432V164.447C233.937 166.967 234.785 168.495 236.26 168.495ZM246.143 170.092C243.464 170.092 241.852 167.92 241.852 164.447V164.432C241.852 160.959 243.464 158.795 246.143 158.795C248.814 158.795 250.433 160.959 250.433 164.432V164.447C250.433 167.92 248.814 170.092 246.143 170.092ZM246.143 168.495C247.611 168.495 248.466 166.967 248.466 164.447V164.432C248.466 161.912 247.611 160.399 246.143 160.399C244.667 160.399 243.82 161.912 243.82 164.432V164.447C243.82 166.967 244.667 168.495 246.143 168.495Z" fill="#015AA2"/>
<rect x="400.663" y="123.406" width="178.863" height="62.8286" rx="5.16571" fill="white"/>
<g clip-path="url(#clip3_7053_22329)">
<path fill-rule="evenodd" clip-rule="evenodd" d="M413.942 137.271C414.047 136.933 414.359 136.702 414.714 136.702H415.837C416.06 136.702 416.241 136.521 416.241 136.298C416.241 136.075 416.06 135.895 415.837 135.895H414.714C414.005 135.895 413.379 136.357 413.171 137.034L411.873 141.252C411.826 141.406 411.802 141.566 411.802 141.727V143.966C411.802 144.858 412.524 145.58 413.416 145.58H421.487C422.379 145.58 423.102 144.858 423.102 143.966V141.727C423.102 141.566 423.078 141.406 423.03 141.252L421.733 137.034C421.524 136.357 420.898 135.895 420.19 135.895H419.066C418.843 135.895 418.662 136.075 418.662 136.298C418.662 136.521 418.843 136.702 419.066 136.702H420.19C420.544 136.702 420.857 136.933 420.961 137.271L422.152 141.141H420.621C420.01 141.141 419.451 141.486 419.178 142.033L419.04 142.309C418.903 142.583 418.624 142.755 418.318 142.755H416.586C416.28 142.755 416.001 142.583 415.864 142.309L415.726 142.033C415.452 141.486 414.894 141.141 414.282 141.141H412.752L413.942 137.271Z" fill="#EDAA00"/>
<path fill-rule="evenodd" clip-rule="evenodd" d="M417.452 135.491C417.675 135.491 417.855 135.672 417.855 135.895V139.36L418.781 138.434C418.938 138.277 419.194 138.277 419.351 138.434C419.509 138.592 419.509 138.847 419.351 139.005L417.737 140.619C417.58 140.777 417.324 140.777 417.166 140.619L415.552 139.005C415.394 138.847 415.394 138.592 415.552 138.434C415.71 138.277 415.965 138.277 416.123 138.434L417.048 139.36V135.895C417.048 135.672 417.229 135.491 417.452 135.491Z" fill="#EDAA00"/>
</g>
<path d="M432.864 143.848C431.032 143.848 429.876 142.585 429.876 140.55V140.546C429.876 138.511 431.037 137.257 432.864 137.257C434.33 137.257 435.407 138.171 435.574 139.469L435.579 139.513H434.462L434.44 139.429C434.255 138.701 433.694 138.246 432.864 138.246C431.752 138.246 431.041 139.133 431.041 140.546V140.55C431.041 141.967 431.756 142.859 432.864 142.859C433.676 142.859 434.246 142.422 434.453 141.636L434.466 141.592H435.583L435.574 141.636C435.411 142.943 434.33 143.848 432.864 143.848ZM436.369 143.737V137.368H437.468V139.844H437.494C437.737 139.284 438.236 138.961 438.938 138.961C439.944 138.961 440.589 139.694 440.589 140.824V143.737H439.49V141.04C439.49 140.321 439.128 139.888 438.496 139.888C437.874 139.888 437.468 140.361 437.468 141.04V143.737H436.369ZM443.047 138.529L442.006 137.09H443.025L443.811 138.529H443.047ZM443.546 143.83C442.169 143.83 441.282 142.912 441.282 141.398V141.389C441.282 139.888 442.182 138.961 443.542 138.961C443.546 138.961 443.546 138.961 443.546 138.961C444.76 138.891 445.051 138.613 445.069 137.756H445.947C445.93 138.661 445.683 139.116 444.875 139.345C445.462 139.747 445.811 140.453 445.811 141.389V141.398C445.811 142.916 444.919 143.83 443.546 143.83ZM443.551 142.943C444.244 142.943 444.689 142.378 444.689 141.398V141.389C444.689 140.414 444.239 139.853 443.542 139.853C442.858 139.853 442.403 140.418 442.403 141.389V141.398C442.403 142.382 442.849 142.943 443.551 142.943ZM447.987 143.737L449.501 141.402L448.004 139.058H449.24L450.181 140.7H450.207L451.138 139.058H452.339L450.834 141.371L452.326 143.737H451.125L450.154 142.06H450.128L449.161 143.737H447.987ZM454.568 138.529V138.515C454.82 138.321 454.987 138.136 454.987 137.955C454.987 137.739 454.749 137.615 454.414 137.615C454.277 137.615 454.171 137.633 454.091 137.646V137.072C454.219 137.024 454.427 136.984 454.648 136.984C455.23 136.984 455.702 137.297 455.702 137.783C455.702 138.078 455.535 138.321 455.226 138.529H454.568ZM454.493 143.83C453.465 143.83 452.877 143.168 452.877 142.082V139.058H453.977V141.866C453.977 142.528 454.286 142.903 454.912 142.903C455.544 142.903 455.945 142.448 455.945 141.769V139.058C456.863 138.935 457.062 138.661 457.053 137.756H457.936C457.936 138.705 457.72 139.164 457.044 139.42V143.737H455.945V143.005H455.923C455.68 143.503 455.199 143.83 454.493 143.83ZM459.966 143.737V137.368H461.066V143.737H459.966ZM462.858 138.529H462.09L462.88 137.09H463.899L462.858 138.529ZM462.032 143.737V139.058H463.131V143.737H462.032Z" fill="#717176"/>
<path d="M411.804 169.903V168.571L415.663 164.81C417.093 163.41 417.403 162.858 417.403 162.048V162.033C417.396 161.057 416.662 160.361 415.61 160.361C414.399 160.361 413.552 161.171 413.529 162.222V162.275H411.698V162.222C411.698 160.225 413.378 158.795 415.595 158.795C417.782 158.795 419.31 160.119 419.31 161.92V161.935C419.31 163.221 418.712 164.091 416.79 165.938L414.384 168.223V168.306H419.477V169.903H411.804ZM425.046 170.092C422.367 170.092 420.756 167.92 420.756 164.447V164.432C420.756 160.959 422.367 158.795 425.046 158.795C427.717 158.795 429.336 160.959 429.336 164.432V164.447C429.336 167.92 427.717 170.092 425.046 170.092ZM425.046 168.495C426.514 168.495 427.369 166.967 427.369 164.447V164.432C427.369 161.912 426.514 160.399 425.046 160.399C423.57 160.399 422.723 161.912 422.723 164.432V164.447C422.723 166.967 423.57 168.495 425.046 168.495Z" fill="#2C2C2E"/>
<path d="M212.428 209.566V205.979H211.707V204.963H212.428V201.376H215.419C217.859 201.376 219.312 202.852 219.312 205.44V205.451C219.312 208.045 217.87 209.566 215.419 209.566H212.428ZM213.892 208.328H215.265C216.911 208.328 217.819 207.324 217.819 205.457V205.445C217.819 203.618 216.894 202.614 215.265 202.614H213.892V204.963H215.214V205.979H213.892V208.328ZM222.995 209.685C221.224 209.685 220.084 208.504 220.084 206.558V206.546C220.084 204.617 221.241 203.425 222.989 203.425C222.995 203.425 222.995 203.425 222.995 203.425C224.556 203.334 224.93 202.977 224.953 201.876H226.082C226.06 203.039 225.742 203.624 224.703 203.919C225.458 204.435 225.907 205.343 225.907 206.546V206.558C225.907 208.51 224.76 209.685 222.995 209.685ZM223.001 208.544C223.892 208.544 224.465 207.818 224.465 206.558V206.546C224.465 205.292 223.886 204.571 222.989 204.571C222.11 204.571 221.525 205.298 221.525 206.546V206.558C221.525 207.823 222.098 208.544 223.001 208.544ZM226.815 209.566V203.55H228.228V204.492H228.256C228.568 203.845 229.181 203.425 230.095 203.425C231.417 203.425 232.172 204.276 232.172 205.672V209.566H230.759V205.956C230.759 205.099 230.362 204.617 229.556 204.617C228.744 204.617 228.228 205.207 228.228 206.075V209.566H226.815ZM235.674 209.566V201.376H237.087V204.56H237.121C237.433 203.839 238.074 203.425 238.977 203.425C240.271 203.425 241.099 204.367 241.099 205.82V209.566H239.686V206.098C239.686 205.173 239.221 204.617 238.409 204.617C237.609 204.617 237.087 205.224 237.087 206.098V209.566H235.674ZM244.43 202.869L243.091 201.019H244.402L245.418 202.869H244.43ZM244.016 209.668C242.813 209.668 242.001 208.924 242.001 207.852V207.84C242.001 206.773 242.83 206.132 244.289 206.041L245.861 205.945V205.531C245.861 204.923 245.463 204.554 244.748 204.554C244.079 204.554 243.67 204.867 243.579 205.309L243.568 205.36H242.257L242.263 205.292C242.348 204.225 243.273 203.425 244.799 203.425C246.303 203.425 247.274 204.22 247.274 205.428V209.566H245.861V208.641H245.827C245.48 209.271 244.811 209.668 244.016 209.668ZM243.409 207.795C243.409 208.289 243.818 208.59 244.436 208.59C245.248 208.59 245.861 208.05 245.861 207.335V206.881L244.487 206.966C243.789 207.012 243.409 207.313 243.409 207.789V207.795ZM248.414 209.566V203.55H249.828V204.492H249.856C250.168 203.845 250.781 203.425 251.695 203.425C253.017 203.425 253.772 204.276 253.772 205.672V209.566H252.359V205.956C252.359 205.099 251.961 204.617 251.156 204.617C250.344 204.617 249.828 205.207 249.828 206.075V209.566H248.414ZM257.62 211.671C256.025 211.671 255.02 210.945 254.85 210.003L254.839 209.952H256.229L256.246 209.997C256.399 210.343 256.882 210.604 257.62 210.604C258.539 210.604 259.044 210.116 259.044 209.35V208.482H259.016C258.681 209.123 258 209.532 257.137 209.532C255.628 209.532 254.657 208.374 254.657 206.501V206.495C254.657 204.594 255.639 203.425 257.16 203.425C258.011 203.425 258.67 203.879 259.01 204.571H259.044V203.55H260.457V209.395C260.457 210.757 259.362 211.671 257.62 211.671ZM257.58 208.442C258.46 208.442 259.05 207.699 259.05 206.529V206.524C259.05 205.36 258.454 204.617 257.58 204.617C256.672 204.617 256.099 205.349 256.099 206.518V206.524C256.099 207.71 256.672 208.442 257.58 208.442ZM266.655 211.671C265.06 211.671 264.055 210.945 263.885 210.003L263.874 209.952H265.264L265.281 209.997C265.434 210.343 265.917 210.604 266.655 210.604C267.574 210.604 268.079 210.116 268.079 209.35V208.482H268.051C267.716 209.123 267.035 209.532 266.172 209.532C264.663 209.532 263.692 208.374 263.692 206.501V206.495C263.692 204.594 264.674 203.425 266.195 203.425C267.046 203.425 267.705 203.879 268.045 204.571H268.079V203.55H269.492V209.395C269.492 210.757 268.397 211.671 266.655 211.671ZM266.615 208.442C267.495 208.442 268.085 207.699 268.085 206.529V206.524C268.085 205.36 267.489 204.617 266.615 204.617C265.707 204.617 265.134 205.349 265.134 206.518V206.524C265.134 207.71 265.707 208.442 266.615 208.442ZM274.305 200.922L273.005 199.259H274.248L275.162 200.922H274.305ZM271.047 202.897L272.387 201.155H273.607L274.952 202.897H273.874L272.988 201.757L272.126 202.897H271.047ZM272.426 209.668C271.223 209.668 270.412 208.924 270.412 207.852V207.84C270.412 206.773 271.24 206.132 272.699 206.041L274.271 205.945V205.531C274.271 204.923 273.874 204.554 273.158 204.554C272.489 204.554 272.08 204.867 271.989 205.309L271.978 205.36H270.667L270.673 205.292C270.758 204.225 271.683 203.425 273.21 203.425C274.713 203.425 275.684 204.22 275.684 205.428V209.566H274.271V208.641H274.237C273.891 209.271 273.221 209.668 272.426 209.668ZM271.819 207.795C271.819 208.289 272.228 208.59 272.846 208.59C273.658 208.59 274.271 208.05 274.271 207.335V206.881L272.897 206.966C272.199 207.012 271.819 207.313 271.819 207.789V207.795ZM276.825 209.566V203.55H278.238V204.492H278.266C278.578 203.845 279.191 203.425 280.105 203.425C281.427 203.425 282.182 204.276 282.182 205.672V209.566H280.769V205.956C280.769 205.099 280.372 204.617 279.566 204.617C278.754 204.617 278.238 205.207 278.238 206.075V209.566H276.825ZM287.88 209.685C286.359 209.685 285.394 208.493 285.394 206.558V206.552C285.394 204.611 286.365 203.425 287.874 203.425C288.726 203.425 289.412 203.862 289.753 204.583H289.787V202.937H288.72V202.12H289.787V201.376H291.2V202.12H291.807V202.937H291.2V209.566H289.787V208.544H289.753C289.412 209.254 288.748 209.685 287.88 209.685ZM288.306 208.493C289.18 208.493 289.787 207.738 289.787 206.558V206.552C289.787 205.377 289.174 204.617 288.306 204.617C287.403 204.617 286.836 205.355 286.836 206.552V206.558C286.836 207.755 287.398 208.493 288.306 208.493ZM293.209 202.869L294.526 201.019H295.734L297.062 202.869H295.99L295.127 201.683L294.282 202.869H293.209ZM294.367 209.668C293.164 209.668 292.352 208.924 292.352 207.852V207.84C292.352 206.773 293.181 206.132 294.639 206.041L296.211 205.945V205.531C296.211 204.923 295.814 204.554 295.099 204.554C294.429 204.554 294.021 204.867 293.93 205.309L293.918 205.36H292.607L292.613 205.292C292.698 204.225 293.623 203.425 295.15 203.425C296.654 203.425 297.624 204.22 297.624 205.428V209.566H296.211V208.641H296.177C295.831 209.271 295.161 209.668 294.367 209.668ZM293.759 207.795C293.759 208.289 294.168 208.59 294.787 208.59C295.598 208.59 296.211 208.05 296.211 207.335V206.881L294.838 206.966C294.14 207.012 293.759 207.313 293.759 207.789V207.795ZM299.548 211.563C299.276 211.563 298.992 211.529 298.822 211.501V210.423C298.93 210.445 299.094 210.474 299.293 210.474C299.832 210.474 300.133 210.32 300.314 209.815L300.399 209.571L298.237 203.55H299.781L301.188 208.363H301.228L302.641 203.55H304.128L301.966 209.77C301.506 211.092 300.802 211.563 299.548 211.563Z" fill="#1C1C1E"/>
</g>
</g>
<rect x="0.5" y="0.5" width="509" height="199" rx="7.5" stroke="#F2F2F7"/>
<defs>
<clipPath id="clip0_7053_22329">
<rect width="510" height="200" rx="8" fill="white"/>
</clipPath>
<clipPath id="clip1_7053_22329">
<rect x="41" y="38" width="929.829" height="452" rx="6" fill="white"/>
</clipPath>
<clipPath id="clip2_7053_22329">
<rect width="12.9143" height="12.9143" fill="white" transform="translate(217.926 52.2913)"/>
</clipPath>
<clipPath id="clip3_7053_22329">
<rect width="12.9143" height="12.9143" fill="white" transform="translate(410.994 134.28)"/>
</clipPath>
</defs>
</svg>
