<svg width="316" height="190" viewBox="0 0 316 190" fill="none" xmlns="http://www.w3.org/2000/svg">
<g clip-path="url(#clip0_7053_23073)">
<rect width="316" height="190" fill="white"/>
<g clip-path="url(#clip1_7053_23073)">
<rect x="30" y="23" width="234" height="134" rx="8" fill="white"/>
<rect x="38" y="31" width="6" height="6" rx="3" fill="#2D8F00"/>
<rect x="46" y="31" width="6" height="6" rx="3" fill="#EDAA00"/>
<rect x="54" y="31" width="6" height="6" rx="3" fill="#C40000"/>
<rect x="64" y="31" width="192" height="6" rx="3" fill="#F2F2F7"/>
<rect x="38" y="61" width="218" height="34" rx="4" fill="#F5F6F7"/>
<rect x="38" y="99" width="218" height="34" rx="4" fill="#F5F6F7"/>
<rect x="38" y="137" width="218" height="34" rx="4" fill="#F5F6F7"/>
</g>
<rect x="30.1637" y="23.1637" width="233.673" height="133.673" rx="7.83625" stroke="#E5E5EA" stroke-width="0.327496"/>
<g clip-path="url(#clip2_7053_23073)">
<rect x="210" y="70" width="78" height="134" rx="8" fill="white"/>
<rect x="218" y="78" width="62" height="5" rx="2.5" fill="#F2F2F7"/>
<rect x="218" y="95" width="62" height="34" rx="4" fill="#F5F6F7"/>
<rect x="218" y="133" width="62" height="34" rx="4" fill="#F5F6F7"/>
<rect x="218" y="171" width="62" height="34" rx="4" fill="#F5F6F7"/>
</g>
<rect x="210.164" y="70.1637" width="77.6725" height="133.673" rx="7.83625" stroke="#E5E5EA" stroke-width="0.327496"/>
<rect width="316" height="55" transform="translate(0 135)" fill="url(#paint0_linear_7053_23073)"/>
<g filter="url(#filter0_d_7053_23073)">
<rect x="185" y="47" width="50" height="50" rx="25" fill="url(#paint1_linear_7053_23073)"/>
<path d="M209.062 65.9062V79.0312C209.062 79.1556 209.013 79.2748 208.925 79.3627C208.837 79.4506 208.718 79.5 208.594 79.5H206.25V81.375H208.093C208.335 81.372 208.569 81.4606 208.749 81.6229C208.928 81.7853 209.039 82.0094 209.06 82.2504C209.069 82.3786 209.051 82.5072 209.007 82.6283C208.964 82.7493 208.896 82.8601 208.809 82.9538C208.721 83.0476 208.614 83.1222 208.496 83.1732C208.378 83.2241 208.251 83.2503 208.123 83.25H202.532C202.289 83.2536 202.055 83.1653 201.875 83.0029C201.695 82.8405 201.584 82.616 201.562 82.3746C201.554 82.2464 201.572 82.1178 201.615 81.9967C201.659 81.8757 201.726 81.7649 201.814 81.6712C201.902 81.5774 202.008 81.5028 202.126 81.4518C202.244 81.4009 202.371 81.3747 202.5 81.375H204.375V79.5H198.75C198.004 79.5 197.289 79.2037 196.761 78.6762C196.234 78.1488 195.938 77.4334 195.938 76.6875V68.25C195.938 67.5041 196.234 66.7887 196.761 66.2613C197.289 65.7338 198.004 65.4375 198.75 65.4375H208.594C208.718 65.4375 208.837 65.4869 208.925 65.5748C209.013 65.6627 209.062 65.7819 209.062 65.9062ZM224.062 62.625V81.375C224.062 81.8723 223.865 82.3492 223.513 82.7008C223.162 83.0525 222.685 83.25 222.188 83.25H212.812C212.315 83.25 211.838 83.0525 211.487 82.7008C211.135 82.3492 210.938 81.8723 210.938 81.375V62.625C210.938 62.1277 211.135 61.6508 211.487 61.2992C211.838 60.9475 212.315 60.75 212.812 60.75H222.188C222.685 60.75 223.162 60.9475 223.513 61.2992C223.865 61.6508 224.062 62.1277 224.062 62.625ZM218.895 78.2777C218.933 77.9865 218.879 77.6905 218.741 77.4313C218.602 77.1722 218.386 76.9629 218.123 76.8329C217.859 76.7029 217.562 76.6586 217.272 76.7064C216.982 76.7541 216.714 76.8914 216.506 77.0991C216.299 77.3067 216.161 77.5742 216.113 77.8641C216.065 78.1539 216.109 78.4515 216.239 78.7151C216.369 78.9787 216.578 79.195 216.837 79.3337C217.096 79.4723 217.392 79.5264 217.683 79.4883C217.99 79.4481 218.275 79.3077 218.494 79.0888C218.713 78.8699 218.854 78.5848 218.895 78.2777ZM221.25 69.1254C221.229 68.884 221.117 68.6595 220.938 68.4971C220.758 68.3347 220.523 68.2464 220.281 68.25H214.719C214.477 68.247 214.243 68.3356 214.064 68.4979C213.885 68.6603 213.773 68.8844 213.752 69.1254C213.744 69.2536 213.762 69.3822 213.805 69.5033C213.848 69.6243 213.916 69.7351 214.004 69.8288C214.092 69.9226 214.198 69.9972 214.316 70.0482C214.434 70.0991 214.561 70.1253 214.69 70.125H220.315C220.443 70.125 220.57 70.0986 220.688 70.0475C220.806 69.9964 220.912 69.9217 220.999 69.828C221.087 69.7343 221.154 69.6236 221.197 69.5027C221.241 69.3819 221.259 69.2534 221.25 69.1254ZM221.25 65.3754C221.229 65.134 221.117 64.9095 220.938 64.7471C220.758 64.5847 220.523 64.4964 220.281 64.5H214.719C214.477 64.4964 214.242 64.5847 214.062 64.7471C213.883 64.9095 213.771 65.134 213.75 65.3754C213.741 65.5036 213.759 65.6322 213.803 65.7533C213.846 65.8743 213.914 65.9851 214.002 66.0788C214.09 66.1726 214.196 66.2472 214.314 66.2982C214.432 66.3491 214.559 66.3753 214.688 66.375H220.312C220.441 66.3753 220.568 66.3491 220.686 66.2982C220.804 66.2472 220.91 66.1726 220.998 66.0788C221.086 65.9851 221.154 65.8743 221.197 65.7533C221.241 65.6322 221.259 65.5036 221.25 65.3754Z" fill="white"/>
</g>
</g>
<defs>
<filter id="filter0_d_7053_23073" x="172.5" y="39.5" width="75" height="75" filterUnits="userSpaceOnUse" color-interpolation-filters="sRGB">
<feFlood flood-opacity="0" result="BackgroundImageFix"/>
<feColorMatrix in="SourceAlpha" type="matrix" values="0 0 0 0 0 0 0 0 0 0 0 0 0 0 0 0 0 0 127 0" result="hardAlpha"/>
<feOffset dy="5"/>
<feGaussianBlur stdDeviation="6.25"/>
<feComposite in2="hardAlpha" operator="out"/>
<feColorMatrix type="matrix" values="0 0 0 0 0 0 0 0 0 0.212295 0 0 0 0 0.606558 0 0 0 0.2 0"/>
<feBlend mode="normal" in2="BackgroundImageFix" result="effect1_dropShadow_7053_23073"/>
<feBlend mode="normal" in="SourceGraphic" in2="effect1_dropShadow_7053_23073" result="shape"/>
</filter>
<linearGradient id="paint0_linear_7053_23073" x1="158" y1="0" x2="158" y2="55" gradientUnits="userSpaceOnUse">
<stop stop-color="white" stop-opacity="0"/>
<stop offset="1" stop-color="white"/>
</linearGradient>
<linearGradient id="paint1_linear_7053_23073" x1="210" y1="47" x2="210" y2="97" gradientUnits="userSpaceOnUse">
<stop stop-color="#015AA2"/>
<stop offset="1" stop-color="#00213C"/>
</linearGradient>
<clipPath id="clip0_7053_23073">
<rect width="316" height="190" fill="white"/>
</clipPath>
<clipPath id="clip1_7053_23073">
<rect x="30" y="23" width="234" height="134" rx="8" fill="white"/>
</clipPath>
<clipPath id="clip2_7053_23073">
<rect x="210" y="70" width="78" height="134" rx="8" fill="white"/>
</clipPath>
</defs>
</svg>
