<svg width="40" height="40" viewBox="0 0 40 40" fill="none" xmlns="http://www.w3.org/2000/svg">
<path d="M33.817 6.18748C32.2561 4.62677 30.1392 3.75 27.9319 3.75C25.7246 3.75 23.6077 4.62677 22.0467 6.18748L6.18736 22.0453C4.65938 23.6126 3.81041 25.7188 3.82439 27.9076C3.83836 30.0965 4.71415 32.1917 6.26203 33.7394C7.80991 35.287 9.90522 36.1625 12.0941 36.1762C14.2829 36.1899 16.389 35.3407 17.9561 33.8125L33.817 17.9547C35.3749 16.3929 36.2497 14.277 36.2497 12.0711C36.2497 9.86515 35.3749 7.74927 33.817 6.18748ZM32.0483 16.1875L24.1186 24.1156L15.8858 15.8844L23.8155 7.95466C24.9116 6.88392 26.3856 6.28844 27.9178 6.2974C29.4501 6.30635 30.917 6.919 32.0005 8.00248C33.084 9.08597 33.6966 10.5529 33.7056 12.0852C33.7145 13.6174 33.119 15.0914 32.0483 16.1875ZM29.6374 12.8656C29.7536 12.9817 29.8458 13.1196 29.9087 13.2713C29.9716 13.423 30.004 13.5857 30.004 13.75C30.004 13.9142 29.9716 14.0769 29.9087 14.2287C29.8458 14.3804 29.7536 14.5183 29.6374 14.6344L25.8874 18.3844C25.7712 18.5004 25.6334 18.5924 25.4817 18.6552C25.33 18.7179 25.1674 18.7502 25.0032 18.7501C24.839 18.75 24.6765 18.7176 24.5248 18.6547C24.3732 18.5919 24.2354 18.4997 24.1194 18.3836C24.0034 18.2674 23.9113 18.1296 23.8486 17.9779C23.7858 17.8262 23.7536 17.6636 23.7536 17.4994C23.7537 17.3353 23.7861 17.1727 23.849 17.0211C23.9119 16.8694 24.004 16.7316 24.1202 16.6156L27.8702 12.8656C28.1046 12.6314 28.4224 12.4998 28.7538 12.4998C29.0851 12.4998 29.403 12.6314 29.6374 12.8656Z" fill="url(#paint0_linear_7053_23003)"/>
<defs>
<linearGradient id="paint0_linear_7053_23003" x1="20.037" y1="3.75" x2="20.037" y2="36.1764" gradientUnits="userSpaceOnUse">
<stop stop-color="#2D8F00"/>
<stop offset="1" stop-color="#3EC500"/>
</linearGradient>
</defs>
</svg>
