<svg width="316" height="190" viewBox="0 0 316 190" fill="none" xmlns="http://www.w3.org/2000/svg">
<g clip-path="url(#clip0_7053_23428)">
<rect width="316" height="190" fill="white"/>
<g clip-path="url(#clip1_7053_23428)">
<rect x="-232" y="32" width="510" height="19.5882" rx="3.52941" fill="white"/>
<rect x="-224.941" y="37.2942" width="495.882" height="9" rx="3.52941" fill="white"/>
<path d="M38.5304 44.3696C37.2607 44.3696 36.4706 43.5071 36.4706 42.1017V42.0986C36.4706 40.7174 37.2607 39.8669 38.5153 39.8669C39.5468 39.8669 40.2163 40.4641 40.3822 41.2663L40.3942 41.3145H39.6041L39.595 41.2814C39.4291 40.8139 39.0522 40.5425 38.5184 40.5425C37.7342 40.5425 37.2638 41.1155 37.2638 42.0926V42.0956C37.2638 43.0939 37.7553 43.694 38.5395 43.694C39.1969 43.694 39.6493 43.2899 39.6644 42.6807L39.6674 42.6144H38.5877V42.0082H40.4274V42.4786C40.4274 43.6609 39.7217 44.3696 38.5304 44.3696ZM41.3864 40.639C41.1512 40.639 40.9672 40.452 40.9672 40.2288C40.9672 39.9996 41.1512 39.8156 41.3864 39.8156C41.6217 39.8156 41.8026 39.9996 41.8026 40.2288C41.8026 40.452 41.6217 40.639 41.3864 40.639ZM41.0094 44.2942V41.0974H41.7604V44.2942H41.0094ZM43.9409 40.7355H43.4161L43.9559 39.7523H44.6526L43.9409 40.7355ZM43.3437 44.3485C42.7044 44.3485 42.2731 43.9534 42.2731 43.3834V43.3774C42.2731 42.8104 42.7134 42.4696 43.4885 42.4213L44.3239 42.3701V42.1499C44.3239 41.8272 44.1128 41.6312 43.7328 41.6312C43.3769 41.6312 43.1598 41.7971 43.1115 42.0323L43.1055 42.0594H42.4088L42.4118 42.0233C42.4571 41.4563 42.9486 41.031 43.7599 41.031C44.5591 41.031 45.0748 41.4533 45.0748 42.0956V44.2942H44.3239V43.8026H44.3058C44.1218 44.1374 43.7659 44.3485 43.3437 44.3485ZM43.021 43.3532C43.021 43.6156 43.2382 43.7755 43.5669 43.7755C43.9982 43.7755 44.3239 43.489 44.3239 43.109V42.8677L43.594 42.9129C43.2231 42.9371 43.021 43.0969 43.021 43.3502V43.3532ZM48.7029 44.3575C48.2415 44.3575 47.8886 44.1283 47.7077 43.7513H47.6896V44.2942H46.9386V39.9423H47.6896V41.6463H47.7077C47.8886 41.2633 48.2535 41.031 48.7059 41.031C49.5081 41.031 50.0238 41.6613 50.0238 42.6928V42.6958C50.0238 43.7242 49.5111 44.3575 48.7029 44.3575ZM48.4767 43.7242C48.9592 43.7242 49.2578 43.3321 49.2578 42.6958V42.6928C49.2578 42.0564 48.9562 41.6644 48.4767 41.6644C48.0153 41.6644 47.6896 42.0685 47.6896 42.6928V42.6958C47.6896 43.3231 48.0123 43.7242 48.4767 43.7242ZM52.0475 40.7355H51.5227L52.0626 39.7523H52.7592L52.0475 40.7355ZM51.4503 44.3485C50.811 44.3485 50.3797 43.9534 50.3797 43.3834V43.3774C50.3797 42.8104 50.82 42.4696 51.5951 42.4213L52.4305 42.3701V42.1499C52.4305 41.8272 52.2194 41.6312 51.8394 41.6312C51.4835 41.6312 51.2664 41.7971 51.2181 42.0323L51.2121 42.0594H50.5154L50.5184 42.0233C50.5637 41.4563 51.0553 41.031 51.8665 41.031C52.6657 41.031 53.1814 41.4533 53.1814 42.0956V44.2942H52.4305V43.8026H52.4124C52.2284 44.1374 51.8726 44.3485 51.4503 44.3485ZM51.1276 43.3532C51.1276 43.6156 51.3448 43.7755 51.6735 43.7755C52.1048 43.7755 52.4305 43.489 52.4305 43.109V42.8677L51.7007 42.9129C51.3297 42.9371 51.1276 43.0969 51.1276 43.3502V43.3532ZM53.7876 44.2942V41.0974H54.5386V41.598H54.5537C54.7195 41.2542 55.0452 41.031 55.5308 41.031C56.2335 41.031 56.6346 41.4834 56.6346 42.2253V44.2942H55.8836V42.3761C55.8836 41.9207 55.6725 41.6644 55.2443 41.6644C54.813 41.6644 54.5386 41.978 54.5386 42.4394V44.2942H53.7876Z" fill="#1C1C1E"/>
<path d="M132.977 44.2942V40.5968H131.674V39.9423H135.052V40.5968H133.752V44.2942H132.977ZM136.955 39.701L136.264 38.8174H136.925L137.41 39.701H136.955ZM135.224 40.7506L135.935 39.8247H136.584L137.296 40.7506H136.723L136.255 40.1444L135.797 40.7506H135.224ZM136.364 44.3575C135.423 44.3575 134.817 43.7302 134.817 42.6958V42.6898C134.817 41.6644 135.432 41.031 136.361 41.031C137.293 41.031 137.911 41.6583 137.911 42.6898V42.6958C137.911 43.7332 137.302 44.3575 136.364 44.3575ZM136.367 43.7513C136.84 43.7513 137.145 43.3653 137.145 42.6958V42.6898C137.145 42.0233 136.837 41.6402 136.361 41.6402C135.893 41.6402 135.583 42.0263 135.583 42.6898V42.6958C135.583 43.3683 135.887 43.7513 136.367 43.7513ZM138.393 44.2942V41.0974H139.144V41.598H139.159C139.325 41.2542 139.651 41.031 140.137 41.031C140.839 41.031 141.24 41.4834 141.24 42.2253V44.2942H140.489V42.3761C140.489 41.9207 140.278 41.6644 139.85 41.6644C139.419 41.6644 139.144 41.978 139.144 42.4394V44.2942H138.393ZM143.113 44.2942V39.9423H143.864V42.4244H143.879L145.073 41.0974H145.942L144.675 42.4726L145.993 44.2942H145.128L144.117 42.919L143.864 43.1844V44.2942H143.113ZM146.304 44.2942V39.9423H147.055V41.6342H147.073C147.239 41.2512 147.58 41.031 148.059 41.031C148.747 41.031 149.187 41.5317 149.187 42.3037V44.2942H148.436V42.4515C148.436 41.9599 148.189 41.6644 147.758 41.6644C147.332 41.6644 147.055 41.9871 147.055 42.4515V44.2942H146.304ZM151.208 44.3575C150.267 44.3575 149.661 43.7302 149.661 42.6958V42.6898C149.661 41.6644 150.276 41.031 151.205 41.031C152.137 41.031 152.755 41.6583 152.755 42.6898V42.6958C152.755 43.7332 152.146 44.3575 151.208 44.3575ZM151.211 43.7513C151.684 43.7513 151.989 43.3653 151.989 42.6958V42.6898C151.989 42.0233 151.681 41.6402 151.205 41.6402C150.737 41.6402 150.427 42.0263 150.427 42.6898V42.6958C150.427 43.3683 150.731 43.7513 151.211 43.7513Z" fill="#1C1C1E"/>
<path d="M228.271 44.2942V40.5968H226.968V39.9423H230.346V40.5968H229.046V44.2942H228.271ZM230.291 44.2942V41.0974H231.042V41.6493H231.058C231.157 41.2633 231.422 41.031 231.79 41.031C231.884 41.031 231.971 41.0461 232.029 41.0612V41.7398C231.965 41.7156 231.851 41.6975 231.724 41.6975C231.299 41.6975 231.042 41.9659 231.042 42.4394V44.2942H230.291ZM233.286 44.3485C232.647 44.3485 232.216 43.9534 232.216 43.3834V43.3774C232.216 42.8104 232.656 42.4696 233.431 42.4213L234.266 42.3701V42.1499C234.266 41.8272 234.055 41.6312 233.675 41.6312C233.319 41.6312 233.102 41.7971 233.054 42.0323L233.048 42.0594H232.351L232.354 42.0233C232.4 41.4563 232.891 41.031 233.702 41.031C234.502 41.031 235.017 41.4533 235.017 42.0956V44.2942H234.266V43.8026H234.248C234.064 44.1374 233.708 44.3485 233.286 44.3485ZM232.964 43.3532C232.964 43.6156 233.181 43.7755 233.509 43.7755C233.941 43.7755 234.266 43.489 234.266 43.109V42.8677L233.537 42.9129C233.166 42.9371 232.964 43.0969 232.964 43.3502V43.3532ZM233.696 45.5729C233.461 45.5729 233.277 45.3859 233.277 45.1628C233.277 44.9366 233.461 44.7526 233.696 44.7526C233.932 44.7526 234.113 44.9366 234.113 45.1628C234.113 45.3859 233.932 45.5729 233.696 45.5729ZM235.624 44.2942V41.0974H236.374V41.598H236.39C236.555 41.2542 236.881 41.031 237.367 41.031C238.069 41.031 238.47 41.4834 238.47 42.2253V44.2942H237.72V42.3761C237.72 41.9207 237.508 41.6644 237.08 41.6644C236.649 41.6644 236.374 41.978 236.374 42.4394V44.2942H235.624ZM240.515 45.4131C239.668 45.4131 239.134 45.027 239.043 44.5264L239.037 44.4993H239.776L239.785 44.5234C239.867 44.7074 240.123 44.8461 240.515 44.8461C241.004 44.8461 241.272 44.5867 241.272 44.1796V43.7182H241.257C241.079 44.059 240.717 44.2761 240.259 44.2761C239.457 44.2761 238.941 43.6609 238.941 42.6656V42.6626C238.941 41.6523 239.463 41.031 240.271 41.031C240.723 41.031 241.073 41.2723 241.254 41.6402H241.272V41.0974H242.023V44.2037C242.023 44.9275 241.441 45.4131 240.515 45.4131ZM240.494 43.6971C240.962 43.6971 241.275 43.302 241.275 42.6807V42.6777C241.275 42.0594 240.959 41.6644 240.494 41.6644C240.012 41.6644 239.707 42.0534 239.707 42.6747V42.6777C239.707 43.308 240.012 43.6971 240.494 43.6971ZM245.063 44.3575C244.394 44.3575 244.077 44.0861 244.077 43.4286V41.6764H243.625V41.0974H244.077V40.2861H244.84V41.0974H245.434V41.6764H244.84V43.3653C244.84 43.679 244.979 43.7785 245.253 43.7785C245.326 43.7785 245.383 43.7694 245.434 43.7664V44.3304C245.347 44.3424 245.214 44.3575 245.063 44.3575ZM245.971 44.2942V39.9423H246.722V41.6342H246.74C246.906 41.2512 247.247 41.031 247.726 41.031C248.414 41.031 248.854 41.5317 248.854 42.3037V44.2942H248.103V42.4515C248.103 41.9599 247.856 41.6644 247.425 41.6644C246.999 41.6644 246.722 41.9871 246.722 42.4515V44.2942H245.971ZM251.001 40.7355H250.477L251.016 39.7523H251.713L251.001 40.7355ZM250.404 44.3485C249.765 44.3485 249.334 43.9534 249.334 43.3834V43.3774C249.334 42.8104 249.774 42.4696 250.549 42.4213L251.384 42.3701V42.1499C251.384 41.8272 251.173 41.6312 250.793 41.6312C250.437 41.6312 250.22 41.7971 250.172 42.0323L250.166 42.0594H249.469L249.472 42.0233C249.518 41.4563 250.009 41.031 250.82 41.031C251.62 41.031 252.135 41.4533 252.135 42.0956V44.2942H251.384V43.8026H251.366C251.182 44.1374 250.826 44.3485 250.404 44.3485ZM250.082 43.3532C250.082 43.6156 250.299 43.7755 250.627 43.7755C251.059 43.7755 251.384 43.489 251.384 43.109V42.8677L250.655 42.9129C250.284 42.9371 250.082 43.0969 250.082 43.3502V43.3532ZM253.14 40.639C252.904 40.639 252.72 40.452 252.72 40.2288C252.72 39.9996 252.904 39.8156 253.14 39.8156C253.375 39.8156 253.556 39.9996 253.556 40.2288C253.556 40.452 253.375 40.639 253.14 40.639ZM252.763 44.2942V41.0974H253.514V44.2942H252.763Z" fill="#1C1C1E"/>
<rect x="-232" y="53.353" width="510" height="292.941" rx="5.29412" fill="white"/>
<rect x="-224.941" y="58.6472" width="495.882" height="25.0588" rx="3.52941" fill="white"/>
<rect x="36.4559" y="62.5736" width="55.1471" height="17.2059" rx="3.30882" fill="white"/>
<rect x="36.4559" y="62.5736" width="55.1471" height="17.2059" rx="3.30882" stroke="#E5E5EA" stroke-width="0.441176"/>
<path d="M41.8822 73.6765V73.3025L43.4142 71.7041C44.0023 71.0919 44.138 70.8567 44.138 70.4948V70.4888C44.135 70.0454 43.8002 69.7257 43.3267 69.7257C42.7839 69.7257 42.3798 70.0997 42.3798 70.5672V70.5822H41.855V70.5642C41.855 69.8102 42.5064 69.2523 43.3177 69.2523C44.1048 69.2523 44.6809 69.78 44.6809 70.4616V70.4676C44.6809 70.9441 44.4607 71.303 43.6615 72.1203L42.6271 73.1819V73.194H44.7532V73.6765H41.8822ZM46.8764 73.7489C46.044 73.7489 45.4499 73.2302 45.3866 72.5214L45.3836 72.4883H45.9174L45.9204 72.5124C45.9747 72.9437 46.3607 73.2724 46.8824 73.2724C47.4735 73.2724 47.8837 72.8622 47.8837 72.2772V72.2711C47.8807 71.6981 47.4675 71.288 46.8915 71.288C46.5959 71.288 46.3426 71.3754 46.1496 71.5503C46.0712 71.6227 46.0018 71.7072 45.9445 71.8067H45.465L45.6882 69.3246H48.1793V69.8072H46.1345L45.9867 71.2699H45.9988C46.2039 70.9773 46.5658 70.8205 46.988 70.8205C47.8234 70.8205 48.4266 71.4267 48.4266 72.2621V72.2681C48.4235 73.1397 47.7812 73.7489 46.8764 73.7489ZM49.3042 73.7187C49.1112 73.7187 48.9604 73.5679 48.9604 73.3749C48.9604 73.1819 49.1112 73.0311 49.3042 73.0311C49.4972 73.0311 49.648 73.1819 49.648 73.3749C49.648 73.5679 49.4972 73.7187 49.3042 73.7187ZM51.8375 73.7489C50.8362 73.7489 50.2421 72.8833 50.2421 71.5021V71.4961C50.2421 70.1148 50.8362 69.2523 51.8375 69.2523C52.8388 69.2523 53.4389 70.1148 53.4389 71.4961V71.5021C53.4389 72.8833 52.8388 73.7489 51.8375 73.7489ZM51.8375 73.2754C52.501 73.2754 52.893 72.5938 52.893 71.5021V71.4961C52.893 70.4043 52.501 69.7288 51.8375 69.7288C51.174 69.7288 50.788 70.4043 50.788 71.4961V71.5021C50.788 72.5938 51.174 73.2754 51.8375 73.2754ZM55.5832 73.7489C54.5819 73.7489 53.9878 72.8833 53.9878 71.5021V71.4961C53.9878 70.1148 54.5819 69.2523 55.5832 69.2523C56.5844 69.2523 57.1846 70.1148 57.1846 71.4961V71.5021C57.1846 72.8833 56.5844 73.7489 55.5832 73.7489ZM55.5832 73.2754C56.2467 73.2754 56.6387 72.5938 56.6387 71.5021V71.4961C56.6387 70.4043 56.2467 69.7288 55.5832 69.7288C54.9197 69.7288 54.5337 70.4043 54.5337 71.4961V71.5021C54.5337 72.5938 54.9197 73.2754 55.5832 73.2754ZM59.3289 73.7489C58.3276 73.7489 57.7335 72.8833 57.7335 71.5021V71.4961C57.7335 70.1148 58.3276 69.2523 59.3289 69.2523C60.3301 69.2523 60.9303 70.1148 60.9303 71.4961V71.5021C60.9303 72.8833 60.3301 73.7489 59.3289 73.7489ZM59.3289 73.2754C59.9924 73.2754 60.3844 72.5938 60.3844 71.5021V71.4961C60.3844 70.4043 59.9924 69.7288 59.3289 69.7288C58.6654 69.7288 58.2794 70.4043 58.2794 71.4961V71.5021C58.2794 72.5938 58.6654 73.2754 59.3289 73.2754Z" fill="#2C2C2E"/>
<path d="M84.5086 73.7368C83.7064 73.7368 83.1756 73.0975 83.1756 72.1083V72.1053C83.1756 71.1161 83.7124 70.4797 84.4996 70.4797C84.9429 70.4797 85.3078 70.7029 85.5038 71.0648H85.5159V70.1238H84.9127V69.7499H85.5159V69.3246H86.0407V69.7499H86.4086V70.1238H86.0407V73.6765H85.5159V73.1457H85.5038C85.3078 73.5106 84.958 73.7368 84.5086 73.7368ZM84.6112 73.2724C85.1419 73.2724 85.5189 72.811 85.5189 72.1083V72.1053C85.5189 71.4056 85.1389 70.9441 84.6112 70.9441C84.0562 70.9441 83.7124 71.3905 83.7124 72.1053V72.1083C83.7124 72.8291 84.0562 73.2724 84.6112 73.2724Z" fill="#2C2C2E"/>
<path d="M133.414 69.2523C134.216 69.2523 135.067 69.8072 135.067 71.4207V71.4267C135.067 72.8924 134.443 73.7489 133.378 73.7489C132.639 73.7489 132.087 73.3267 131.942 72.6933L131.933 72.6541H132.485L132.497 72.6873C132.627 73.0462 132.938 73.2694 133.384 73.2694C134.195 73.2694 134.515 72.4822 134.539 71.5684C134.542 71.5383 134.542 71.5081 134.542 71.4749H134.53C134.355 71.861 133.909 72.1746 133.318 72.1746C132.488 72.1746 131.873 71.5624 131.873 70.7361V70.73C131.873 69.8735 132.525 69.2523 133.414 69.2523ZM133.411 71.6981C133.981 71.6981 134.412 71.294 134.412 70.7391V70.7361C134.412 70.1781 133.978 69.7348 133.42 69.7348C132.865 69.7348 132.425 70.1691 132.425 70.718V70.724C132.425 71.291 132.838 71.6981 133.411 71.6981ZM135.634 73.6765V73.3025L137.166 71.7041C137.754 71.0919 137.89 70.8567 137.89 70.4948V70.4888C137.887 70.0454 137.552 69.7257 137.078 69.7257C136.536 69.7257 136.131 70.0997 136.131 70.5672V70.5822H135.607V70.5642C135.607 69.8102 136.258 69.2523 137.069 69.2523C137.857 69.2523 138.433 69.78 138.433 70.4616V70.4676C138.433 70.9441 138.212 71.303 137.413 72.1203L136.379 73.1819V73.194H138.505V73.6765H135.634Z" fill="#717176"/>
<rect x="226.823" y="66.5442" width="16.3235" height="9.26471" rx="4.63235" fill="#015AA2"/>
<g filter="url(#filter0_d_7053_23428)">
<circle cx="238.073" cy="71.1765" r="3.30882" fill="white"/>
</g>
<rect x="-224.941" y="87.2354" width="495.882" height="25.0588" rx="3.52941" fill="white"/>
<rect x="36.4559" y="91.1618" width="55.1471" height="17.2059" rx="3.30882" fill="white"/>
<rect x="36.4559" y="91.1618" width="55.1471" height="17.2059" rx="3.30882" stroke="#E5E5EA" stroke-width="0.441176"/>
<path d="M41.8822 102.265V101.891L43.4142 100.292C44.0023 99.6801 44.138 99.4448 44.138 99.0829V99.0769C44.135 98.6336 43.8002 98.3139 43.3267 98.3139C42.7839 98.3139 42.3798 98.6878 42.3798 99.1553V99.1704H41.855V99.1523C41.855 98.3983 42.5064 97.8404 43.3177 97.8404C44.1048 97.8404 44.6809 98.3682 44.6809 99.0497V99.0558C44.6809 99.5323 44.4607 99.8912 43.6615 100.708L42.6271 101.77V101.782H44.7532V102.265H41.8822ZM46.8764 102.337C46.044 102.337 45.4499 101.818 45.3866 101.11L45.3836 101.076H45.9174L45.9204 101.101C45.9747 101.532 46.3607 101.861 46.8824 101.861C47.4735 101.861 47.8837 101.45 47.8837 100.865V100.859C47.8807 100.286 47.4675 99.8761 46.8915 99.8761C46.5959 99.8761 46.3426 99.9636 46.1496 100.138C46.0712 100.211 46.0018 100.295 45.9445 100.395H45.465L45.6882 97.9128H48.1793V98.3953H46.1345L45.9867 99.858H45.9988C46.2039 99.5655 46.5658 99.4086 46.988 99.4086C47.8234 99.4086 48.4266 100.015 48.4266 100.85V100.856C48.4235 101.728 47.7812 102.337 46.8764 102.337ZM49.3042 102.307C49.1112 102.307 48.9604 102.156 48.9604 101.963C48.9604 101.77 49.1112 101.619 49.3042 101.619C49.4972 101.619 49.648 101.77 49.648 101.963C49.648 102.156 49.4972 102.307 49.3042 102.307ZM51.8375 102.337C50.8362 102.337 50.2421 101.471 50.2421 100.09V100.084C50.2421 98.7029 50.8362 97.8404 51.8375 97.8404C52.8388 97.8404 53.4389 98.7029 53.4389 100.084V100.09C53.4389 101.471 52.8388 102.337 51.8375 102.337ZM51.8375 101.864C52.501 101.864 52.893 101.182 52.893 100.09V100.084C52.893 98.9924 52.501 98.3169 51.8375 98.3169C51.174 98.3169 50.788 98.9924 50.788 100.084V100.09C50.788 101.182 51.174 101.864 51.8375 101.864ZM55.5832 102.337C54.5819 102.337 53.9878 101.471 53.9878 100.09V100.084C53.9878 98.7029 54.5819 97.8404 55.5832 97.8404C56.5844 97.8404 57.1846 98.7029 57.1846 100.084V100.09C57.1846 101.471 56.5844 102.337 55.5832 102.337ZM55.5832 101.864C56.2467 101.864 56.6387 101.182 56.6387 100.09V100.084C56.6387 98.9924 56.2467 98.3169 55.5832 98.3169C54.9197 98.3169 54.5337 98.9924 54.5337 100.084V100.09C54.5337 101.182 54.9197 101.864 55.5832 101.864ZM59.3289 102.337C58.3276 102.337 57.7335 101.471 57.7335 100.09V100.084C57.7335 98.7029 58.3276 97.8404 59.3289 97.8404C60.3301 97.8404 60.9303 98.7029 60.9303 100.084V100.09C60.9303 101.471 60.3301 102.337 59.3289 102.337ZM59.3289 101.864C59.9924 101.864 60.3844 101.182 60.3844 100.09V100.084C60.3844 98.9924 59.9924 98.3169 59.3289 98.3169C58.6654 98.3169 58.2794 98.9924 58.2794 100.084V100.09C58.2794 101.182 58.6654 101.864 59.3289 101.864Z" fill="#2C2C2E"/>
<path d="M84.5086 102.325C83.7064 102.325 83.1756 101.686 83.1756 100.696V100.693C83.1756 99.7042 83.7124 99.0678 84.4996 99.0678C84.9429 99.0678 85.3078 99.291 85.5038 99.6529H85.5159V98.712H84.9127V98.338H85.5159V97.9128H86.0407V98.338H86.4086V98.712H86.0407V102.265H85.5159V101.734H85.5038C85.3078 102.099 84.958 102.325 84.5086 102.325ZM84.6112 101.861C85.1419 101.861 85.5189 101.399 85.5189 100.696V100.693C85.5189 99.9937 85.1389 99.5323 84.6112 99.5323C84.0562 99.5323 83.7124 99.9786 83.7124 100.693V100.696C83.7124 101.417 84.0562 101.861 84.6112 101.861Z" fill="#2C2C2E"/>
<path d="M133.414 97.8404C134.216 97.8404 135.067 98.3953 135.067 100.009V100.015C135.067 101.481 134.443 102.337 133.378 102.337C132.639 102.337 132.087 101.915 131.942 101.281L131.933 101.242H132.485L132.497 101.275C132.627 101.634 132.938 101.858 133.384 101.858C134.195 101.858 134.515 101.07 134.539 100.157C134.542 100.126 134.542 100.096 134.542 100.063H134.53C134.355 100.449 133.909 100.763 133.318 100.763C132.488 100.763 131.873 100.151 131.873 99.3242V99.3182C131.873 98.4617 132.525 97.8404 133.414 97.8404ZM133.411 100.286C133.981 100.286 134.412 99.8821 134.412 99.3272V99.3242C134.412 98.7663 133.978 98.3229 133.42 98.3229C132.865 98.3229 132.425 98.7572 132.425 99.3061V99.3121C132.425 99.8791 132.838 100.286 133.411 100.286ZM135.634 102.265V101.891L137.166 100.292C137.754 99.6801 137.89 99.4448 137.89 99.0829V99.0769C137.887 98.6336 137.552 98.3139 137.078 98.3139C136.536 98.3139 136.131 98.6878 136.131 99.1553V99.1704H135.607V99.1523C135.607 98.3983 136.258 97.8404 137.069 97.8404C137.857 97.8404 138.433 98.3682 138.433 99.0497V99.0558C138.433 99.5323 138.212 99.8912 137.413 100.708L136.379 101.77V101.782H138.505V102.265H135.634Z" fill="#717176"/>
<rect x="226.823" y="95.1323" width="16.3235" height="9.26471" rx="4.63235" fill="#015AA2"/>
<g filter="url(#filter1_d_7053_23428)">
<circle cx="238.073" cy="99.7646" r="3.30882" fill="white"/>
</g>
<rect x="-224.941" y="115.824" width="495.882" height="25.0588" rx="3.52941" fill="white"/>
<rect x="36.4559" y="119.75" width="55.1471" height="17.2059" rx="3.30882" fill="white"/>
<rect x="36.4559" y="119.75" width="55.1471" height="17.2059" rx="3.30882" stroke="#E5E5EA" stroke-width="0.441176"/>
<path d="M41.8822 130.853V130.479L43.4142 128.881C44.0023 128.268 44.138 128.033 44.138 127.671V127.665C44.135 127.222 43.8002 126.902 43.3267 126.902C42.7839 126.902 42.3798 127.276 42.3798 127.744V127.759H41.855V127.741C41.855 126.987 42.5064 126.429 43.3177 126.429C44.1048 126.429 44.6809 126.957 44.6809 127.638V127.644C44.6809 128.121 44.4607 128.48 43.6615 129.297L42.6271 130.358V130.37H44.7532V130.853H41.8822ZM46.8764 130.925C46.044 130.925 45.4499 130.407 45.3866 129.698L45.3836 129.665H45.9174L45.9204 129.689C45.9747 130.12 46.3607 130.449 46.8824 130.449C47.4735 130.449 47.8837 130.039 47.8837 129.454V129.448C47.8807 128.875 47.4675 128.464 46.8915 128.464C46.5959 128.464 46.3426 128.552 46.1496 128.727C46.0712 128.799 46.0018 128.884 45.9445 128.983H45.465L45.6882 126.501H48.1793V126.984H46.1345L45.9867 128.446H45.9988C46.2039 128.154 46.5658 127.997 46.988 127.997C47.8234 127.997 48.4266 128.603 48.4266 129.439V129.445C48.4235 130.316 47.7812 130.925 46.8764 130.925ZM49.3042 130.895C49.1112 130.895 48.9604 130.744 48.9604 130.551C48.9604 130.358 49.1112 130.208 49.3042 130.208C49.4972 130.208 49.648 130.358 49.648 130.551C49.648 130.744 49.4972 130.895 49.3042 130.895ZM51.8375 130.925C50.8362 130.925 50.2421 130.06 50.2421 128.679V128.673C50.2421 127.291 50.8362 126.429 51.8375 126.429C52.8388 126.429 53.4389 127.291 53.4389 128.673V128.679C53.4389 130.06 52.8388 130.925 51.8375 130.925ZM51.8375 130.452C52.501 130.452 52.893 129.77 52.893 128.679V128.673C52.893 127.581 52.501 126.905 51.8375 126.905C51.174 126.905 50.788 127.581 50.788 128.673V128.679C50.788 129.77 51.174 130.452 51.8375 130.452ZM55.5832 130.925C54.5819 130.925 53.9878 130.06 53.9878 128.679V128.673C53.9878 127.291 54.5819 126.429 55.5832 126.429C56.5844 126.429 57.1846 127.291 57.1846 128.673V128.679C57.1846 130.06 56.5844 130.925 55.5832 130.925ZM55.5832 130.452C56.2467 130.452 56.6387 129.77 56.6387 128.679V128.673C56.6387 127.581 56.2467 126.905 55.5832 126.905C54.9197 126.905 54.5337 127.581 54.5337 128.673V128.679C54.5337 129.77 54.9197 130.452 55.5832 130.452ZM59.3289 130.925C58.3276 130.925 57.7335 130.06 57.7335 128.679V128.673C57.7335 127.291 58.3276 126.429 59.3289 126.429C60.3301 126.429 60.9303 127.291 60.9303 128.673V128.679C60.9303 130.06 60.3301 130.925 59.3289 130.925ZM59.3289 130.452C59.9924 130.452 60.3844 129.77 60.3844 128.679V128.673C60.3844 127.581 59.9924 126.905 59.3289 126.905C58.6654 126.905 58.2794 127.581 58.2794 128.673V128.679C58.2794 129.77 58.6654 130.452 59.3289 130.452Z" fill="#2C2C2E"/>
<path d="M84.5086 130.913C83.7064 130.913 83.1756 130.274 83.1756 129.285V129.282C83.1756 128.293 83.7124 127.656 84.4996 127.656C84.9429 127.656 85.3078 127.879 85.5038 128.241H85.5159V127.3H84.9127V126.926H85.5159V126.501H86.0407V126.926H86.4086V127.3H86.0407V130.853H85.5159V130.322H85.5038C85.3078 130.687 84.958 130.913 84.5086 130.913ZM84.6112 130.449C85.1419 130.449 85.5189 129.987 85.5189 129.285V129.282C85.5189 128.582 85.1389 128.121 84.6112 128.121C84.0562 128.121 83.7124 128.567 83.7124 129.282V129.285C83.7124 130.006 84.0562 130.449 84.6112 130.449Z" fill="#2C2C2E"/>
<path d="M133.414 126.429C134.216 126.429 135.067 126.984 135.067 128.597V128.603C135.067 130.069 134.443 130.925 133.378 130.925C132.639 130.925 132.087 130.503 131.942 129.87L131.933 129.831H132.485L132.497 129.864C132.627 130.223 132.938 130.446 133.384 130.446C134.195 130.446 134.515 129.659 134.539 128.745C134.542 128.715 134.542 128.685 134.542 128.651H134.53C134.355 129.037 133.909 129.351 133.318 129.351C132.488 129.351 131.873 128.739 131.873 127.913V127.907C131.873 127.05 132.525 126.429 133.414 126.429ZM133.411 128.875C133.981 128.875 134.412 128.471 134.412 127.916V127.913C134.412 127.355 133.978 126.911 133.42 126.911C132.865 126.911 132.425 127.346 132.425 127.894V127.901C132.425 128.467 132.838 128.875 133.411 128.875ZM135.634 130.853V130.479L137.166 128.881C137.754 128.268 137.89 128.033 137.89 127.671V127.665C137.887 127.222 137.552 126.902 137.078 126.902C136.536 126.902 136.131 127.276 136.131 127.744V127.759H135.607V127.741C135.607 126.987 136.258 126.429 137.069 126.429C137.857 126.429 138.433 126.957 138.433 127.638V127.644C138.433 128.121 138.212 128.48 137.413 129.297L136.379 130.358V130.37H138.505V130.853H135.634Z" fill="#717176"/>
<rect x="226.823" y="123.721" width="16.3235" height="9.26471" rx="4.63235" fill="#015AA2"/>
<g filter="url(#filter2_d_7053_23428)">
<circle cx="238.073" cy="128.353" r="3.30882" fill="white"/>
</g>
<rect x="-224.941" y="144.412" width="495.882" height="25.0588" rx="3.52941" fill="white"/>
<rect x="36.4559" y="148.338" width="55.1471" height="17.2059" rx="3.30882" fill="white"/>
<rect x="36.4559" y="148.338" width="55.1471" height="17.2059" rx="3.30882" stroke="#E5E5EA" stroke-width="0.441176"/>
<path d="M41.8822 159.441V159.067L43.4142 157.469C44.0023 156.857 44.138 156.621 44.138 156.259V156.253C44.135 155.81 43.8002 155.49 43.3267 155.49C42.7839 155.49 42.3798 155.864 42.3798 156.332V156.347H41.855V156.329C41.855 155.575 42.5064 155.017 43.3177 155.017C44.1048 155.017 44.6809 155.545 44.6809 156.226V156.232C44.6809 156.709 44.4607 157.068 43.6615 157.885L42.6271 158.947V158.959H44.7532V159.441H41.8822ZM46.8764 159.514C46.044 159.514 45.4499 158.995 45.3866 158.286L45.3836 158.253H45.9174L45.9204 158.277C45.9747 158.708 46.3607 159.037 46.8824 159.037C47.4735 159.037 47.8837 158.627 47.8837 158.042V158.036C47.8807 157.463 47.4675 157.053 46.8915 157.053C46.5959 157.053 46.3426 157.14 46.1496 157.315C46.0712 157.387 46.0018 157.472 45.9445 157.571H45.465L45.6882 155.089H48.1793V155.572H46.1345L45.9867 157.035H45.9988C46.2039 156.742 46.5658 156.585 46.988 156.585C47.8234 156.585 48.4266 157.191 48.4266 158.027V158.033C48.4235 158.904 47.7812 159.514 46.8764 159.514ZM49.3042 159.483C49.1112 159.483 48.9604 159.333 48.9604 159.14C48.9604 158.947 49.1112 158.796 49.3042 158.796C49.4972 158.796 49.648 158.947 49.648 159.14C49.648 159.333 49.4972 159.483 49.3042 159.483ZM51.8375 159.514C50.8362 159.514 50.2421 158.648 50.2421 157.267V157.261C50.2421 155.879 50.8362 155.017 51.8375 155.017C52.8388 155.017 53.4389 155.879 53.4389 157.261V157.267C53.4389 158.648 52.8388 159.514 51.8375 159.514ZM51.8375 159.04C52.501 159.04 52.893 158.358 52.893 157.267V157.261C52.893 156.169 52.501 155.493 51.8375 155.493C51.174 155.493 50.788 156.169 50.788 157.261V157.267C50.788 158.358 51.174 159.04 51.8375 159.04ZM55.5832 159.514C54.5819 159.514 53.9878 158.648 53.9878 157.267V157.261C53.9878 155.879 54.5819 155.017 55.5832 155.017C56.5844 155.017 57.1846 155.879 57.1846 157.261V157.267C57.1846 158.648 56.5844 159.514 55.5832 159.514ZM55.5832 159.04C56.2467 159.04 56.6387 158.358 56.6387 157.267V157.261C56.6387 156.169 56.2467 155.493 55.5832 155.493C54.9197 155.493 54.5337 156.169 54.5337 157.261V157.267C54.5337 158.358 54.9197 159.04 55.5832 159.04ZM59.3289 159.514C58.3276 159.514 57.7335 158.648 57.7335 157.267V157.261C57.7335 155.879 58.3276 155.017 59.3289 155.017C60.3301 155.017 60.9303 155.879 60.9303 157.261V157.267C60.9303 158.648 60.3301 159.514 59.3289 159.514ZM59.3289 159.04C59.9924 159.04 60.3844 158.358 60.3844 157.267V157.261C60.3844 156.169 59.9924 155.493 59.3289 155.493C58.6654 155.493 58.2794 156.169 58.2794 157.261V157.267C58.2794 158.358 58.6654 159.04 59.3289 159.04Z" fill="#2C2C2E"/>
<path d="M84.5086 159.501C83.7064 159.501 83.1756 158.862 83.1756 157.873V157.87C83.1756 156.881 83.7124 156.244 84.4996 156.244C84.9429 156.244 85.3078 156.468 85.5038 156.829H85.5159V155.888H84.9127V155.515H85.5159V155.089H86.0407V155.515H86.4086V155.888H86.0407V159.441H85.5159V158.91H85.5038C85.3078 159.275 84.958 159.501 84.5086 159.501ZM84.6112 159.037C85.1419 159.037 85.5189 158.576 85.5189 157.873V157.87C85.5189 157.17 85.1389 156.709 84.6112 156.709C84.0562 156.709 83.7124 157.155 83.7124 157.87V157.873C83.7124 158.594 84.0562 159.037 84.6112 159.037Z" fill="#2C2C2E"/>
<path d="M133.414 155.017C134.216 155.017 135.067 155.572 135.067 157.185V157.191C135.067 158.657 134.443 159.514 133.378 159.514C132.639 159.514 132.087 159.091 131.942 158.458L131.933 158.419H132.485L132.497 158.452C132.627 158.811 132.938 159.034 133.384 159.034C134.195 159.034 134.515 158.247 134.539 157.333C134.542 157.303 134.542 157.273 134.542 157.24H134.53C134.355 157.626 133.909 157.939 133.318 157.939C132.488 157.939 131.873 157.327 131.873 156.501V156.495C131.873 155.638 132.525 155.017 133.414 155.017ZM133.411 157.463C133.981 157.463 134.412 157.059 134.412 156.504V156.501C134.412 155.943 133.978 155.499 133.42 155.499C132.865 155.499 132.425 155.934 132.425 156.483V156.489C132.425 157.056 132.838 157.463 133.411 157.463ZM135.634 159.441V159.067L137.166 157.469C137.754 156.857 137.89 156.621 137.89 156.259V156.253C137.887 155.81 137.552 155.49 137.078 155.49C136.536 155.49 136.131 155.864 136.131 156.332V156.347H135.607V156.329C135.607 155.575 136.258 155.017 137.069 155.017C137.857 155.017 138.433 155.545 138.433 156.226V156.232C138.433 156.709 138.212 157.068 137.413 157.885L136.379 158.947V158.959H138.505V159.441H135.634Z" fill="#717176"/>
<rect x="226.823" y="152.309" width="16.3235" height="9.26471" rx="4.63235" fill="#015AA2"/>
<g filter="url(#filter3_d_7053_23428)">
<circle cx="238.073" cy="156.941" r="3.30882" fill="white"/>
</g>
<rect x="-224.941" y="173" width="495.882" height="25.0588" rx="3.52941" fill="white"/>
<rect x="36.4559" y="176.926" width="55.1471" height="17.2059" rx="3.30882" fill="white"/>
<rect x="36.4559" y="176.926" width="55.1471" height="17.2059" rx="3.30882" stroke="#E5E5EA" stroke-width="0.441176"/>
<path d="M41.8822 188.029V187.655L43.4142 186.057C44.0023 185.445 44.138 185.209 44.138 184.848V184.842C44.135 184.398 43.8002 184.079 43.3267 184.079C42.7839 184.079 42.3798 184.452 42.3798 184.92V184.935H41.855V184.917C41.855 184.163 42.5064 183.605 43.3177 183.605C44.1048 183.605 44.6809 184.133 44.6809 184.814V184.82C44.6809 185.297 44.4607 185.656 43.6615 186.473L42.6271 187.535V187.547H44.7532V188.029H41.8822ZM46.8764 188.102C46.044 188.102 45.4499 187.583 45.3866 186.874L45.3836 186.841H45.9174L45.9204 186.865C45.9747 187.296 46.3607 187.625 46.8824 187.625C47.4735 187.625 47.8837 187.215 47.8837 186.63V186.624C47.8807 186.051 47.4675 185.641 46.8915 185.641C46.5959 185.641 46.3426 185.728 46.1496 185.903C46.0712 185.975 46.0018 186.06 45.9445 186.159H45.465L45.6882 183.677H48.1793V184.16H46.1345L45.9867 185.623H45.9988C46.2039 185.33 46.5658 185.173 46.988 185.173C47.8234 185.173 48.4266 185.779 48.4266 186.615V186.621C48.4235 187.492 47.7812 188.102 46.8764 188.102ZM49.3042 188.072C49.1112 188.072 48.9604 187.921 48.9604 187.728C48.9604 187.535 49.1112 187.384 49.3042 187.384C49.4972 187.384 49.648 187.535 49.648 187.728C49.648 187.921 49.4972 188.072 49.3042 188.072ZM51.8375 188.102C50.8362 188.102 50.2421 187.236 50.2421 185.855V185.849C50.2421 184.468 50.8362 183.605 51.8375 183.605C52.8388 183.605 53.4389 184.468 53.4389 185.849V185.855C53.4389 187.236 52.8388 188.102 51.8375 188.102ZM51.8375 187.628C52.501 187.628 52.893 186.947 52.893 185.855V185.849C52.893 184.757 52.501 184.082 51.8375 184.082C51.174 184.082 50.788 184.757 50.788 185.849V185.855C50.788 186.947 51.174 187.628 51.8375 187.628ZM55.5832 188.102C54.5819 188.102 53.9878 187.236 53.9878 185.855V185.849C53.9878 184.468 54.5819 183.605 55.5832 183.605C56.5844 183.605 57.1846 184.468 57.1846 185.849V185.855C57.1846 187.236 56.5844 188.102 55.5832 188.102ZM55.5832 187.628C56.2467 187.628 56.6387 186.947 56.6387 185.855V185.849C56.6387 184.757 56.2467 184.082 55.5832 184.082C54.9197 184.082 54.5337 184.757 54.5337 185.849V185.855C54.5337 186.947 54.9197 187.628 55.5832 187.628ZM59.3289 188.102C58.3276 188.102 57.7335 187.236 57.7335 185.855V185.849C57.7335 184.468 58.3276 183.605 59.3289 183.605C60.3301 183.605 60.9303 184.468 60.9303 185.849V185.855C60.9303 187.236 60.3301 188.102 59.3289 188.102ZM59.3289 187.628C59.9924 187.628 60.3844 186.947 60.3844 185.855V185.849C60.3844 184.757 59.9924 184.082 59.3289 184.082C58.6654 184.082 58.2794 184.757 58.2794 185.849V185.855C58.2794 186.947 58.6654 187.628 59.3289 187.628Z" fill="#2C2C2E"/>
<path d="M84.5086 188.09C83.7064 188.09 83.1756 187.45 83.1756 186.461V186.458C83.1756 185.469 83.7124 184.832 84.4996 184.832C84.9429 184.832 85.3078 185.056 85.5038 185.418H85.5159V184.477H84.9127V184.103H85.5159V183.677H86.0407V184.103H86.4086V184.477H86.0407V188.029H85.5159V187.499H85.5038C85.3078 187.863 84.958 188.09 84.5086 188.09ZM84.6112 187.625C85.1419 187.625 85.5189 187.164 85.5189 186.461V186.458C85.5189 185.758 85.1389 185.297 84.6112 185.297C84.0562 185.297 83.7124 185.743 83.7124 186.458V186.461C83.7124 187.182 84.0562 187.625 84.6112 187.625Z" fill="#2C2C2E"/>
<path d="M133.414 183.605C134.216 183.605 135.067 184.16 135.067 185.773V185.779C135.067 187.245 134.443 188.102 133.378 188.102C132.639 188.102 132.087 187.679 131.942 187.046L131.933 187.007H132.485L132.497 187.04C132.627 187.399 132.938 187.622 133.384 187.622C134.195 187.622 134.515 186.835 134.539 185.921C134.542 185.891 134.542 185.861 134.542 185.828H134.53C134.355 186.214 133.909 186.527 133.318 186.527C132.488 186.527 131.873 185.915 131.873 185.089V185.083C131.873 184.226 132.525 183.605 133.414 183.605ZM133.411 186.051C133.981 186.051 134.412 185.647 134.412 185.092V185.089C134.412 184.531 133.978 184.088 133.42 184.088C132.865 184.088 132.425 184.522 132.425 185.071V185.077C132.425 185.644 132.838 186.051 133.411 186.051ZM135.634 188.029V187.655L137.166 186.057C137.754 185.445 137.89 185.209 137.89 184.848V184.842C137.887 184.398 137.552 184.079 137.078 184.079C136.536 184.079 136.131 184.452 136.131 184.92V184.935H135.607V184.917C135.607 184.163 136.258 183.605 137.069 183.605C137.857 183.605 138.433 184.133 138.433 184.814V184.82C138.433 185.297 138.212 185.656 137.413 186.473L136.379 187.535V187.547H138.505V188.029H135.634Z" fill="#717176"/>
<rect x="226.823" y="180.897" width="16.3235" height="9.26471" rx="4.63235" fill="#015AA2"/>
<g filter="url(#filter4_d_7053_23428)">
<circle cx="238.073" cy="185.529" r="3.30882" fill="white"/>
</g>
</g>
<rect x="-231.779" y="32.2206" width="509.559" height="313.853" stroke="#F2F2F7" stroke-width="0.441176"/>
<rect width="316" height="55" transform="translate(0 135)" fill="url(#paint0_linear_7053_23428)"/>
<g filter="url(#filter5_d_7053_23428)">
<rect x="183" y="17" width="116" height="40" rx="8" fill="url(#paint1_linear_7053_23428)" shape-rendering="crispEdges"/>
<path d="M200.32 43V38.0625H199.328V36.6641H200.32V31.7266H204.438C207.797 31.7266 209.797 33.7578 209.797 37.3203V37.3359C209.797 40.9062 207.812 43 204.438 43H200.32ZM202.336 41.2969H204.227C206.492 41.2969 207.742 39.9141 207.742 37.3438V37.3281C207.742 34.8125 206.469 33.4297 204.227 33.4297H202.336V36.6641H204.156V38.0625H202.336V41.2969ZM216.398 31.1016L214.609 28.8125H216.32L217.578 31.1016H216.398ZM211.914 33.8203L213.758 31.4219H215.438L217.281 33.8203H215.797L214.586 32.25L213.398 33.8203H211.914ZM214.867 43.1641C212.43 43.1641 210.859 41.5391 210.859 38.8594V38.8438C210.859 36.1875 212.453 34.5469 214.859 34.5469C217.273 34.5469 218.875 36.1719 218.875 38.8438V38.8594C218.875 41.5469 217.297 43.1641 214.867 43.1641ZM214.875 41.5938C216.102 41.5938 216.891 40.5938 216.891 38.8594V38.8438C216.891 37.1172 216.094 36.125 214.859 36.125C213.648 36.125 212.844 37.125 212.844 38.8438V38.8594C212.844 40.6016 213.633 41.5938 214.875 41.5938ZM220.125 43V34.7188H222.07V36.0156H222.109C222.539 35.125 223.383 34.5469 224.641 34.5469C226.461 34.5469 227.5 35.7188 227.5 37.6406V43H225.555V38.0312C225.555 36.8516 225.008 36.1875 223.898 36.1875C222.781 36.1875 222.07 37 222.07 38.1953V43H220.125ZM232.797 45.8984C230.602 45.8984 229.219 44.8984 228.984 43.6016L228.969 43.5312H230.883L230.906 43.5938C231.117 44.0703 231.781 44.4297 232.797 44.4297C234.062 44.4297 234.758 43.7578 234.758 42.7031V41.5078H234.719C234.258 42.3906 233.32 42.9531 232.133 42.9531C230.055 42.9531 228.719 41.3594 228.719 38.7812V38.7734C228.719 36.1562 230.07 34.5469 232.164 34.5469C233.336 34.5469 234.242 35.1719 234.711 36.125H234.758V34.7188H236.703V42.7656C236.703 44.6406 235.195 45.8984 232.797 45.8984ZM232.742 41.4531C233.953 41.4531 234.766 40.4297 234.766 38.8203V38.8125C234.766 37.2109 233.945 36.1875 232.742 36.1875C231.492 36.1875 230.703 37.1953 230.703 38.8047V38.8125C230.703 40.4453 231.492 41.4531 232.742 41.4531ZM246.125 43.1641C244.93 43.1641 244.016 42.5703 243.547 41.5938H243.5V43H241.555V31.7266H243.5V36.1406H243.547C244.016 35.1484 244.961 34.5469 246.133 34.5469C248.211 34.5469 249.547 36.1797 249.547 38.8516V38.8594C249.547 41.5234 248.219 43.1641 246.125 43.1641ZM245.539 41.5234C246.789 41.5234 247.562 40.5078 247.562 38.8594V38.8516C247.562 37.2031 246.781 36.1875 245.539 36.1875C244.344 36.1875 243.5 37.2344 243.5 38.8516V38.8594C243.5 40.4844 244.336 41.5234 245.539 41.5234ZM251.812 33.7812L253.625 31.2344H255.289L257.117 33.7812H255.641L254.453 32.1484L253.289 33.7812H251.812ZM254.461 43.1641C252.023 43.1641 250.453 41.5391 250.453 38.8594V38.8438C250.453 36.1875 252.047 34.5469 254.453 34.5469C256.867 34.5469 258.469 36.1719 258.469 38.8438V38.8594C258.469 41.5469 256.891 43.1641 254.461 43.1641ZM254.469 41.5938C255.695 41.5938 256.484 40.5938 256.484 38.8594V38.8438C256.484 37.1172 255.688 36.125 254.453 36.125C253.242 36.125 252.438 37.125 252.438 38.8438V38.8594C252.438 40.6016 253.227 41.5938 254.469 41.5938ZM254.461 46.3125C253.859 46.3125 253.375 45.8281 253.375 45.25C253.375 44.6641 253.859 44.1875 254.461 44.1875C255.078 44.1875 255.547 44.6641 255.547 45.25C255.547 45.8281 255.078 46.3125 254.461 46.3125Z" fill="white"/>
<path d="M264.25 44.3262V39.8262C264.25 39.4122 264.586 39.0762 265 39.0762H269.499C269.913 39.0762 270.249 39.4122 270.249 39.8262C270.249 40.2405 269.913 40.5762 269.499 40.5762H266.81L268.397 42.1651L268.708 42.4571C269.456 43.1165 270.364 43.6185 271.395 43.8946L271.729 43.9747C275.188 44.7158 278.656 42.6218 279.582 39.1671C279.689 38.767 280.101 38.5296 280.501 38.6368C280.901 38.7441 281.138 39.1557 281.031 39.5557C279.898 43.7856 275.65 46.3491 271.416 45.4415L271.007 45.3428C269.568 44.9572 268.319 44.2099 267.336 43.2247L265.75 41.6378V44.3262C265.75 44.7404 265.414 45.0762 265 45.0762C264.586 45.0762 264.25 44.7404 264.25 44.3262ZM265.219 35.3184C266.389 30.9521 270.877 28.3605 275.243 29.5303L275.511 29.6075C276.837 30.0109 277.992 30.7249 278.914 31.6485L280.5 33.2354V30.5479C280.5 30.1337 280.836 29.7979 281.25 29.7979C281.664 29.7979 282 30.1337 282 30.5479V35.0469C282 35.4612 281.664 35.7969 281.25 35.7969H276.751C276.337 35.7969 276.001 35.4612 276.001 35.0469C276.001 34.6328 276.337 34.2969 276.751 34.2969H279.44L277.853 32.7091C277.101 31.9558 276.159 31.372 275.074 31.0421L274.855 30.9796C271.289 30.024 267.624 32.1409 266.668 35.7071C266.561 36.107 266.149 36.3445 265.749 36.2374C265.349 36.1302 265.112 35.7185 265.219 35.3184Z" fill="white"/>
</g>
</g>
<defs>
<filter id="filter0_d_7053_23428" x="218.765" y="59.8677" width="38.6172" height="38.6177" filterUnits="userSpaceOnUse" color-interpolation-filters="sRGB">
<feFlood flood-opacity="0" result="BackgroundImageFix"/>
<feColorMatrix in="SourceAlpha" type="matrix" values="0 0 0 0 0 0 0 0 0 0 0 0 0 0 0 0 0 0 127 0" result="hardAlpha"/>
<feOffset dy="8"/>
<feGaussianBlur stdDeviation="8"/>
<feComposite in2="hardAlpha" operator="out"/>
<feColorMatrix type="matrix" values="0 0 0 0 0.00392157 0 0 0 0 0.0901961 0 0 0 0 0.443137 0 0 0 0.06 0"/>
<feBlend mode="normal" in2="BackgroundImageFix" result="effect1_dropShadow_7053_23428"/>
<feBlend mode="normal" in="SourceGraphic" in2="effect1_dropShadow_7053_23428" result="shape"/>
</filter>
<filter id="filter1_d_7053_23428" x="218.765" y="88.4558" width="38.6172" height="38.6177" filterUnits="userSpaceOnUse" color-interpolation-filters="sRGB">
<feFlood flood-opacity="0" result="BackgroundImageFix"/>
<feColorMatrix in="SourceAlpha" type="matrix" values="0 0 0 0 0 0 0 0 0 0 0 0 0 0 0 0 0 0 127 0" result="hardAlpha"/>
<feOffset dy="8"/>
<feGaussianBlur stdDeviation="8"/>
<feComposite in2="hardAlpha" operator="out"/>
<feColorMatrix type="matrix" values="0 0 0 0 0.00392157 0 0 0 0 0.0901961 0 0 0 0 0.443137 0 0 0 0.06 0"/>
<feBlend mode="normal" in2="BackgroundImageFix" result="effect1_dropShadow_7053_23428"/>
<feBlend mode="normal" in="SourceGraphic" in2="effect1_dropShadow_7053_23428" result="shape"/>
</filter>
<filter id="filter2_d_7053_23428" x="218.765" y="117.044" width="38.6172" height="38.6177" filterUnits="userSpaceOnUse" color-interpolation-filters="sRGB">
<feFlood flood-opacity="0" result="BackgroundImageFix"/>
<feColorMatrix in="SourceAlpha" type="matrix" values="0 0 0 0 0 0 0 0 0 0 0 0 0 0 0 0 0 0 127 0" result="hardAlpha"/>
<feOffset dy="8"/>
<feGaussianBlur stdDeviation="8"/>
<feComposite in2="hardAlpha" operator="out"/>
<feColorMatrix type="matrix" values="0 0 0 0 0.00392157 0 0 0 0 0.0901961 0 0 0 0 0.443137 0 0 0 0.06 0"/>
<feBlend mode="normal" in2="BackgroundImageFix" result="effect1_dropShadow_7053_23428"/>
<feBlend mode="normal" in="SourceGraphic" in2="effect1_dropShadow_7053_23428" result="shape"/>
</filter>
<filter id="filter3_d_7053_23428" x="218.765" y="145.632" width="38.6172" height="38.6177" filterUnits="userSpaceOnUse" color-interpolation-filters="sRGB">
<feFlood flood-opacity="0" result="BackgroundImageFix"/>
<feColorMatrix in="SourceAlpha" type="matrix" values="0 0 0 0 0 0 0 0 0 0 0 0 0 0 0 0 0 0 127 0" result="hardAlpha"/>
<feOffset dy="8"/>
<feGaussianBlur stdDeviation="8"/>
<feComposite in2="hardAlpha" operator="out"/>
<feColorMatrix type="matrix" values="0 0 0 0 0.00392157 0 0 0 0 0.0901961 0 0 0 0 0.443137 0 0 0 0.06 0"/>
<feBlend mode="normal" in2="BackgroundImageFix" result="effect1_dropShadow_7053_23428"/>
<feBlend mode="normal" in="SourceGraphic" in2="effect1_dropShadow_7053_23428" result="shape"/>
</filter>
<filter id="filter4_d_7053_23428" x="218.765" y="174.22" width="38.6172" height="38.6177" filterUnits="userSpaceOnUse" color-interpolation-filters="sRGB">
<feFlood flood-opacity="0" result="BackgroundImageFix"/>
<feColorMatrix in="SourceAlpha" type="matrix" values="0 0 0 0 0 0 0 0 0 0 0 0 0 0 0 0 0 0 127 0" result="hardAlpha"/>
<feOffset dy="8"/>
<feGaussianBlur stdDeviation="8"/>
<feComposite in2="hardAlpha" operator="out"/>
<feColorMatrix type="matrix" values="0 0 0 0 0.00392157 0 0 0 0 0.0901961 0 0 0 0 0.443137 0 0 0 0.06 0"/>
<feBlend mode="normal" in2="BackgroundImageFix" result="effect1_dropShadow_7053_23428"/>
<feBlend mode="normal" in="SourceGraphic" in2="effect1_dropShadow_7053_23428" result="shape"/>
</filter>
<filter id="filter5_d_7053_23428" x="175" y="13" width="132" height="56" filterUnits="userSpaceOnUse" color-interpolation-filters="sRGB">
<feFlood flood-opacity="0" result="BackgroundImageFix"/>
<feColorMatrix in="SourceAlpha" type="matrix" values="0 0 0 0 0 0 0 0 0 0 0 0 0 0 0 0 0 0 127 0" result="hardAlpha"/>
<feOffset dy="4"/>
<feGaussianBlur stdDeviation="4"/>
<feComposite in2="hardAlpha" operator="out"/>
<feColorMatrix type="matrix" values="0 0 0 0 0 0 0 0 0 0.275384 0 0 0 0 0.718393 0 0 0 0.15 0"/>
<feBlend mode="normal" in2="BackgroundImageFix" result="effect1_dropShadow_7053_23428"/>
<feBlend mode="normal" in="SourceGraphic" in2="effect1_dropShadow_7053_23428" result="shape"/>
</filter>
<linearGradient id="paint0_linear_7053_23428" x1="158" y1="0" x2="158" y2="55" gradientUnits="userSpaceOnUse">
<stop stop-color="white" stop-opacity="0"/>
<stop offset="1" stop-color="white"/>
</linearGradient>
<linearGradient id="paint1_linear_7053_23428" x1="241" y1="17" x2="241" y2="57" gradientUnits="userSpaceOnUse">
<stop stop-color="#015AA2"/>
<stop offset="1" stop-color="#00213C"/>
</linearGradient>
<clipPath id="clip0_7053_23428">
<rect width="316" height="190" fill="white"/>
</clipPath>
<clipPath id="clip1_7053_23428">
<rect x="-232" y="32" width="510" height="314.294" fill="white"/>
</clipPath>
</defs>
</svg>
