<svg width="40" height="40" viewBox="0 0 40 40" fill="none" xmlns="http://www.w3.org/2000/svg">
<path d="M36.2016 14.6578L33.9609 6.8125C33.8102 6.29205 33.4952 5.83432 33.0629 5.50765C32.6307 5.18097 32.1043 5.0029 31.5625 5H8.4375C7.89568 5.0029 7.36933 5.18097 6.93706 5.50765C6.50478 5.83432 6.18977 6.29205 6.03906 6.8125L3.79844 14.6578C3.76641 14.7691 3.7501 14.8842 3.75 15V17.5C3.75 18.4703 3.97591 19.4272 4.40983 20.2951C4.84375 21.1629 5.47377 21.9178 6.25 22.5V33.75C6.25 34.0815 6.3817 34.3995 6.61612 34.6339C6.85054 34.8683 7.16848 35 7.5 35H32.5C32.8315 35 33.1495 34.8683 33.3839 34.6339C33.6183 34.3995 33.75 34.0815 33.75 33.75V22.5C34.5262 21.9178 35.1562 21.1629 35.5902 20.2951C36.0241 19.4272 36.25 18.4703 36.25 17.5V15C36.2499 14.8842 36.2336 14.7691 36.2016 14.6578ZM13.75 17.5C13.7498 18.1449 13.5833 18.7788 13.2665 19.3405C12.9498 19.9022 12.4936 20.3727 11.942 20.7067C11.3903 21.0406 10.7619 21.2267 10.1173 21.2468C9.47281 21.267 8.83396 21.1207 8.2625 20.8219C8.17555 20.7542 8.0799 20.6985 7.97813 20.6562C7.44856 20.3172 7.01274 19.8505 6.71076 19.2989C6.40878 18.7474 6.25033 18.1288 6.25 17.5V16.25H13.75V17.5ZM23.75 17.5C23.75 18.4946 23.3549 19.4484 22.6517 20.1517C21.9484 20.8549 20.9946 21.25 20 21.25C19.0054 21.25 18.0516 20.8549 17.3483 20.1517C16.6451 19.4484 16.25 18.4946 16.25 17.5V16.25H23.75V17.5ZM33.75 17.5C33.7495 18.1289 33.5908 18.7476 33.2886 19.2992C32.9863 19.8507 32.5502 20.3174 32.0203 20.6562C31.9199 20.6986 31.8253 20.7537 31.7391 20.8203C31.1677 21.1194 30.5288 21.2661 29.8842 21.2461C29.2395 21.2262 28.6109 21.0404 28.0591 20.7066C27.5073 20.3728 27.0508 19.9023 26.7339 19.3406C26.417 18.7789 26.2504 18.1449 26.25 17.5V16.25H33.75V17.5Z" fill="url(#paint0_linear_7053_23038)"/>
<defs>
<linearGradient id="paint0_linear_7053_23038" x1="20" y1="5" x2="20" y2="35" gradientUnits="userSpaceOnUse">
<stop stop-color="#EDAA00"/>
<stop offset="1" stop-color="#FFD97A"/>
</linearGradient>
</defs>
</svg>
